<?xml version="1.0" encoding="UTF-8" standalone="no"?>
<!-- Creator: fig2dev Version 3.2 Patchlevel 5-alpha7 -->
<!-- CreationDate: Mon Apr 14 01:30:22 2008 -->
<!-- Magnification: 1.000 -->
<svg
   xmlns:dc="http://purl.org/dc/elements/1.1/"
   xmlns:cc="http://web.resource.org/cc/"
   xmlns:rdf="http://www.w3.org/1999/02/22-rdf-syntax-ns#"
   xmlns:svg="http://www.w3.org/2000/svg"
   xmlns="http://www.w3.org/2000/svg"
   xmlns:sodipodi="http://sodipodi.sourceforge.net/DTD/sodipodi-0.dtd"
   xmlns:inkscape="http://www.inkscape.org/namespaces/inkscape"
   width="10.4in"
   height="3.8in"
   viewBox="362 -12 12476 4539"
   id="svg25230"
   sodipodi:version="0.32"
   inkscape:version="0.44.1"
   sodipodi:docname="bKung16.svg"
   sodipodi:docbase="/home/leandro/tfinal/eamta2008/papel-lava/figuras">
  <metadata
     id="metadata25645">
    <rdf:RDF>
      <cc:Work
         rdf:about="">
        <dc:format>image/svg+xml</dc:format>
        <dc:type
           rdf:resource="http://purl.org/dc/dcmitype/StillImage" />
      </cc:Work>
    </rdf:RDF>
  </metadata>
  <defs
     id="defs25643" />
  <sodipodi:namedview
     inkscape:window-height="587"
     inkscape:window-width="945"
     inkscape:pageshadow="2"
     inkscape:pageopacity="0.0"
     guidetolerance="10.0"
     gridtolerance="10.0"
     objecttolerance="10.0"
     borderopacity="1.0"
     bordercolor="#666666"
     pagecolor="#ffffff"
     id="base"
     inkscape:zoom="2.5957468"
     inkscape:cx="348.62326"
     inkscape:cy="210.0613"
     inkscape:window-x="64"
     inkscape:window-y="144"
     inkscape:current-layer="svg25230"
     showgrid="true" />
  <path
     transform="matrix(0.5,0,0,0.5,3300,907.5)"
     style="fill:black;stroke:black;stroke-width:7"
     d="M 830,400 C 830,416.56 816.56,430 800,430 C 783.44,430 770,416.56 770,400 C 770,383.44 783.44,370 800,370 C 816.56,370 830,383.44 830,400 z "
     id="circle25234" />
  <path
     transform="matrix(0.5,0,0,0.5,3300,907.5)"
     style="fill:black;stroke:black;stroke-width:7"
     d="M 1630,400 C 1630,416.56 1616.56,430 1600,430 C 1583.44,430 1570,416.56 1570,400 C 1570,383.44 1583.44,370 1600,370 C 1616.56,370 1630,383.44 1630,400 z "
     id="circle25236" />
  <path
     transform="matrix(0.5,0,0,0.5,3300,907.5)"
     style="fill:black;stroke:black;stroke-width:7"
     d="M 2430,400 C 2430,416.56 2416.56,430 2400,430 C 2383.44,430 2370,416.56 2370,400 C 2370,383.44 2383.44,370 2400,370 C 2416.56,370 2430,383.44 2430,400 z "
     id="circle25238" />
  <path
     transform="matrix(0.5,0,0,0.5,3300,907.5)"
     style="fill:black;stroke:black;stroke-width:7"
     d="M 3230,400 C 3230,416.56 3216.56,430 3200,430 C 3183.44,430 3170,416.56 3170,400 C 3170,383.44 3183.44,370 3200,370 C 3216.56,370 3230,383.44 3230,400 z "
     id="circle25240" />
  <path
     transform="matrix(0.5,0,0,0.5,3300,907.5)"
     style="fill:black;stroke:black;stroke-width:7"
     d="M 4030,400 C 4030,416.56 4016.56,430 4000,430 C 3983.44,430 3970,416.56 3970,400 C 3970,383.44 3983.44,370 4000,370 C 4016.56,370 4030,383.44 4030,400 z "
     id="circle25242" />
  <path
     transform="matrix(0.5,0,0,0.5,3300,907.5)"
     style="fill:black;stroke:black;stroke-width:7"
     d="M 4830,400 C 4830,416.56 4816.56,430 4800,430 C 4783.44,430 4770,416.56 4770,400 C 4770,383.44 4783.44,370 4800,370 C 4816.56,370 4830,383.44 4830,400 z "
     id="circle25244" />
  <path
     transform="matrix(0.5,0,0,0.5,3300,907.5)"
     style="fill:black;stroke:black;stroke-width:7"
     d="M 5630,400 C 5630,416.56 5616.56,430 5600,430 C 5583.44,430 5570,416.56 5570,400 C 5570,383.44 5583.44,370 5600,370 C 5616.56,370 5630,383.44 5630,400 z "
     id="circle25246" />
  <path
     transform="matrix(0.5,0,0,0.5,3300,907.5)"
     style="fill:black;stroke:black;stroke-width:7"
     d="M 6430,400 C 6430,416.56 6416.56,430 6400,430 C 6383.44,430 6370,416.56 6370,400 C 6370,383.44 6383.44,370 6400,370 C 6416.56,370 6430,383.44 6430,400 z "
     id="circle25248" />
  <path
     transform="matrix(0.5,0,0,0.5,3300,907.5)"
     style="fill:black;stroke:black;stroke-width:7"
     d="M 1630,800 C 1630,816.56 1616.56,830 1600,830 C 1583.44,830 1570,816.56 1570,800 C 1570,783.44 1583.44,770 1600,770 C 1616.56,770 1630,783.44 1630,800 z "
     id="circle25266" />
  <path
     transform="matrix(0.5,0,0,0.5,3300,907.5)"
     style="fill:black;stroke:black;stroke-width:7"
     d="M 3230,800 C 3230,816.56 3216.56,830 3200,830 C 3183.44,830 3170,816.56 3170,800 C 3170,783.44 3183.44,770 3200,770 C 3216.56,770 3230,783.44 3230,800 z "
     id="circle25268" />
  <path
     transform="matrix(0.5,0,0,0.5,3300,907.5)"
     style="fill:black;stroke:black;stroke-width:7"
     d="M 4830,800 C 4830,816.56 4816.56,830 4800,830 C 4783.44,830 4770,816.56 4770,800 C 4770,783.44 4783.44,770 4800,770 C 4816.56,770 4830,783.44 4830,800 z "
     id="circle25270" />
  <path
     transform="matrix(0.5,0,0,0.5,3300,907.5)"
     style="fill:black;stroke:black;stroke-width:7"
     d="M 6430,800 C 6430,816.56 6416.56,830 6400,830 C 6383.44,830 6370,816.56 6370,800 C 6370,783.44 6383.44,770 6400,770 C 6416.56,770 6430,783.44 6430,800 z "
     id="circle25272" />
  <path
     transform="matrix(0.5,0,0,0.5,3300,907.5)"
     style="fill:black;stroke:black;stroke-width:7"
     d="M 1230,1200 C 1230,1216.56 1216.56,1230 1200,1230 C 1183.44,1230 1170,1216.56 1170,1200 C 1170,1183.44 1183.44,1170 1200,1170 C 1216.56,1170 1230,1183.44 1230,1200 z "
     id="circle25282" />
  <path
     transform="matrix(0.5,0,0,0.5,3300,907.5)"
     style="fill:black;stroke:black;stroke-width:7"
     d="M 3230,1200 C 3230,1216.56 3216.56,1230 3200,1230 C 3183.44,1230 3170,1216.56 3170,1200 C 3170,1183.44 3183.44,1170 3200,1170 C 3216.56,1170 3230,1183.44 3230,1200 z "
     id="circle25284" />
  <path
     transform="matrix(0.5,0,0,0.5,3300,907.5)"
     style="fill:black;stroke:black;stroke-width:7"
     d="M 6430,1200 C 6430,1216.56 6416.56,1230 6400,1230 C 6383.44,1230 6370,1216.56 6370,1200 C 6370,1183.44 6383.44,1170 6400,1170 C 6416.56,1170 6430,1183.44 6430,1200 z "
     id="circle25286" />
  <path
     transform="matrix(0.5,0,0,0.5,3300,907.5)"
     style="fill:black;stroke:black;stroke-width:7"
     d="M 2430,1600 C 2430,1616.56 2416.56,1630 2400,1630 C 2383.44,1630 2370,1616.56 2370,1600 C 2370,1583.44 2383.44,1570 2400,1570 C 2416.56,1570 2430,1583.44 2430,1600 z "
     id="circle25292" />
  <path
     transform="matrix(0.5,0,0,0.5,3300,907.5)"
     style="fill:black;stroke:black;stroke-width:7"
     d="M 6430,1600 C 6430,1616.56 6416.56,1630 6400,1630 C 6383.44,1630 6370,1616.56 6370,1600 C 6370,1583.44 6383.44,1570 6400,1570 C 6416.56,1570 6430,1583.44 6430,1600 z "
     id="circle25294" />
  <path
     transform="matrix(0.5,0,0,0.5,3300,907.5)"
     style="fill:black;stroke:black;stroke-width:7"
     d="M 2030,2000 C 2030,2016.56 2016.56,2030 2000,2030 C 1983.44,2030 1970,2016.56 1970,2000 C 1970,1983.44 1983.44,1970 2000,1970 C 2016.56,1970 2030,1983.44 2030,2000 z "
     id="circle25298" />
  <path
     transform="matrix(0.5,0,0,0.5,3300,907.5)"
     style="fill:black;stroke:black;stroke-width:7"
     d="M 2830,2000 C 2830,2016.56 2816.56,2030 2800,2030 C 2783.44,2030 2770,2016.56 2770,2000 C 2770,1983.44 2783.44,1970 2800,1970 C 2816.56,1970 2830,1983.44 2830,2000 z "
     id="circle25300" />
  <path
     transform="matrix(0.5,0,0,0.5,3300,907.5)"
     style="fill:black;stroke:black;stroke-width:7"
     d="M 4830,2000 C 4830,2016.56 4816.56,2030 4800,2030 C 4783.44,2030 4770,2016.56 4770,2000 C 4770,1983.44 4783.44,1970 4800,1970 C 4816.56,1970 4830,1983.44 4830,2000 z "
     id="circle25302" />
  <path
     transform="matrix(0.5,0,0,0.5,3300,907.5)"
     style="fill:black;stroke:black;stroke-width:7"
     d="M 4030,2400 C 4030,2416.56 4016.56,2430 4000,2430 C 3983.44,2430 3970,2416.56 3970,2400 C 3970,2383.44 3983.44,2370 4000,2370 C 4016.56,2370 4030,2383.44 4030,2400 z "
     id="circle25306" />
  <path
     transform="matrix(0.5,0,0,0.5,3300,907.5)"
     style="fill:black;stroke:black;stroke-width:7"
     d="M 5630,2400 C 5630,2416.56 5616.56,2430 5600,2430 C 5583.44,2430 5570,2416.56 5570,2400 C 5570,2383.44 5583.44,2370 5600,2370 C 5616.56,2370 5630,2383.44 5630,2400 z "
     id="circle25308" />
  <path
     transform="matrix(0.5,0,0,0.5,3300,907.5)"
     style="fill:black;stroke:black;stroke-width:7"
     d="M 3630,2800 C 3630,2816.56 3616.56,2830 3600,2830 C 3583.44,2830 3570,2816.56 3570,2800 C 3570,2783.44 3583.44,2770 3600,2770 C 3616.56,2770 3630,2783.44 3630,2800 z "
     id="circle25312" />
  <path
     transform="matrix(0.5,0,0,0.5,3300,907.5)"
     style="fill:black;stroke:black;stroke-width:7"
     d="M 4430,2800 C 4430,2816.56 4416.56,2830 4400,2830 C 4383.44,2830 4370,2816.56 4370,2800 C 4370,2783.44 4383.44,2770 4400,2770 C 4416.56,2770 4430,2783.44 4430,2800 z "
     id="circle25314" />
  <path
     transform="matrix(0.5,0,0,0.5,3300,907.5)"
     style="fill:black;stroke:black;stroke-width:7"
     d="M 5230,2800 C 5230,2816.56 5216.56,2830 5200,2830 C 5183.44,2830 5170,2816.56 5170,2800 C 5170,2783.44 5183.44,2770 5200,2770 C 5216.56,2770 5230,2783.44 5230,2800 z "
     id="circle25316" />
  <path
     transform="matrix(0.5,0,0,0.5,3300,907.5)"
     style="fill:black;stroke:black;stroke-width:7"
     d="M 6030,2800 C 6030,2816.56 6016.56,2830 6000,2830 C 5983.44,2830 5970,2816.56 5970,2800 C 5970,2783.44 5983.44,2770 6000,2770 C 6016.56,2770 6030,2783.44 6030,2800 z "
     id="circle25318" />
  <path
     transform="matrix(0.5,0,0,0.5,3300,907.5)"
     style="fill:white;stroke:black;stroke-width:7"
     d="M 830,800 C 830,816.56 816.56,830 800,830 C 783.44,830 770,816.56 770,800 C 770,783.44 783.44,770 800,770 C 816.56,770 830,783.44 830,800 z "
     id="circle25380" />
  <path
     transform="matrix(0.5,0,0,0.5,3300,907.5)"
     style="fill:white;stroke:black;stroke-width:7"
     d="M 1630,1200 C 1630,1216.56 1616.56,1230 1600,1230 C 1583.44,1230 1570,1216.56 1570,1200 C 1570,1183.44 1583.44,1170 1600,1170 C 1616.56,1170 1630,1183.44 1630,1200 z "
     id="circle25398" />
  <path
     transform="matrix(0.5,0,0,0.5,3300,907.5)"
     style="fill:white;stroke:black;stroke-width:7"
     d="M 1630,1600 C 1630,1616.56 1616.56,1630 1600,1630 C 1583.44,1630 1570,1616.56 1570,1600 C 1570,1583.44 1583.44,1570 1600,1570 C 1616.56,1570 1630,1583.44 1630,1600 z "
     id="circle25406" />
  <path
     transform="matrix(0.5,0,0,0.5,3300,907.5)"
     style="fill:white;stroke:black;stroke-width:7"
     d="M 3230,1600 C 3230,1616.56 3216.56,1630 3200,1630 C 3183.44,1630 3170,1616.56 3170,1600 C 3170,1583.44 3183.44,1570 3200,1570 C 3216.56,1570 3230,1583.44 3230,1600 z "
     id="circle25408" />
  <path
     transform="matrix(0.5,0,0,0.5,3300,907.5)"
     style="fill:white;stroke:black;stroke-width:7"
     d="M 3230,2000 C 3230,2016.56 3216.56,2030 3200,2030 C 3183.44,2030 3170,2016.56 3170,2000 C 3170,1983.44 3183.44,1970 3200,1970 C 3216.56,1970 3230,1983.44 3230,2000 z "
     id="circle25416" />
  <path
     transform="matrix(0.5,0,0,0.5,3300,907.5)"
     style="fill:white;stroke:black;stroke-width:7"
     d="M 3230,2400 C 3230,2416.56 3216.56,2430 3200,2430 C 3183.44,2430 3170,2416.56 3170,2400 C 3170,2383.44 3183.44,2370 3200,2370 C 3216.56,2370 3230,2383.44 3230,2400 z "
     id="circle25420" />
  <path
     transform="matrix(0.5,0,0,0.5,3300,907.5)"
     style="fill:white;stroke:black;stroke-width:7"
     d="M 4830,2400 C 4830,2416.56 4816.56,2430 4800,2430 C 4783.44,2430 4770,2416.56 4770,2400 C 4770,2383.44 4783.44,2370 4800,2370 C 4816.56,2370 4830,2383.44 4830,2400 z "
     id="circle25422" />
  <path
     transform="matrix(0.5,0,0,0.5,3300,907.5)"
     style="fill:none;stroke:black;stroke-width:7;stroke-linecap:butt;stroke-linejoin:miter"
     d="M 400,0 L 800,400"
     id="polyline25462" />
  <path
     transform="matrix(0.5,0,0,0.5,3300,907.5)"
     style="fill:none;stroke:black;stroke-width:7;stroke-linecap:butt;stroke-linejoin:miter"
     d="M 1200,0 L 1600,400"
     id="polyline25464" />
  <path
     transform="matrix(0.5,0,0,0.5,3300,907.5)"
     style="fill:none;stroke:black;stroke-width:7;stroke-linecap:butt;stroke-linejoin:miter"
     d="M 2000,0 L 2400,400"
     id="polyline25466" />
  <path
     transform="matrix(0.5,0,0,0.5,3300,907.5)"
     style="fill:none;stroke:black;stroke-width:7;stroke-linecap:butt;stroke-linejoin:miter"
     d="M 2800,0 L 3200,400"
     id="polyline25468" />
  <path
     transform="matrix(0.5,0,0,0.5,3300,907.5)"
     style="fill:none;stroke:black;stroke-width:7;stroke-linecap:butt;stroke-linejoin:miter"
     d="M 3600,0 L 4000,400"
     id="polyline25470" />
  <path
     transform="matrix(0.5,0,0,0.5,3300,907.5)"
     style="fill:none;stroke:black;stroke-width:7;stroke-linecap:butt;stroke-linejoin:miter"
     d="M 4400,0 L 4800,400"
     id="polyline25472" />
  <path
     transform="matrix(0.5,0,0,0.5,3300,907.5)"
     style="fill:none;stroke:black;stroke-width:7;stroke-linecap:butt;stroke-linejoin:miter"
     d="M 5200,0 L 5600,400"
     id="polyline25474" />
  <path
     transform="matrix(0.5,0,0,0.5,3300,907.5)"
     style="fill:none;stroke:black;stroke-width:7;stroke-linecap:butt;stroke-linejoin:miter"
     d="M 6000,0 L 6400,400"
     id="polyline25476" />
  <path
     transform="matrix(0.5,0,0,0.5,3300,907.5)"
     style="fill:none;stroke:black;stroke-width:7;stroke-linecap:butt;stroke-linejoin:miter"
     d="M 800,400 L 1600,800"
     id="polyline25494" />
  <path
     transform="matrix(0.5,0,0,0.5,3300,907.5)"
     style="fill:none;stroke:black;stroke-width:7;stroke-linecap:butt;stroke-linejoin:miter"
     d="M 2400,400 L 3200,800"
     id="polyline25496" />
  <path
     transform="matrix(0.5,0,0,0.5,3300,907.5)"
     style="fill:none;stroke:black;stroke-width:7;stroke-linecap:butt;stroke-linejoin:miter"
     d="M 4000,400 L 4800,800"
     id="polyline25498" />
  <path
     transform="matrix(0.5,0,0,0.5,3300,907.5)"
     style="fill:none;stroke:black;stroke-width:7;stroke-linecap:butt;stroke-linejoin:miter"
     d="M 5600,400 L 6400,800"
     id="polyline25500" />
  <path
     transform="matrix(0.5,0,0,0.5,3300,907.5)"
     style="fill:none;stroke:black;stroke-width:7;stroke-linecap:butt;stroke-linejoin:miter"
     d="M 800,800 L 1200,1200"
     id="polyline25510" />
  <path
     transform="matrix(0.5,0,0,0.5,3300,907.5)"
     style="fill:none;stroke:black;stroke-width:7;stroke-linecap:butt;stroke-linejoin:miter"
     d="M 1600,800 L 3200,1200"
     id="polyline25512" />
  <path
     transform="matrix(0.5,0,0,0.5,3300,907.5)"
     style="fill:none;stroke:black;stroke-width:7;stroke-linecap:butt;stroke-linejoin:miter"
     d="M 4800,800 L 6400,1200"
     id="polyline25514" />
  <path
     transform="matrix(0.5,0,0,0.5,3300,907.5)"
     style="fill:none;stroke:black;stroke-width:7;stroke-linecap:butt;stroke-linejoin:miter"
     d="M 1600,1200 L 2400,1600"
     id="polyline25520" />
  <path
     transform="matrix(0.5,0,0,0.5,3300,907.5)"
     style="fill:none;stroke:black;stroke-width:7;stroke-linecap:butt;stroke-linejoin:miter"
     d="M 3200,1200 L 6400,1600"
     id="polyline25522" />
  <path
     transform="matrix(0.5,0,0,0.5,3300,907.5)"
     style="fill:none;stroke:black;stroke-width:7;stroke-linecap:butt;stroke-linejoin:miter"
     d="M 1600,1600 L 2000,2000"
     id="polyline25526" />
  <path
     transform="matrix(0.5,0,0,0.5,3300,907.5)"
     style="fill:none;stroke:black;stroke-width:7;stroke-linecap:butt;stroke-linejoin:miter"
     d="M 2400,1600 L 2800,2000"
     id="polyline25528" />
  <path
     transform="matrix(0.5,0,0,0.5,3300,907.5)"
     style="fill:none;stroke:black;stroke-width:7;stroke-linecap:butt;stroke-linejoin:miter"
     d="M 3200,1600 L 4800,2000"
     id="polyline25530" />
  <path
     transform="matrix(0.5,0,0,0.5,3300,907.5)"
     style="fill:none;stroke:black;stroke-width:7;stroke-linecap:butt;stroke-linejoin:miter"
     d="M 3200,2000 L 4000,2400"
     id="polyline25534" />
  <path
     transform="matrix(0.5,0,0,0.5,3300,907.5)"
     style="fill:none;stroke:black;stroke-width:7;stroke-linecap:butt;stroke-linejoin:miter"
     d="M 4800,2000 L 5600,2400"
     id="polyline25536" />
  <path
     transform="matrix(0.5,0,0,0.5,3300,907.5)"
     style="fill:none;stroke:black;stroke-width:7;stroke-linecap:butt;stroke-linejoin:miter"
     d="M 3200,2400 L 3600,2800"
     id="polyline25540" />
  <path
     transform="matrix(0.5,0,0,0.5,3300,907.5)"
     style="fill:none;stroke:black;stroke-width:7;stroke-linecap:butt;stroke-linejoin:miter"
     d="M 4000,2400 L 4400,2800"
     id="polyline25542" />
  <path
     transform="matrix(0.5,0,0,0.5,3300,907.5)"
     style="fill:none;stroke:black;stroke-width:7;stroke-linecap:butt;stroke-linejoin:miter"
     d="M 4800,2400 L 5200,2800"
     id="polyline25544" />
  <path
     transform="matrix(0.5,0,0,0.5,3300,907.5)"
     style="fill:none;stroke:black;stroke-width:7;stroke-linecap:butt;stroke-linejoin:miter"
     d="M 5600,2400 L 6000,2800"
     id="polyline25546" />
  <path
     style="fill:none;stroke:black;stroke-width:3.5;stroke-linecap:butt;stroke-linejoin:miter"
     d="M 3500,907.5 L 3500,2407.5962"
     id="polyline25576"
     sodipodi:nodetypes="cc" />
  <path
     style="fill:none;stroke:black;stroke-width:3.5;stroke-linecap:butt;stroke-linejoin:miter"
     d="M 3700,907.5 L 3700,2407.5962"
     id="polyline25578"
     sodipodi:nodetypes="cc" />
  <path
     transform="matrix(0.5,0,0,0.5,3300,907.5)"
     style="fill:none;stroke:black;stroke-width:7;stroke-linecap:butt;stroke-linejoin:miter"
     d="M 1200,6.3948846e-14 L 1200,3000.1923"
     id="polyline25580"
     sodipodi:nodetypes="cc" />
  <path
     transform="matrix(0.5,0,0,0.5,3300,907.5)"
     style="fill:none;stroke:black;stroke-width:7;stroke-linecap:butt;stroke-linejoin:miter"
     d="M 1600,6.3948846e-14 L 1600,3000.1923"
     id="polyline25582"
     sodipodi:nodetypes="cc" />
  <path
     transform="matrix(0.5,0,0,0.5,3300,907.5)"
     style="fill:none;stroke:black;stroke-width:7;stroke-linecap:butt;stroke-linejoin:miter"
     d="M 2000,6.3948846e-14 L 2000,3000.1923"
     id="polyline25584"
     sodipodi:nodetypes="cc" />
  <path
     transform="matrix(0.5,0,0,0.5,3300,907.5)"
     style="fill:none;stroke:black;stroke-width:7;stroke-linecap:butt;stroke-linejoin:miter"
     d="M 2400,6.3948846e-14 L 2400,3000.1923"
     id="polyline25586"
     sodipodi:nodetypes="cc" />
  <path
     transform="matrix(0.5,0,0,0.5,3300,907.5)"
     style="fill:none;stroke:black;stroke-width:7;stroke-linecap:butt;stroke-linejoin:miter"
     d="M 2800,6.3948846e-14 L 2800,3000.1923"
     id="polyline25588"
     sodipodi:nodetypes="cc" />
  <path
     transform="matrix(0.5,0,0,0.5,3300,907.5)"
     style="fill:none;stroke:black;stroke-width:7;stroke-linecap:butt;stroke-linejoin:miter"
     d="M 3200,6.3948846e-14 L 3200,3000.1923"
     id="polyline25590"
     sodipodi:nodetypes="cc" />
  <path
     transform="matrix(0.5,0,0,0.5,3300,907.5)"
     style="fill:none;stroke:black;stroke-width:7;stroke-linecap:butt;stroke-linejoin:miter"
     d="M 3600,6.3948846e-14 L 3600,3000.1923"
     id="polyline25592"
     sodipodi:nodetypes="cc" />
  <path
     transform="matrix(0.5,0,0,0.5,3300,907.5)"
     style="fill:none;stroke:black;stroke-width:7;stroke-linecap:butt;stroke-linejoin:miter"
     d="M 4000,6.3948846e-14 L 4000,3000.1923"
     id="polyline25594"
     sodipodi:nodetypes="cc" />
  <path
     transform="matrix(0.5,0,0,0.5,3300,907.5)"
     style="fill:none;stroke:black;stroke-width:7;stroke-linecap:butt;stroke-linejoin:miter"
     d="M 4400,6.3948846e-14 L 4400,3000.1923"
     id="polyline25596"
     sodipodi:nodetypes="cc" />
  <path
     transform="matrix(0.5,0,0,0.5,3300,907.5)"
     style="fill:none;stroke:black;stroke-width:7;stroke-linecap:butt;stroke-linejoin:miter"
     d="M 4800,6.3948846e-14 L 4800,3000.1923"
     id="polyline25598"
     sodipodi:nodetypes="cc" />
  <path
     transform="matrix(0.5,0,0,0.5,3300,907.5)"
     style="fill:none;stroke:black;stroke-width:7;stroke-linecap:butt;stroke-linejoin:miter"
     d="M 5200,6.3948846e-14 L 5200,3000.1923"
     id="polyline25600"
     sodipodi:nodetypes="cc" />
  <path
     transform="matrix(0.5,0,0,0.5,3300,907.5)"
     style="fill:none;stroke:black;stroke-width:7;stroke-linecap:butt;stroke-linejoin:miter"
     d="M 5600,6.3948846e-14 L 5600,3000.1923"
     id="polyline25602"
     sodipodi:nodetypes="cc" />
  <path
     transform="matrix(0.5,0,0,0.5,3300,907.5)"
     style="fill:none;stroke:black;stroke-width:7;stroke-linecap:butt;stroke-linejoin:miter"
     d="M 6000,6.3948846e-14 L 6000,3000.1923"
     id="polyline25604"
     sodipodi:nodetypes="cc" />
  <path
     transform="matrix(0.5,0,0,0.5,3300,907.5)"
     style="fill:none;stroke:black;stroke-width:7;stroke-linecap:butt;stroke-linejoin:miter"
     d="M 6400,6.3948846e-14 L 6400,3000.1923"
     id="polyline25606"
     sodipodi:nodetypes="cc" />
</svg>
