<?xml version="1.0" encoding="UTF-8" standalone="no"?>
<!-- Created with Inkscape (http://www.inkscape.org/) -->

<svg
   xmlns:dc="http://purl.org/dc/elements/1.1/"
   xmlns:cc="http://creativecommons.org/ns#"
   xmlns:rdf="http://www.w3.org/1999/02/22-rdf-syntax-ns#"
   xmlns:svg="http://www.w3.org/2000/svg"
   xmlns="http://www.w3.org/2000/svg"
   xmlns:sodipodi="http://sodipodi.sourceforge.net/DTD/sodipodi-0.dtd"
   xmlns:inkscape="http://www.inkscape.org/namespaces/inkscape"
   width="79.941254"
   height="110.37875"
   id="svg2"
   version="1.1"
   inkscape:version="0.48.3.1 r9886"
   sodipodi:docname="escudo-unc.svg">
  <defs
     id="defs4">
    <clipPath
       id="clipPath3036"
       clipPathUnits="userSpaceOnUse">
      <path
         id="path3038"
         d="m 0,841.89 595.276,0 L 595.276,0 0,0 0,841.89 z"
         inkscape:connector-curvature="0" />
    </clipPath>
  </defs>
  <sodipodi:namedview
     id="base"
     pagecolor="#ffffff"
     bordercolor="#666666"
     borderopacity="1.0"
     inkscape:pageopacity="0.0"
     inkscape:pageshadow="2"
     inkscape:zoom="1.3034276"
     inkscape:cx="187.03997"
     inkscape:cy="7.1216766"
     inkscape:document-units="px"
     inkscape:current-layer="layer1"
     showgrid="false"
     inkscape:window-width="1040"
     inkscape:window-height="563"
     inkscape:window-x="2"
     inkscape:window-y="123"
     inkscape:window-maximized="0"
     fit-margin-top="0"
     fit-margin-left="0"
     fit-margin-right="0"
     fit-margin-bottom="0" />
  <metadata
     id="metadata7">
    <rdf:RDF>
      <cc:Work
         rdf:about="">
        <dc:format>image/svg+xml</dc:format>
        <dc:type
           rdf:resource="http://purl.org/dc/dcmitype/StillImage" />
        <dc:title></dc:title>
      </cc:Work>
    </rdf:RDF>
  </metadata>
  <g
     inkscape:label="Capa 1"
     inkscape:groupmode="layer"
     id="layer1"
     transform="translate(-91.02218,-357.02834)">
    <g
       id="g3176">
      <g
         transform="matrix(1.25,0,0,-1.25,130.24218,425.74959)"
         id="g3062">
        <path
           id="path3064"
           style="fill:#191919;fill-opacity:1;fill-rule:nonzero;stroke:none"
           d="M 0,0 0.584,0.826 1.171,0 1.757,0.115 1.48,-0.492 c 0,0 -0.496,0.116 -0.894,0.116 -0.399,0 -0.896,-0.116 -0.896,-0.116 L -0.582,0.115 0,0 z m -7.809,-9.307 -0.005,0 0,-0.121 c 0,-1.391 1.124,-2.515 2.517,-2.515 l 0.419,0 0,-0.984 c -0.006,-1.081 -0.526,-2.041 -1.325,-2.661 0.246,-0.364 0.497,-0.704 0.749,-1.032 1.118,0.856 1.844,2.205 1.844,3.717 l 0,2.212 -1.692,0 c -0.691,0 -1.251,0.565 -1.251,1.257 l 0.011,0.14 c 0,0.559 -0.376,1.039 -0.891,1.196 -0.483,0.177 -0.827,0.638 -0.827,1.179 0,0.036 0,0.152 0.03,0.267 0.018,0.067 0.053,0.158 0.053,0.371 0,0.48 -0.261,0.886 -0.647,1.099 l -0.004,0 c -1.027,0.583 -1.715,1.689 -1.715,2.953 0,0.23 0.023,0.467 0.071,0.692 l 4.039,-1.142 4.137,-4.908 2.138,1.895 -0.005,2.825 -1.319,0 c 0,0 0.601,1.288 2.068,1.288 1.359,0 2.041,-0.979 2.277,-1.901 l 0.979,-3.67 3.762,4.471 4.041,1.142 c 0.046,-0.225 0.071,-0.462 0.071,-0.692 0,-1.264 -0.689,-2.37 -1.714,-2.953 l -0.003,0 C 9.608,-5.395 9.347,-5.801 9.347,-6.281 c 0,-0.213 0.04,-0.304 0.058,-0.371 0.026,-0.115 0.026,-0.231 0.026,-0.267 0,-0.541 -0.345,-1.002 -0.825,-1.179 C 8.091,-8.255 7.718,-8.735 7.718,-9.294 l 0.011,-0.14 c 0,-0.692 -0.564,-1.257 -1.256,-1.257 l -3.1,0 c 0,0 0.102,-2.2 -1.575,-3.973 -0.375,-0.401 -0.946,-1.477 -0.318,-2.801 0.66,-1.397 1.999,-2.016 1.999,-2.016 0.483,0.249 1.249,0.862 1.249,0.862 -1.137,0.328 -1.746,1.057 -2.124,1.737 -0.296,0.523 -0.129,1.124 0.227,1.458 0.501,0.462 1.063,1.446 1.303,2.053 0.294,0.76 0.414,1.428 0.414,1.428 l 1.925,0 c 1.387,0 2.516,1.124 2.516,2.515 l 0,0.121 -0.005,0 c 0.996,0.341 1.712,1.283 1.712,2.388 0,0.212 -0.028,0.425 -0.077,0.626 1.412,0.802 2.365,2.32 2.365,4.064 0,0.801 -0.204,1.555 -0.563,2.223 L 6.876,-1.543 4.386,-4.507 c 0,0 -0.199,0.637 -0.362,1.348 -0.341,1.501 -1.417,2.144 -1.417,2.144 L 3.921,1.859 1.775,1.434 0.586,3.043 -0.64,1.428 -2.748,1.859 -1.434,-1.015 C -2.293,-1.61 -2.928,-2.6 -2.928,-3.888 c 0,-0.103 0.008,-0.267 0.008,-0.267 l 1.471,0 0.015,-0.936 -0.729,-0.662 -3.538,4.21 -5.545,1.537 c -0.36,-0.668 -0.565,-1.422 -0.565,-2.223 0,-1.744 0.955,-3.262 2.366,-4.064 -0.053,-0.201 -0.08,-0.414 -0.08,-0.626 0,-1.105 0.719,-2.047 1.716,-2.388 m 36.93,11.184 c -0.003,0.128 -0.003,0.268 -0.003,0.401 l 0,2.879 1.638,-1.646 -1.635,-1.634 z m 0.253,-8.091 c 0.609,-1.246 0.83,-3.001 0.83,-4.234 0,-1.465 -0.409,-5.206 -4.179,-8.219 -1.707,-1.367 -3.132,-1.665 -4.639,-1.987 -1.135,-0.243 -2.305,-0.492 -3.665,-1.166 -2.935,-1.464 -4.009,-2.868 -4.794,-3.888 l -0.138,-0.177 c -4.304,-5.552 -9.961,-6.153 -12.186,-6.153 -2.227,0 -7.884,0.601 -12.191,6.153 l -0.135,0.177 c -0.783,1.02 -1.863,2.424 -4.799,3.888 -1.354,0.674 -2.528,0.923 -3.66,1.166 -1.509,0.322 -2.931,0.62 -4.638,1.987 -3.772,3.013 -4.18,6.754 -4.18,8.219 0,1.233 0.216,2.988 0.833,4.234 1.11,2.272 1.542,4.647 1.542,8.492 l 0,3.785 2.629,0 c -0.25,-0.814 -0.378,-1.75 -0.378,-2.783 0,-1.718 0.374,-3.718 0.916,-5.722 -0.159,-1.02 -0.356,-1.81 -0.53,-2.521 l -0.026,-0.115 c -0.129,-0.523 -0.344,-1.051 -0.572,-1.616 -0.432,-1.076 -0.919,-2.297 -0.919,-3.754 0,-2.618 1.645,-6.002 6.289,-6.907 2.582,-0.499 4.393,-1.124 7.141,-3.141 1.638,-1.203 2.524,-2.345 3.235,-3.262 0.25,-0.316 0.486,-0.62 0.722,-0.888 3.376,-3.735 7.857,-3.923 8.721,-3.923 0.862,0 5.342,0.188 8.719,3.923 0.238,0.268 0.473,0.572 0.722,0.888 0.711,0.917 1.597,2.059 3.237,3.262 2.747,2.017 4.559,2.642 7.14,3.141 4.643,0.905 6.294,4.289 6.294,6.907 0,1.457 -0.492,2.678 -0.928,3.754 -0.223,0.565 -0.439,1.093 -0.568,1.616 l -0.026,0.115 c -0.177,0.711 -0.37,1.501 -0.53,2.521 0.541,2.004 0.913,4.004 0.913,5.722 0,1.033 -0.129,1.969 -0.375,2.783 l 2.63,0 0,-3.785 c 0,-3.845 0.43,-6.22 1.543,-8.492 m -58.925,9.725 1.639,1.646 0,-2.879 c 0,-0.133 0,-0.273 -0.005,-0.401 l -1.634,1.634 z m 6.161,-10.685 c 0.234,0.583 0.476,1.178 0.623,1.786 l 0.032,0.115 c 0.018,0.085 0.041,0.164 0.059,0.255 1.48,-4.416 3.404,-8.292 3.536,-8.553 l 0.629,-1.257 c 0,0 1.277,3.067 1.573,3.772 0.776,-0.207 4.568,-1.191 4.568,-1.191 l -0.898,1.386 c -0.022,0.042 -2.447,3.802 -5.183,8.249 -0.821,1.337 -1.379,2.922 -1.625,4.392 0.652,-0.553 1.522,-0.875 2.544,-0.875 1.297,0 2.426,0.529 3.194,1.397 0.276,-6.585 1.751,-12.708 4.231,-17.434 2.822,-5.401 6.626,-8.377 10.71,-8.377 4.082,0 7.886,2.976 10.71,8.377 2.478,4.726 3.954,10.849 4.226,17.434 0.776,-0.868 1.904,-1.397 3.197,-1.397 1.023,0 1.889,0.322 2.544,0.875 -0.246,-1.47 -0.807,-3.055 -1.624,-4.392 -2.739,-4.447 -5.165,-8.207 -5.188,-8.249 l -0.893,-1.386 c 0,0 3.791,0.984 4.569,1.191 0.294,-0.705 1.573,-3.772 1.573,-3.772 l 0.629,1.257 c 0.127,0.261 2.054,4.137 3.533,8.553 0.02,-0.091 0.043,-0.17 0.063,-0.255 l 0.029,-0.115 c 0.147,-0.608 0.39,-1.203 0.624,-1.786 0.41,-1.014 0.829,-2.066 0.829,-3.274 0,-0.772 -0.254,-4.672 -5.248,-5.638 -2.707,-0.528 -4.731,-1.221 -7.657,-3.371 -1.787,-1.307 -2.774,-2.582 -3.492,-3.512 -0.246,-0.309 -0.459,-0.583 -0.659,-0.807 -3.012,-3.341 -6.997,-3.505 -7.765,-3.505 -0.769,0 -4.754,0.164 -7.767,3.505 -0.203,0.224 -0.416,0.498 -0.657,0.807 -0.723,0.93 -1.706,2.205 -3.493,3.512 -2.928,2.15 -4.95,2.843 -7.656,3.371 -4.995,0.966 -5.249,4.866 -5.249,5.638 0,1.208 0.421,2.26 0.829,3.274 m 0.754,13.237 c 0.044,0.121 0.094,0.237 0.147,0.346 0.049,0.11 0.099,0.206 0.151,0.298 0.681,1.214 1.915,2.107 4.079,2.107 2.54,0 3.72,-2.12 3.72,-3.553 0,-1.78 -1.26,-3.074 -2.993,-3.074 -1.514,0 -2.493,0.936 -2.493,2.369 0,0.237 0.056,0.516 0.17,0.79 0.03,0.067 0.06,0.146 0.098,0.206 0.049,0.092 0.11,0.177 0.174,0.261 0.265,0.341 0.666,0.596 1.242,0.596 0.771,0 1.21,-0.589 1.274,-1.063 0.004,-0.049 0.009,-0.085 0.009,-0.121 l 1.287,0 c 0,1.184 -1.035,2.465 -2.57,2.465 -1.136,0 -1.992,-0.595 -2.488,-1.415 l 0,0.006 c -0.003,-0.006 -0.003,-0.012 -0.006,-0.012 -0.091,-0.152 -0.172,-0.322 -0.24,-0.486 -0.295,-0.686 -0.434,-1.512 -0.434,-2.406 0,-2.21 0.817,-4.805 1.96,-6.663 1.744,-2.837 3.361,-5.389 4.313,-6.883 -0.949,0.249 -2.458,0.638 -2.458,0.638 0,0 -0.565,-1.349 -0.906,-2.169 -0.88,1.908 -2.508,5.65 -3.541,9.337 -0.562,1.999 -0.943,3.979 -0.943,5.643 0,0.918 0.109,1.908 0.448,2.783 m 0.429,6.5 c 0.046,0.65 0.365,2.114 2.402,1.98 l 0.247,-0.018 0.193,0.164 c 0.179,0.133 0.765,0.735 0.89,2.636 0.088,1.331 -0.336,2.849 -0.779,4.441 -0.53,1.901 -1.131,4.058 -0.989,6.299 0.167,2.479 1.083,4.514 2.654,5.893 1.585,1.391 3.825,2.065 6.3,1.907 1.419,-0.097 2.62,-0.662 3.471,-1.634 0.871,-0.99 1.318,-2.345 1.227,-3.711 -0.061,-0.936 -0.413,-1.695 -1.019,-2.224 -0.586,-0.516 -1.358,-0.759 -2.233,-0.698 -1.543,0.097 -2.478,1.111 -2.38,2.569 0.028,0.395 0.221,1.002 0.673,1.403 0.319,0.274 0.71,0.402 1.167,0.371 0.856,-0.055 1.266,-0.79 1.233,-1.294 l 1.288,-0.085 c 0.003,0.049 0.003,0.091 0.003,0.14 0,0.796 -0.442,1.615 -1.192,2.102 l 0.007,0.018 c -1.329,0.942 -3.505,0.966 -5.418,0.061 -2.449,-1.16 -3.967,-3.548 -4.165,-6.549 -0.188,-2.897 0.278,-4.969 0.689,-6.798 0.353,-1.561 0.655,-2.91 0.546,-4.55 -0.132,-2.028 -0.728,-4.422 -2.796,-4.282 -1.197,0.079 -2.082,0.899 -2.019,1.859 m 11.729,27.494 c -1.272,2.163 -3.527,5.99 -3.758,6.384 0.053,0.116 0.064,0.14 0.126,0.268 0.139,-0.013 0.162,-0.013 0.291,-0.013 0.176,-0.297 0.76,-1.275 0.76,-1.275 0,0 0.949,0.565 1.245,0.753 0.102,-0.054 0.117,-0.061 0.22,-0.127 -0.009,-0.14 -0.009,-0.164 -0.015,-0.292 -0.276,-0.182 -1.189,-0.765 -1.189,-0.765 l 1.786,-2.971 0.58,0.474 c 0.015,0.018 1.577,1.3 3.584,2.047 l 0.547,0.207 -1.069,3.984 c 0,0 -1.151,-0.315 -1.501,-0.413 -0.112,0.098 -0.138,0.122 -0.267,0.238 0.052,0.157 0.064,0.188 0.114,0.334 0.348,0.097 1.493,0.407 1.493,0.407 0,0 -0.313,1.148 -0.41,1.5 0.097,0.109 0.123,0.134 0.232,0.261 0.161,-0.048 0.194,-0.06 0.339,-0.109 0.094,-0.352 0.408,-1.494 0.408,-1.494 0,0 1.151,0.321 1.493,0.413 0.118,-0.104 0.146,-0.122 0.273,-0.231 -0.053,-0.164 -0.063,-0.195 -0.112,-0.34 -0.349,-0.091 -1.501,-0.407 -1.501,-0.407 l 1.08,-3.931 0.62,0.176 c 0.02,0 2.112,0.565 4.568,0.693 l 0.614,0.03 0,4.386 -1.699,0 c -0.133,0.194 -0.206,0.304 -0.357,0.528 0.151,0.219 0.224,0.335 0.357,0.529 l 1.699,0 0,1.713 c 0.188,0.134 0.299,0.219 0.53,0.377 0.229,-0.158 0.34,-0.243 0.528,-0.377 l 0,-1.713 1.7,0 C 2.963,51.107 3.036,50.991 3.183,50.772 3.036,50.548 2.963,50.438 2.831,50.244 l -1.7,0 0,-4.386 0.611,-0.03 C 4.202,45.7 6.295,45.135 6.313,45.135 l 0.621,-0.176 1.078,3.931 c 0,0 -1.151,0.316 -1.498,0.407 -0.051,0.145 -0.061,0.176 -0.115,0.34 0.13,0.109 0.157,0.127 0.269,0.231 0.35,-0.092 1.499,-0.413 1.499,-0.413 0,0 0.315,1.142 0.409,1.494 0.144,0.049 0.177,0.061 0.337,0.109 0.109,-0.127 0.132,-0.152 0.234,-0.261 -0.099,-0.352 -0.412,-1.5 -0.412,-1.5 0,0 1.147,-0.31 1.494,-0.407 0.049,-0.146 0.062,-0.177 0.111,-0.334 -0.126,-0.116 -0.152,-0.14 -0.265,-0.238 -0.348,0.098 -1.499,0.413 -1.499,0.413 L 7.505,44.747 8.053,44.54 c 2.007,-0.747 3.57,-2.029 3.585,-2.047 l 0.578,-0.474 0.386,0.638 1.397,2.333 c 0,0 -0.91,0.583 -1.185,0.765 -0.007,0.128 -0.007,0.152 -0.015,0.292 0.102,0.066 0.118,0.073 0.216,0.127 0.299,-0.188 1.245,-0.753 1.245,-0.753 0,0 0.587,0.978 0.764,1.275 0.126,0 0.152,0 0.289,0.013 0.063,-0.128 0.071,-0.152 0.127,-0.268 -0.231,-0.394 -2.486,-4.228 -3.757,-6.384 -1.395,2.089 -5.905,3.663 -11.08,3.663 -5.177,0 -9.685,-1.574 -11.081,-3.663 m 22.971,-4.192 c 2.475,0.158 4.715,-0.516 6.3,-1.907 1.571,-1.379 2.487,-3.414 2.649,-5.893 0.149,-2.241 -0.452,-4.398 -0.984,-6.299 -0.445,-1.592 -0.866,-3.11 -0.779,-4.441 0.125,-1.901 0.711,-2.503 0.89,-2.636 l 0.193,-0.164 0.249,0.018 c 2.036,0.134 2.355,-1.33 2.399,-1.98 0.061,-0.96 -0.821,-1.78 -2.016,-1.859 -2.07,-0.14 -2.664,2.254 -2.798,4.282 -0.109,1.64 0.193,2.989 0.547,4.55 0.41,1.829 0.876,3.901 0.688,6.798 -0.196,3.001 -1.715,5.389 -4.163,6.549 -1.915,0.905 -4.094,0.881 -5.42,-0.061 l 0.009,-0.018 c -0.75,-0.487 -1.192,-1.306 -1.192,-2.102 0,-0.049 0,-0.091 0.003,-0.14 l 1.288,0.085 c -0.035,0.504 0.373,1.239 1.231,1.294 0.455,0.031 0.848,-0.097 1.171,-0.371 0.45,-0.401 0.643,-1.008 0.67,-1.403 0.094,-1.458 -0.841,-2.472 -2.381,-2.569 C 10.173,27.537 9.4,27.78 8.814,28.296 8.21,28.825 7.856,29.584 7.797,30.52 c -0.091,1.366 0.355,2.721 1.225,3.711 0.853,0.972 2.052,1.537 3.471,1.634 m -1.18,-11.657 c -0.398,0.771 -0.822,1.482 -1.261,2.15 0.352,-0.054 0.712,-0.072 1.083,-0.048 2.146,0.146 3.587,1.628 3.587,3.657 0,0.097 -0.005,0.188 -0.012,0.285 -0.041,0.668 -0.31,1.331 -0.718,1.859 0.382,-0.085 0.756,-0.218 1.123,-0.395 1.185,-0.565 3.202,-2.017 3.428,-5.467 0.03,-0.437 0.045,-0.856 0.045,-1.251 0,-2.066 -0.359,-3.645 -0.703,-5.182 -0.306,-1.361 -0.598,-2.667 -0.598,-4.161 0,-0.243 0.009,-0.492 0.025,-0.748 0.18,-2.721 1,-4.112 1.913,-4.817 -1.646,-0.067 -2.937,-0.862 -3.761,-1.938 -0.409,6.057 -1.848,11.658 -4.151,16.056 m -17.666,-2.874 0,-3.432 c -0.367,0.365 -1.21,1.215 -1.21,1.215 0,0 -0.849,-0.844 -1.215,-1.215 l 0,5.036 2.425,-1.604 z M 0.364,11.202 c 1.984,0 7.387,-0.006 8.64,-0.006 l 3.675,-2.424 -12.315,0 c 0.368,0.371 1.206,1.215 1.206,1.215 0,0 -0.838,0.844 -1.206,1.215 m 13.295,1.415 c 0.173,-1.051 0.31,-2.126 0.413,-3.225 L -8.57,24.342 c 0.422,0.753 0.87,1.445 1.332,2.083 L 13.659,12.617 z M 0.603,31.291 c 3.579,0 6.978,-2.722 9.57,-7.672 1.396,-2.68 2.467,-5.814 3.167,-9.246 L -6.444,27.446 c 2.115,2.502 4.538,3.845 7.047,3.845 m -3.764,3.566 c 0.57,-1.057 0.603,-2.296 0.58,-2.898 -0.941,-0.376 -1.857,-0.911 -2.736,-1.616 0.004,0.031 0.009,0.061 0.009,0.092 0.112,1.701 -0.446,3.401 -1.54,4.647 -0.261,0.297 -0.542,0.559 -0.846,0.79 1.288,-0.468 2.863,-0.814 4.533,-1.015 M 2.896,34.705 C 2.584,33.849 2.501,32.986 2.491,32.366 c -0.622,0.14 -1.252,0.213 -1.888,0.213 -0.64,0 -1.269,-0.073 -1.893,-0.213 -0.007,0.62 -0.091,1.483 -0.4,2.339 0.759,-0.06 1.532,-0.085 2.293,-0.085 0.761,0 1.532,0.025 2.293,0.085 m -2.293,1.203 c -6.017,0 -9.936,1.701 -10.223,2.685 l 0,0.012 c -0.01,0.037 -0.015,0.067 -0.015,0.103 0,1.482 4.081,3.724 10.238,3.724 6.153,0 10.236,-2.242 10.236,-3.724 0,-0.959 -3.988,-2.8 -10.236,-2.8 M 6.51,30.435 c 0.004,-0.031 0.007,-0.061 0.007,-0.092 -0.875,0.705 -1.789,1.24 -2.733,1.616 -0.022,0.602 0.012,1.841 0.581,2.898 1.672,0.206 3.245,0.547 4.536,1.02 C 8.594,35.641 8.314,35.379 8.053,35.082 6.96,33.836 6.399,32.136 6.51,30.435 M -16.68,19.816 c -0.349,1.537 -0.701,3.116 -0.701,5.182 0,0.395 0.012,0.814 0.037,1.251 0.233,3.45 2.25,4.902 3.433,5.467 0.364,0.177 0.747,0.31 1.12,0.395 -0.403,-0.528 -0.672,-1.191 -0.715,-1.859 -0.007,-0.097 -0.012,-0.194 -0.012,-0.285 0,-2.029 1.438,-3.511 3.593,-3.657 0.366,-0.024 0.726,-0.006 1.078,0.048 -0.439,-0.668 -0.859,-1.379 -1.26,-2.15 -2.306,-4.398 -3.742,-9.999 -4.155,-16.056 -0.821,1.076 -2.111,1.871 -3.759,1.938 0.913,0.705 1.737,2.096 1.915,4.817 0.017,0.256 0.023,0.505 0.023,0.748 0,1.494 -0.29,2.8 -0.597,4.161 M 14.293,3.712 c -0.105,-6.901 -1.559,-13.358 -4.12,-18.249 -2.592,-4.957 -5.991,-7.684 -9.57,-7.684 -3.582,0 -6.978,2.727 -9.571,7.684 -2.557,4.891 -4.015,11.348 -4.122,18.249 l 27.383,0 z m -27.387,1.294 c 0.053,5.977 1.113,11.633 3.028,16.25 l 0,-6.458 c 0,0 1.979,1.974 2.498,2.497 0.518,-0.523 2.502,-2.515 2.502,-2.515 l 0,5.704 12.12,-8.001 -9.786,0 c 0,0 1.973,-1.974 2.486,-2.496 C -0.759,9.471 -2.732,7.49 -2.732,7.49 l 16.951,0 c 0.046,-0.826 0.072,-1.652 0.079,-2.484 l -27.392,0 z m 36.638,1.701 c 0.053,-0.092 0.102,-0.188 0.152,-0.298 0.052,-0.109 0.1,-0.225 0.147,-0.346 0.336,-0.875 0.445,-1.865 0.445,-2.783 0,-1.664 -0.386,-3.644 -0.941,-5.643 -1.033,-3.687 -2.661,-7.429 -3.539,-9.337 -0.345,0.82 -0.908,2.169 -0.908,2.169 0,0 -1.51,-0.389 -2.463,-0.638 0.957,1.494 2.569,4.046 4.313,6.883 1.146,1.858 1.963,4.453 1.963,6.663 0,0.894 -0.138,1.72 -0.439,2.406 -0.064,0.164 -0.142,0.334 -0.233,0.486 -0.003,0 -0.003,0.006 -0.008,0.012 l 0,-0.006 c -0.492,0.82 -1.347,1.415 -2.486,1.415 -1.537,0 -2.57,-1.281 -2.57,-2.465 l 1.287,0 c 0,0.036 0.004,0.072 0.012,0.121 0.063,0.474 0.502,1.063 1.271,1.063 0.576,0 0.976,-0.255 1.241,-0.596 0.065,-0.084 0.124,-0.169 0.174,-0.261 0.034,-0.06 0.067,-0.139 0.098,-0.206 0.115,-0.274 0.167,-0.553 0.167,-0.79 0,-1.433 -0.976,-2.369 -2.491,-2.369 -1.733,0 -2.993,1.294 -2.993,3.074 0,1.433 1.181,3.553 3.72,3.553 2.166,0 3.398,-0.893 4.081,-2.107 m 5.194,0.644 -4.078,0 c -0.56,0.996 -1.367,1.737 -2.392,2.199 1.434,0.388 2.433,1.549 2.433,2.915 0,0.061 -0.004,0.122 -0.009,0.182 -0.097,1.501 -1.051,3.184 -3.393,3.196 -0.113,0.225 -0.276,0.699 -0.334,1.567 -0.006,0.097 -0.01,0.194 -0.01,0.292 0,1.057 0.347,2.296 0.745,3.717 0.495,1.787 1.056,3.785 1.056,5.942 0,0.261 -0.011,0.522 -0.026,0.795 -0.185,2.819 -1.253,5.164 -3.084,6.768 -1.847,1.622 -4.421,2.405 -7.24,2.223 -0.507,-0.037 -0.987,-0.122 -1.446,-0.249 0.447,0.322 0.784,0.674 0.977,1.051 l 4.961,8.426 -0.786,1.658 -1.837,-0.085 c 0,0 -0.317,-0.529 -0.454,-0.76 -0.231,0.14 -0.783,0.475 -0.783,0.475 L 11.47,46.782 11.566,45.02 c 0,0 0.485,-0.31 0.689,-0.437 -0.163,-0.274 -0.216,-0.359 -0.391,-0.645 -0.593,0.426 -1.601,1.07 -2.816,1.592 0.137,0.511 0.284,1.057 0.436,1.616 0.287,-0.079 0.913,-0.249 0.913,-0.249 l 1.436,1.246 -0.596,1.803 c 0,0 -0.629,0.177 -0.921,0.25 0.084,0.297 0.254,0.923 0.254,0.923 L 9.326,52.553 7.521,51.951 c 0,0 -0.175,-0.619 -0.254,-0.911 -0.292,0.079 -0.913,0.249 -0.913,0.249 L 4.897,50.044 5.514,48.24 c 0,0 0.62,-0.177 0.913,-0.256 -0.141,-0.522 -0.258,-0.953 -0.398,-1.458 -0.742,0.17 -2.067,0.426 -3.61,0.547 l 0,1.884 1.101,0 1.21,1.815 -1.21,1.817 -1.101,0 0,1.088 -1.816,1.3 -1.816,-1.3 0,-1.088 -1.106,0 -1.211,-1.817 1.211,-1.815 1.106,0 0,-1.884 c -1.545,-0.121 -2.87,-0.377 -3.612,-0.547 -0.138,0.505 -0.257,0.936 -0.4,1.458 0.295,0.079 0.916,0.256 0.916,0.256 l 0.617,1.804 -1.458,1.245 c 0,0 -0.62,-0.17 -0.911,-0.249 -0.079,0.292 -0.255,0.911 -0.255,0.911 l -1.802,0.602 -1.246,-1.434 c 0,0 0.168,-0.626 0.247,-0.923 -0.29,-0.073 -0.916,-0.25 -0.916,-0.25 l -0.596,-1.803 1.433,-1.246 c 0,0 0.626,0.17 0.916,0.249 0.152,-0.559 0.299,-1.105 0.436,-1.616 -1.215,-0.522 -2.222,-1.166 -2.819,-1.592 -0.174,0.286 -0.223,0.371 -0.385,0.645 0.198,0.127 0.686,0.437 0.686,0.437 l 0.097,1.762 -1.572,0.881 c 0,0 -0.548,-0.335 -0.779,-0.475 -0.136,0.231 -0.454,0.76 -0.454,0.76 l -1.841,0.085 -0.782,-1.658 4.95,-8.402 c 0.193,-0.389 0.53,-0.747 0.987,-1.075 -0.46,0.127 -0.942,0.212 -1.445,0.249 -2.823,0.182 -5.392,-0.601 -7.239,-2.223 -1.831,-1.604 -2.899,-3.949 -3.084,-6.768 -0.016,-0.273 -0.028,-0.534 -0.028,-0.795 0,-2.157 0.557,-4.155 1.057,-5.942 0.396,-1.421 0.741,-2.66 0.741,-3.717 0,-0.098 0,-0.195 -0.007,-0.292 -0.056,-0.868 -0.22,-1.342 -0.333,-1.567 -2.343,-0.012 -3.296,-1.695 -3.394,-3.196 -0.008,-0.06 -0.008,-0.121 -0.008,-0.182 0,-1.366 1.002,-2.527 2.433,-2.915 -1.025,-0.462 -1.832,-1.203 -2.39,-2.199 l -4.086,0 -3.837,-3.84 3.403,-3.396 c -0.14,-2.417 -0.556,-4.131 -1.351,-5.759 -0.893,-1.816 -0.962,-4.136 -0.962,-4.804 0,-1.653 0.454,-5.857 4.66,-9.222 1.948,-1.555 3.591,-1.907 5.177,-2.242 1.101,-0.236 2.146,-0.461 3.356,-1.063 2.668,-1.336 3.599,-2.545 4.348,-3.517 l 0.143,-0.188 c 4.651,-5.996 10.79,-6.646 13.205,-6.646 2.415,0 8.551,0.65 13.203,6.646 l 0.145,0.188 c 0.744,0.972 1.676,2.181 4.346,3.517 1.212,0.602 2.254,0.827 3.358,1.063 1.585,0.335 3.228,0.687 5.177,2.242 4.204,3.365 4.658,7.569 4.658,9.222 0,0.668 -0.069,2.988 -0.962,4.804 -0.794,1.628 -1.21,3.342 -1.353,5.759 l 3.402,3.396 -3.839,3.84 z m -30.448,-21.469 -1.269,0 c 0,-1.379 -0.816,-2.551 -1.984,-3.092 0.302,-0.346 0.604,-0.668 0.916,-0.954 1.394,0.809 2.337,2.315 2.337,4.046 m -1.827,-4.489 c 0.026,-0.024 0.05,-0.048 0.076,-0.073 0.398,-0.31 0.787,-0.577 1.175,-0.796 1.481,0.79 2.491,2.345 2.491,4.137 l -1.268,0 c 0,-1.561 -1.048,-2.867 -2.474,-3.268 m -2.23,27.835 0,-1.051 -1.055,0 c 0,0 -0.47,-0.468 -0.746,-0.754 -0.276,0.286 -0.745,0.754 -0.745,0.754 l -1.051,0 0,1.051 c 0,0 -0.471,0.467 -0.752,0.747 0.281,0.273 0.752,0.747 0.752,0.747 l 0,1.057 1.051,0 c 0,0 0.469,0.468 0.745,0.741 0.276,-0.273 0.746,-0.741 0.746,-0.741 l 1.055,0 0,-1.057 c 0,0 0.47,-0.474 0.746,-0.747 -0.276,-0.28 -0.746,-0.747 -0.746,-0.747 m 1.291,3.839 -1.813,0 c -0.249,0.249 -1.274,1.276 -1.274,1.276 0,0 -1.035,-1.027 -1.28,-1.276 l -1.814,0 0,-1.81 c -0.249,-0.25 -1.277,-1.282 -1.277,-1.282 0,0 1.028,-1.027 1.277,-1.276 l 0,-1.81 1.814,0 c 0.245,-0.249 1.28,-1.276 1.28,-1.276 0,0 1.025,1.027 1.274,1.276 l 1.813,0 0,1.81 c 0.251,0.249 1.276,1.276 1.276,1.276 0,0 -1.025,1.032 -1.276,1.282 l 0,1.81 z m 5.528,13.869 -1.01,0 0,1.129 -0.745,0 0,-3.08 0.745,0 0,1.319 1.01,0 0,-1.319 0.746,0 0,3.08 -0.746,0 0,-1.129 z M 4.138,26.589 C 4.04,26.674 3.952,26.741 3.736,26.796 l -0.518,0.121 c -0.147,0.037 -0.193,0.067 -0.24,0.091 l -0.037,0.018 c -0.075,0.049 -0.11,0.098 -0.11,0.183 0,0.091 0.038,0.164 0.118,0.212 0.084,0.061 0.205,0.092 0.352,0.092 0.242,0 0.495,-0.14 0.628,-0.28 l 0.06,-0.061 0.341,0.59 -0.049,0.03 c -0.22,0.17 -0.56,0.364 -0.939,0.364 -0.393,0 -0.695,-0.096 -0.9,-0.279 -0.208,-0.189 -0.315,-0.425 -0.315,-0.711 0,-0.31 0.111,-0.546 0.33,-0.692 0.132,-0.091 0.258,-0.17 0.571,-0.237 L 3.346,26.17 C 3.485,26.14 3.532,26.109 3.588,26.067 L 3.637,26.036 C 3.701,26 3.736,25.939 3.736,25.866 c 0,-0.139 -0.073,-0.219 -0.22,-0.273 -0.087,-0.03 -0.199,-0.049 -0.341,-0.049 -0.267,0 -0.591,0.183 -0.68,0.292 L 2.438,25.903 2.102,25.319 2.146,25.283 c 0.215,-0.17 0.575,-0.37 1.052,-0.37 0.393,0 0.705,0.097 0.925,0.279 0.222,0.188 0.331,0.437 0.331,0.723 0,0.279 -0.094,0.498 -0.282,0.656 l -0.034,0.018 z m -6.207,-1.604 0.744,0 0,3.08 -0.744,0 0,-3.08 z m 2.247,3.287 0.747,0 0,1.288 0.645,0 0,0.644 -0.645,0 0,0.638 -0.747,0 0,-0.638 -0.646,0 0,-0.644 0.646,0 0,-1.288 z"
           inkscape:connector-curvature="0" />
      </g>
      <g
         transform="matrix(1.25,0,0,-1.25,97.223933,433.04696)"
         id="g3066">
        <path
           id="path3068"
           style="fill:#191919;fill-opacity:1;fill-rule:nonzero;stroke:none"
           d="M 0,0 1.265,-0.474 1.47,0.055 0.205,0.541 C 0.05,0.602 -0.019,0.656 -0.046,0.687 -0.12,0.76 -0.132,0.863 -0.079,1.002 -0.021,1.148 0.053,1.215 0.156,1.221 0.22,1.227 0.314,1.209 0.443,1.16 L 1.704,0.681 1.912,1.215 0.648,1.695 C 0.428,1.774 0.243,1.804 0.091,1.792 -0.188,1.744 -0.404,1.543 -0.541,1.179 -0.676,0.82 -0.655,0.529 -0.473,0.304 -0.374,0.188 -0.216,0.085 0,0 m -1.282,-6.251 c 0.087,0.019 0.322,0.067 0.404,0.085 0.024,-0.115 0.197,-0.996 0.197,-0.996 l 0.477,0.091 c 0,0 -0.17,0.887 -0.192,0.996 0.076,0.018 0.233,0.049 0.313,0.061 0.023,-0.109 0.212,-1.081 0.212,-1.081 l 0.484,0.091 -0.317,1.628 -0.061,-0.006 -2.115,-0.419 0.325,-1.677 0.496,0.097 c 0,0 -0.202,1.021 -0.223,1.13 m 8.841,-6.421 c 0.223,-0.067 0.4,-0.298 0.4,-0.298 l 0.318,0.347 c 0,0 -0.284,0.328 -0.584,0.419 -0.267,0.085 -0.498,0.042 -0.674,-0.061 -0.176,-0.097 -0.285,-0.249 -0.331,-0.443 -0.05,-0.225 -0.009,-0.413 0.125,-0.547 0.074,-0.085 0.155,-0.164 0.363,-0.261 l 0.208,-0.097 c 0.088,-0.037 0.114,-0.061 0.147,-0.097 l 0.028,-0.031 c 0.036,-0.03 0.049,-0.067 0.036,-0.115 -0.018,-0.085 -0.07,-0.134 -0.178,-0.146 -0.059,-0.006 -0.138,0 -0.234,0.018 -0.182,0.043 -0.484,0.346 -0.484,0.346 l -0.336,-0.37 c 0,0 0.397,-0.377 0.729,-0.444 0.277,-0.061 0.512,-0.042 0.693,0.055 0.19,0.097 0.306,0.249 0.352,0.456 0.043,0.2 0.008,0.376 -0.106,0.51 l -0.014,0.012 c -0.058,0.079 -0.108,0.14 -0.255,0.219 l -0.336,0.158 -0.147,0.097 -0.024,0.018 c -0.041,0.043 -0.053,0.079 -0.041,0.128 0.012,0.06 0.041,0.097 0.099,0.115 0.066,0.024 0.15,0.042 0.246,0.012 m -2.336,-0.304 c 0.057,0.092 0.209,0.316 0.319,0.487 0.01,-0.207 0.021,-0.474 0.025,-0.584 -0.094,0.031 -0.25,0.067 -0.344,0.097 m 0.238,1.288 -0.027,-0.036 -1.32,-1.908 0.575,-0.151 c 0,0 0.213,0.315 0.253,0.382 0.073,-0.018 0.572,-0.158 0.648,-0.182 0.005,-0.073 0.02,-0.456 0.02,-0.456 l 0.589,-0.157 -0.175,2.35 -0.563,0.158 z m -5.01,8.924 -2.199,0.328 -0.006,-0.067 -0.078,-0.492 2.199,-0.334 0.084,0.565 z m 0.213,0.632 c 0,0 -0.891,0.334 -1.205,0.449 0.348,0.061 1.461,0.244 1.461,0.244 l 0.193,0.522 -2.08,0.771 -0.023,-0.061 -0.167,-0.443 c 0,0 0.92,-0.334 1.234,-0.455 -0.349,-0.055 -1.495,-0.244 -1.495,-0.244 l -0.189,-0.51 2.084,-0.771 0.187,0.498 z M 0.53,-7.818 C 0.576,-7.903 0.728,-8.188 0.728,-8.188 0.765,-8.255 0.78,-8.31 0.78,-8.353 0.78,-8.419 0.735,-8.48 0.644,-8.529 0.53,-8.583 0.474,-8.553 0.44,-8.535 0.417,-8.517 0.379,-8.48 0.33,-8.389 c 0,0 -0.13,0.249 -0.189,0.365 0.074,0.036 0.315,0.164 0.389,0.206 M 0.337,-9.179 c 0.035,0.049 0.046,0.116 0.05,0.182 0.079,-0.048 0.158,-0.079 0.246,-0.079 0.116,0 0.226,0.031 0.325,0.079 0.079,0.037 0.145,0.092 0.193,0.152 l 0.117,0.189 c 0.03,0.079 0.045,0.152 0.045,0.23 0,0.013 0,0.031 -0.004,0.043 -10e-4,0.091 -0.041,0.206 -0.109,0.34 L 0.705,-7.101 0.644,-7.132 -1.262,-8.14 -1.005,-8.632 c 0,0 0.631,0.334 0.729,0.389 0.042,-0.085 0.167,-0.328 0.167,-0.328 0.045,-0.085 0.06,-0.134 0.06,-0.17 0,-0.012 -0.003,-0.019 -0.003,-0.03 C -0.06,-8.802 -0.12,-8.857 -0.227,-8.917 -0.331,-8.99 -0.688,-9.239 -0.688,-9.239 l 0.279,-0.517 c 0,0 0.114,0.134 0.182,0.189 0.069,0.048 0.156,0.097 0.156,0.097 l 0.124,0.06 c 0.144,0.073 0.236,0.152 0.284,0.231 m 1.41,-1.415 -0.005,0.024 c -0.005,0.103 -0.009,0.176 -0.091,0.322 l -0.181,0.322 -0.065,0.17 -0.008,0.025 c -0.01,0.054 0,0.09 0.038,0.133 0.041,0.036 0.091,0.049 0.148,0.036 0.068,-0.018 0.144,-0.06 0.208,-0.139 0.139,-0.189 0.159,-0.468 0.159,-0.468 l 0.457,0.109 c 0,0 -0.046,0.419 -0.239,0.668 C 1.994,-9.167 1.78,-9.069 1.583,-9.057 1.377,-9.033 1.2,-9.094 1.052,-9.239 0.885,-9.392 0.815,-9.562 0.844,-9.75 0.859,-9.865 0.879,-9.975 0.995,-10.169 l 0.118,-0.194 c 0.049,-0.085 0.053,-0.122 0.061,-0.17 l 0.008,-0.043 c 0.007,-0.049 -0.005,-0.085 -0.038,-0.115 -0.066,-0.061 -0.136,-0.067 -0.231,-0.013 -0.054,0.025 -0.114,0.073 -0.178,0.152 -0.125,0.134 -0.2,0.547 -0.2,0.547 l -0.488,-0.103 c 0,0 0.109,-0.535 0.345,-0.79 0.188,-0.206 0.392,-0.322 0.597,-0.346 0.211,-0.025 0.393,0.03 0.548,0.176 0.151,0.133 0.223,0.297 0.21,0.474 m 2.983,-1.434 0.251,0.42 -1.57,0.922 -0.031,-0.048 -0.22,-0.37 c 0,0 0.454,-0.268 0.541,-0.322 -0.059,-0.104 -0.873,-1.489 -0.873,-1.489 L 3.312,-13.2 c 0,0 0.817,1.385 0.878,1.488 0.086,-0.055 0.54,-0.316 0.54,-0.316 m -1.905,1.877 -0.04,-0.055 -1.342,-1.688 0.442,-0.353 1.382,1.744 -0.442,0.352 z m -2.544,5.388 c 0,0 -1.083,0.323 -1.405,0.42 0.322,0.085 1.428,0.388 1.428,0.388 l 0.048,0.62 -2.269,-0.741 -0.004,-0.504 2.214,-0.778 -0.012,0.595 z"
           inkscape:connector-curvature="0" />
      </g>
      <g
         transform="matrix(1.25,0,0,-1.25,143.34643,458.19584)"
         id="g3070">
        <path
           id="path3072"
           style="fill:#191919;fill-opacity:1;fill-rule:nonzero;stroke:none"
           d="m 0,0 -0.027,0 c -0.095,0 -0.174,0 -0.321,-0.079 l -0.34,-0.164 -0.163,-0.055 -0.034,0 c -0.053,-0.013 -0.092,0 -0.127,0.049 -0.031,0.042 -0.045,0.085 -0.026,0.145 0.02,0.067 0.064,0.14 0.148,0.195 0.19,0.134 0.477,0.134 0.477,0.134 l -0.075,0.467 c 0,0 -0.432,-0.018 -0.689,-0.2 -0.231,-0.164 -0.345,-0.371 -0.372,-0.571 -0.034,-0.194 0.02,-0.377 0.149,-0.534 0.144,-0.177 0.314,-0.262 0.504,-0.243 0.115,0.011 0.222,0.03 0.424,0.127 l 0.208,0.103 c 0.086,0.049 0.121,0.049 0.17,0.055 l 0.041,0.006 c 0.05,0 0.083,-0.006 0.114,-0.042 C 0.118,-0.681 0.118,-0.754 0.064,-0.845 0.03,-0.894 -0.023,-0.948 -0.099,-1.009 -0.242,-1.13 -0.667,-1.173 -0.667,-1.173 l 0.081,-0.504 c 0,0 0.541,0.085 0.805,0.304 0.22,0.176 0.349,0.37 0.387,0.577 0.033,0.212 -0.012,0.395 -0.145,0.559 C 0.333,-0.079 0.173,0 0,0 m -2.199,-1.871 -0.026,0.006 c -0.091,0.018 -0.171,0.024 -0.33,-0.019 l -0.36,-0.102 -0.174,-0.032 -0.031,0.007 c -0.054,-0.007 -0.089,0.018 -0.116,0.067 -0.026,0.048 -0.031,0.097 0,0.152 0.031,0.061 0.088,0.127 0.179,0.17 0.211,0.091 0.492,0.042 0.492,0.042 l 0.003,0.475 c 0,0 -0.428,0.047 -0.711,-0.08 -0.255,-0.122 -0.402,-0.303 -0.461,-0.492 -0.066,-0.194 -0.051,-0.383 0.053,-0.558 0.112,-0.195 0.264,-0.311 0.457,-0.328 0.117,-0.007 0.219,-0.007 0.439,0.054 l 0.22,0.072 c 0.089,0.031 0.13,0.031 0.178,0.019 l 0.041,0 c 0.048,0 0.083,-0.019 0.101,-0.061 0.046,-0.084 0.04,-0.146 -0.033,-0.224 -0.038,-0.049 -0.103,-0.098 -0.185,-0.147 -0.164,-0.09 -0.591,-0.066 -0.591,-0.066 l -0.008,-0.498 c 0,0 0.548,-0.019 0.845,0.151 0.249,0.147 0.408,0.31 0.48,0.505 0.072,0.195 0.056,0.395 -0.045,0.576 -0.103,0.183 -0.244,0.281 -0.417,0.311 m -16.007,1.02 0.477,0.116 c 0,0 -0.057,0.486 -0.421,0.759 -0.22,0.164 -0.462,0.231 -0.714,0.195 -0.288,-0.043 -0.554,-0.219 -0.785,-0.517 -0.212,-0.279 -0.309,-0.558 -0.291,-0.832 0.02,-0.273 0.141,-0.498 0.405,-0.699 0.425,-0.316 0.878,-0.176 0.878,-0.176 l -0.14,0.474 c -0.14,-0.049 -0.291,0.006 -0.436,0.109 -0.101,0.073 -0.15,0.176 -0.155,0.304 -0.003,0.139 0.061,0.292 0.195,0.462 0.132,0.176 0.267,0.291 0.404,0.334 0.129,0.043 0.241,0.024 0.351,-0.061 0.189,-0.139 0.205,-0.298 0.232,-0.468 m 1.411,-1.524 c -0.11,-0.195 -0.237,-0.316 -0.374,-0.365 -0.133,-0.055 -0.266,-0.049 -0.398,0.03 -0.133,0.085 -0.208,0.189 -0.23,0.335 -0.023,0.14 0.018,0.315 0.127,0.504 0.115,0.188 0.24,0.315 0.378,0.37 0.134,0.055 0.266,0.037 0.403,-0.036 0.132,-0.073 0.203,-0.183 0.226,-0.328 0.024,-0.153 -0.023,-0.317 -0.132,-0.51 m 0.694,0.4 c 0,0.091 -0.015,0.189 -0.047,0.28 -0.057,0.231 -0.224,0.431 -0.5,0.59 -0.272,0.151 -0.53,0.206 -0.764,0.132 -0.29,-0.066 -0.541,-0.273 -0.741,-0.619 -0.197,-0.34 -0.25,-0.656 -0.162,-0.954 0.059,-0.236 0.226,-0.431 0.498,-0.589 0.273,-0.158 0.53,-0.207 0.76,-0.139 l 0.005,0 c 0.298,0.073 0.549,0.285 0.741,0.619 0.14,0.237 0.21,0.467 0.21,0.68 m 1.282,-0.954 c -0.041,-0.121 -0.102,-0.139 -0.145,-0.145 -0.03,0 -0.086,0 -0.181,0.037 0,0 -0.261,0.097 -0.382,0.139 0.03,0.079 0.121,0.328 0.15,0.414 0.093,-0.032 0.395,-0.141 0.395,-0.141 0.091,-0.036 0.132,-0.066 0.15,-0.085 0.025,-0.03 0.036,-0.061 0.036,-0.109 0,-0.031 -0.005,-0.067 -0.023,-0.11 m 0.555,-0.133 c 0.031,0.085 0.043,0.17 0.043,0.243 l -0.046,0.225 c -0.027,0.073 -0.065,0.133 -0.113,0.195 -0.013,0.005 -0.028,0.024 -0.038,0.03 -0.064,0.06 -0.167,0.121 -0.31,0.17 l -1,0.364 -0.022,-0.061 -0.731,-2.035 0.523,-0.188 c 0,0 0.241,0.675 0.276,0.777 0.09,-0.03 0.345,-0.121 0.345,-0.121 0.089,-0.036 0.136,-0.066 0.158,-0.091 0.007,-0.007 0.012,-0.018 0.015,-0.024 0.012,-0.03 0.007,-0.11 -0.026,-0.225 -0.035,-0.122 -0.129,-0.541 -0.129,-0.541 l 0.56,-0.2 c 0,0 -0.012,0.176 0.004,0.255 0.019,0.091 0.052,0.183 0.052,0.183 l 0.051,0.133 c 0.053,0.146 0.071,0.261 0.056,0.358 -0.012,0.054 -0.049,0.116 -0.087,0.171 0.087,0.011 0.166,0.042 0.231,0.102 0.087,0.086 0.152,0.177 0.188,0.28 m 5.843,-1.792 c -0.041,-0.024 -0.102,-0.037 -0.181,-0.042 0,0 -0.348,-0.031 -0.446,-0.043 -0.008,0.085 -0.031,0.352 -0.038,0.437 0.098,0.013 0.454,0.043 0.454,0.043 0.079,0.006 0.141,0 0.185,-0.019 0.069,-0.018 0.103,-0.073 0.11,-0.157 l 0,-0.037 c 0,-0.115 -0.045,-0.158 -0.084,-0.182 m -0.738,1.166 c 0.096,0.006 0.391,0.031 0.391,0.031 0.09,0.006 0.166,0.006 0.224,-0.006 0.029,-0.019 0.074,-0.043 0.079,-0.134 0.003,-0.012 0.003,-0.018 0.003,-0.03 0,-0.073 -0.034,-0.098 -0.044,-0.11 -0.043,-0.03 -0.103,-0.048 -0.182,-0.054 0,0 -0.309,-0.03 -0.439,-0.043 -0.008,0.079 -0.023,0.262 -0.032,0.346 m 1.265,-0.601 c -0.049,0.073 -0.114,0.109 -0.189,0.145 0.026,0.031 0.064,0.055 0.084,0.08 0.052,0.079 0.083,0.182 0.083,0.292 0,0.024 -0.004,0.047 -0.004,0.066 -0.012,0.14 -0.058,0.255 -0.141,0.347 l 0,0.005 c -0.132,0.146 -0.336,0.213 -0.608,0.195 l -1.072,-0.097 0.193,-2.212 1.004,0.085 0.3,0.061 c 0.099,0.024 0.183,0.079 0.256,0.134 0.056,0.054 0.104,0.122 0.142,0.201 0.051,0.091 0.078,0.194 0.078,0.309 0,0.019 -0.005,0.036 -0.005,0.061 -0.012,0.134 -0.053,0.243 -0.121,0.328 m -4.913,0.347 c -0.029,-0.159 -0.079,-0.268 -0.138,-0.366 -0.108,-0.157 -0.243,-0.218 -0.418,-0.181 0,0 -0.241,0.048 -0.329,0.066 0.022,0.11 0.239,1.118 0.261,1.228 0.088,-0.025 0.329,-0.068 0.329,-0.068 0.17,-0.042 0.269,-0.109 0.304,-0.212 0.018,-0.054 0.026,-0.122 0.026,-0.188 0,-0.085 -0.011,-0.183 -0.035,-0.279 m 0.202,1.02 c -0.083,0.042 -0.19,0.078 -0.322,0.109 l -0.946,0.207 -0.012,-0.061 -0.45,-2.114 0.941,-0.2 c 0.335,-0.068 0.611,0.011 0.831,0.254 0.154,0.176 0.263,0.402 0.325,0.693 0.022,0.109 0.032,0.231 0.032,0.352 0,0.14 -0.028,0.268 -0.079,0.389 -0.068,0.158 -0.173,0.286 -0.32,0.371 m 1.885,-1.641 c -0.011,-0.139 -0.035,-0.236 -0.073,-0.291 -0.049,-0.091 -0.148,-0.127 -0.295,-0.116 -0.15,0.019 -0.239,0.074 -0.272,0.171 -0.019,0.042 -0.039,0.127 -0.019,0.285 l 0.116,1.349 -0.57,0.049 -0.005,-0.055 -0.113,-1.288 c -0.024,-0.23 0,-0.419 0.059,-0.559 0.122,-0.261 0.376,-0.413 0.763,-0.443 0.381,-0.031 0.658,0.072 0.817,0.303 0.086,0.134 0.14,0.31 0.163,0.541 l 0.116,1.343 -0.571,0.054 -0.116,-1.343 z m 6.463,2.698 -0.433,-0.183 c 0,0 0.368,-0.874 0.497,-1.184 -0.28,0.212 -1.173,0.905 -1.173,0.905 l -0.519,-0.219 0.86,-2.047 0.492,0.2 c 0,0 -0.379,0.912 -0.508,1.222 0.281,-0.219 1.203,-0.93 1.203,-0.93 l 0.497,0.206 -0.857,2.054 -0.059,-0.024 z M -6.783,-4.58 c -0.018,0.084 -0.07,0.321 -0.089,0.4 0.109,0.031 0.987,0.225 0.987,0.225 l -0.105,0.48 c 0,0 -0.882,-0.201 -0.993,-0.225 -0.015,0.073 -0.052,0.231 -0.071,0.31 0.109,0.031 1.079,0.249 1.079,0.249 l -0.109,0.48 -0.065,-0.012 -1.552,-0.358 0.492,-2.163 1.669,0.382 -0.114,0.499 c 0,0 -1.014,-0.238 -1.129,-0.267 m 4.766,4.197 -0.408,-0.285 1.274,-1.816 0.463,0.315 -1.276,1.828 -0.053,-0.042 z"
           inkscape:connector-curvature="0" />
      </g>
      <g
         transform="matrix(1.25,0,0,-1.25,163.43056,446.28971)"
         id="g3074">
        <path
           id="path3076"
           style="fill:#191919;fill-opacity:1;fill-rule:nonzero;stroke:none"
           d="m 0,0 c 0.031,-0.146 -0.044,-0.292 -0.158,-0.419 -0.091,-0.091 -0.197,-0.134 -0.325,-0.122 -0.137,0.013 -0.284,0.098 -0.44,0.255 -0.155,0.152 -0.249,0.298 -0.277,0.438 -0.025,0.134 0.01,0.243 0.104,0.34 0.162,0.17 0.32,0.17 0.487,0.176 l -0.048,0.486 c 0,0 -0.492,0 -0.807,-0.328 -0.193,-0.194 -0.287,-0.431 -0.279,-0.686 0.003,-0.286 0.147,-0.571 0.419,-0.832 0.254,-0.249 0.519,-0.383 0.788,-0.395 0.277,-0.018 0.514,0.079 0.744,0.316 0.365,0.376 0.284,0.85 0.284,0.85 L 0,0 z m -2.164,0 -0.056,-0.03 -0.439,-0.256 0.685,-1.166 c 0.064,-0.115 0.101,-0.206 0.105,-0.273 0.01,-0.104 -0.045,-0.189 -0.173,-0.261 -0.132,-0.079 -0.236,-0.085 -0.319,-0.031 -0.056,0.037 -0.12,0.109 -0.184,0.231 l -0.682,1.166 -0.495,-0.285 0.68,-1.166 c 0.117,-0.207 0.242,-0.346 0.375,-0.426 0.247,-0.139 0.541,-0.109 0.875,0.08 0.328,0.194 0.495,0.437 0.492,0.722 -0.004,0.152 -0.067,0.334 -0.182,0.535 L -2.164,0 z m -1.804,-0.984 -0.062,-0.012 -1.668,-0.553 0.155,-0.468 c 0,0 0.5,0.158 0.597,0.195 0.039,-0.116 0.542,-1.64 0.542,-1.64 l 0.534,0.17 c 0,0 -0.504,1.53 -0.542,1.646 0.099,0.03 0.599,0.194 0.599,0.194 l -0.155,0.468 z M 1.299,2.266 0.149,2.977 0.114,2.922 -0.155,2.491 1,1.78 C 1.113,1.713 1.188,1.646 1.22,1.591 1.28,1.506 1.27,1.403 1.188,1.276 1.113,1.142 1.025,1.093 0.925,1.105 0.875,1.105 0.793,1.13 0.652,1.221 L -0.5,1.926 -0.802,1.44 0.35,0.729 C 0.548,0.607 0.728,0.541 0.878,0.541 1.162,0.522 1.413,0.692 1.613,1.015 1.813,1.342 1.847,1.634 1.71,1.889 1.636,2.017 1.496,2.145 1.299,2.266 m 0.784,4.082 0,-0.358 C 1.98,6.026 1.722,6.111 1.531,6.172 1.722,6.233 1.98,6.312 2.083,6.348 M 0.779,5.886 3.002,5.097 l 0,0.589 c 0,0 -0.364,0.122 -0.435,0.146 l 0,0.674 c 0.071,0.018 0.435,0.14 0.435,0.14 l 0,0.607 -0.083,-0.03 -2.14,-0.753 0,-0.584 z m -0.457,4.119 c -0.01,0.024 -0.015,0.037 -0.026,0.067 0.099,0.036 0.67,0.249 0.764,0.285 0.027,-0.079 0.088,-0.236 0.122,-0.334 -0.137,0 -0.784,-0.012 -0.86,-0.018 m 0.936,1.021 C 1.177,10.996 0.951,10.91 0.872,10.88 0.83,10.983 0.533,11.791 0.533,11.791 l -0.452,-0.17 c 0,0 0.294,-0.802 0.332,-0.911 C 0.337,10.691 0.179,10.631 0.108,10.594 0.07,10.71 -0.264,11.609 -0.264,11.609 L -0.723,11.439 0,9.483 2.351,9.489 2.146,10.047 c 0,0 -0.389,-0.005 -0.466,-0.018 -0.021,0.073 -0.143,0.395 -0.176,0.486 0.091,0.031 0.416,0.152 0.416,0.152 L 1.344,12.229 1.287,12.204 0.882,12.052 c 0,0 0.338,-0.923 0.376,-1.026 M 0.439,8.292 c 0,0 0.931,0.194 1.256,0.261 C 1.434,8.322 0.588,7.569 0.588,7.569 L 0.705,7.022 2.881,7.478 2.772,8 C 2.772,8 1.813,7.8 1.484,7.727 1.745,7.964 2.615,8.742 2.615,8.742 L 2.506,9.264 2.442,9.252 0.33,8.814 0.439,8.292 z M 0.875,5.236 0.667,4.599 c 0,0 0.928,-0.553 1.259,-0.754 C 1.542,3.882 0.47,3.973 0.47,3.973 L 0.239,3.256 2.354,2.582 2.521,3.092 c 0,0 -0.852,0.274 -1.177,0.37 C 1.877,3.414 2.605,3.347 2.605,3.347 l 0.158,0.498 c 0,0 -0.631,0.377 -1.094,0.644 C 2.06,4.368 2.851,4.113 2.851,4.113 L 3.013,4.623 0.893,5.297 0.875,5.236 z"
           inkscape:connector-curvature="0" />
      </g>
      <g
         transform="matrix(1.25,0,0,-1.25,124.90218,396.44659)"
         id="g3078">
        <path
           id="path3080"
           style="fill:#191919;fill-opacity:1;fill-rule:nonzero;stroke:none"
           d="m 0,0 c 0.03,-0.012 0.197,-0.127 0.197,-0.127 0.049,-0.031 0.076,-0.073 0.091,-0.11 0.005,-0.012 0.005,-0.018 0.005,-0.03 0,-0.031 -0.014,-0.067 -0.043,-0.104 -0.035,-0.054 -0.073,-0.085 -0.114,-0.09 -0.041,-0.013 -0.088,0.005 -0.139,0.036 0,0 -0.163,0.109 -0.195,0.127 C -0.173,-0.267 -0.021,-0.03 0,0 m -0.622,-0.929 c 0,0 0.247,0.37 0.271,0.401 0.029,-0.019 0.216,-0.14 0.216,-0.14 0.129,-0.091 0.246,-0.122 0.355,-0.109 0.109,0.006 0.211,0.085 0.302,0.224 0.087,0.128 0.114,0.249 0.083,0.353 C 0.575,-0.091 0.504,0 0.387,0.085 l -0.503,0.328 -0.016,-0.018 -0.761,-1.154 0.271,-0.17 z m 1.39,-0.079 c 0.084,0.121 0.17,0.2 0.264,0.231 0.099,0.03 0.19,0.012 0.277,-0.043 C 1.397,-0.881 1.445,-0.954 1.455,-1.063 1.465,-1.16 1.427,-1.27 1.347,-1.391 1.263,-1.513 1.177,-1.591 1.078,-1.622 0.984,-1.658 0.893,-1.646 0.806,-1.585 c -0.089,0.066 -0.137,0.139 -0.147,0.236 -0.008,0.104 0.027,0.213 0.109,0.341 m -0.412,-0.42 c 0.031,-0.145 0.128,-0.285 0.292,-0.388 0.166,-0.116 0.328,-0.152 0.477,-0.116 0.188,0.031 0.355,0.152 0.492,0.359 0.105,0.158 0.158,0.309 0.158,0.462 0,0.042 -0.007,0.09 -0.02,0.133 -0.026,0.152 -0.124,0.28 -0.29,0.395 C 1.298,-0.474 1.139,-0.438 0.988,-0.474 0.802,-0.498 0.636,-0.62 0.497,-0.832 0.36,-1.039 0.314,-1.239 0.356,-1.428 M -1.426,0.936 C -1.454,0.899 -2.044,0.006 -2.044,0.006 l 0.276,-0.182 c 0,0 0.591,0.893 0.614,0.935 0.034,-0.024 0.34,-0.231 0.34,-0.231 L -0.655,0.771 -1.611,1.397 -1.622,1.385 -1.768,1.167 c 0,0 0.308,-0.207 0.342,-0.231 M 2.271,-1.5 C 2.328,-1.537 2.505,-1.658 2.505,-1.658 2.566,-1.695 2.587,-1.725 2.597,-1.743 2.607,-1.762 2.612,-1.792 2.603,-1.822 2.6,-1.847 2.584,-1.871 2.566,-1.901 2.518,-1.974 2.471,-1.974 2.44,-1.974 c -0.021,0.006 -0.059,0.012 -0.12,0.06 0,0 -0.154,0.098 -0.231,0.146 0.037,0.055 0.143,0.213 0.182,0.268 M 1.643,-2.436 c 0,0 0.256,0.383 0.295,0.444 C 1.986,-2.023 2.166,-2.138 2.166,-2.138 2.214,-2.175 2.237,-2.205 2.248,-2.217 2.252,-2.223 2.256,-2.235 2.256,-2.241 2.26,-2.254 2.237,-2.314 2.199,-2.387 2.161,-2.454 2.041,-2.697 2.041,-2.697 l 0.294,-0.195 c 0,0 0.02,0.104 0.041,0.159 0.023,0.048 0.102,0.182 0.102,0.182 0.055,0.085 0.072,0.152 0.081,0.206 0,0.043 -0.02,0.091 -0.035,0.128 0.058,-0.006 0.133,-0.006 0.182,0.024 0.064,0.03 0.117,0.079 0.155,0.134 0.129,0.188 0.05,0.376 0.03,0.425 -0.007,0.006 -0.012,0.012 -0.018,0.018 -0.03,0.055 -0.106,0.11 -0.186,0.17 L 2.146,-1.093 1.371,-2.254 1.643,-2.436 z m -4.902,3.487 c -0.011,-0.182 0.088,-0.34 0.288,-0.468 0.204,-0.14 0.386,-0.17 0.545,-0.085 0.082,0.043 0.166,0.128 0.249,0.249 L -1.706,1.458 -1.982,1.652 -2.456,0.936 C -2.506,0.863 -2.547,0.808 -2.59,0.784 -2.653,0.747 -2.725,0.759 -2.816,0.814 -2.902,0.875 -2.94,0.936 -2.93,1.015 c 0.005,0.042 0.035,0.103 0.084,0.176 L -2.373,1.908 -2.653,2.09 -2.664,2.071 -3.123,1.379 C -3.205,1.258 -3.25,1.142 -3.259,1.051 m 11.766,-8.025 0.52,0.79 C 8.928,-6.451 8.682,-7.089 8.682,-7.089 l 0.261,-0.176 c 0,0 0.498,0.473 0.703,0.668 l -0.522,-0.79 0.253,-0.164 0.777,1.173 -0.376,0.243 c 0,0 -0.613,-0.59 -0.733,-0.699 0.056,0.152 0.355,0.948 0.355,0.948 l -0.378,0.249 -0.01,-0.018 -0.763,-1.149 0.258,-0.17 z m 2.35,-1.555 c 0,0 0.42,0.632 0.499,0.747 C 11.346,-7.928 11.29,-8.82 11.29,-8.82 l 0.264,-0.17 0.776,1.166 -0.257,0.164 c 0,0 -0.41,-0.613 -0.489,-0.735 0.011,0.152 0.067,1.02 0.067,1.02 l -0.276,0.177 -0.014,-0.019 -0.761,-1.148 0.257,-0.164 z m -0.401,0.267 0.159,0.238 c 0,0 -0.586,0.388 -0.619,0.413 0.017,0.03 0.143,0.218 0.162,0.249 0.037,-0.025 0.549,-0.365 0.549,-0.365 l 0.154,0.231 c 0,0 -0.51,0.346 -0.549,0.364 0.02,0.03 0.118,0.176 0.136,0.207 0.035,-0.024 0.595,-0.395 0.595,-0.395 l 0.159,0.231 -0.866,0.577 -0.012,-0.018 -0.761,-1.142 0.893,-0.59 z m -6.096,4.028 0.158,0.243 c 0,0 -0.586,0.389 -0.624,0.413 0.02,0.031 0.147,0.225 0.167,0.255 0.038,-0.024 0.549,-0.365 0.549,-0.365 l 0.154,0.238 c 0,0 -0.514,0.334 -0.548,0.358 0.019,0.03 0.114,0.17 0.133,0.2 0.037,-0.024 0.597,-0.394 0.597,-0.394 L 5.104,-3.043 4.238,-2.472 4.228,-2.491 3.467,-3.645 4.36,-4.234 z m -1.613,1.069 0.278,-0.182 c 0,0 0.589,0.893 0.612,0.935 0.033,-0.024 0.34,-0.231 0.34,-0.231 l 0.16,0.244 -0.954,0.626 -0.015,-0.019 -0.143,-0.212 c 0,0 0.305,-0.207 0.34,-0.231 -0.024,-0.037 -0.618,-0.93 -0.618,-0.93 m 3.406,-2.253 c 0,0 0.421,0.631 0.495,0.753 C 6.643,-4.817 6.585,-5.71 6.585,-5.71 l 0.266,-0.17 0.771,1.172 -0.254,0.164 c 0,0 -0.408,-0.62 -0.489,-0.735 0.01,0.146 0.066,1.014 0.066,1.014 L 6.673,-4.082 6.658,-4.101 5.896,-5.249 6.153,-5.418 z M 7.918,-5.34 C 8.012,-5.309 8.102,-5.321 8.193,-5.376 8.28,-5.437 8.328,-5.51 8.337,-5.613 8.348,-5.716 8.312,-5.832 8.228,-5.947 8.145,-6.068 8.056,-6.147 7.962,-6.184 7.863,-6.214 7.777,-6.202 7.689,-6.135 c -0.09,0.06 -0.138,0.133 -0.147,0.231 -0.011,0.103 0.027,0.218 0.106,0.34 0.083,0.121 0.174,0.2 0.27,0.224 M 7.379,-5.388 c -0.14,-0.207 -0.184,-0.407 -0.14,-0.59 0.026,-0.151 0.125,-0.291 0.292,-0.394 0.167,-0.109 0.325,-0.152 0.472,-0.116 0.195,0.03 0.357,0.152 0.497,0.359 0.106,0.164 0.155,0.316 0.155,0.462 0,0.042 -0.003,0.084 -0.015,0.133 C 8.614,-5.382 8.51,-5.249 8.348,-5.139 8.181,-5.036 8.023,-4.987 7.871,-5.023 7.688,-5.048 7.521,-5.176 7.379,-5.388 M 5.365,-3.56 C 5.344,-3.596 4.753,-4.489 4.753,-4.489 l 0.272,-0.182 c 0,0 0.591,0.893 0.618,0.929 0.034,-0.018 0.34,-0.225 0.34,-0.225 L 6.141,-3.729 5.185,-3.098 5.172,-3.122 5.025,-3.341 c 0,0 0.308,-0.194 0.34,-0.219 m 7.059,-6.007 0.522,0.783 c -0.098,-0.267 -0.344,-0.905 -0.344,-0.905 l 0.261,-0.176 c 0,0 0.495,0.48 0.703,0.674 -0.003,0 -0.522,-0.784 -0.522,-0.784 l 0.255,-0.176 0.771,1.172 -0.372,0.244 c 0,0 -0.615,-0.583 -0.733,-0.699 0.057,0.158 0.352,0.954 0.352,0.954 l -0.374,0.249 -0.012,-0.019 -0.761,-1.153 0.254,-0.164 z m 1.953,-1.294 0.163,0.242 c 0,0 -0.591,0.39 -0.624,0.408 0.018,0.03 0.142,0.224 0.165,0.254 0.035,-0.03 0.547,-0.358 0.547,-0.358 l 0.153,0.231 c 0,0 -0.51,0.334 -0.548,0.364 0.019,0.025 0.114,0.171 0.137,0.201 0.033,-0.024 0.598,-0.395 0.598,-0.395 l 0.153,0.231 -0.865,0.577 -0.011,-0.012 -0.761,-1.154 0.893,-0.589 z m 1.533,-1.015 0.522,0.79 c -0.102,-0.268 -0.345,-0.912 -0.345,-0.912 l 0.262,-0.164 c 0,0 0.494,0.468 0.699,0.662 l -0.521,-0.783 0.257,-0.17 0.772,1.166 -0.371,0.243 c 0,0 -0.617,-0.583 -0.735,-0.692 0.058,0.152 0.353,0.953 0.353,0.953 l -0.374,0.25 -0.017,-0.025 -0.759,-1.148 0.257,-0.17 z m -1.219,1.045 c -0.015,-0.176 0.084,-0.334 0.288,-0.468 0.2,-0.134 0.382,-0.164 0.54,-0.079 0.084,0.037 0.167,0.128 0.251,0.249 l 0.472,0.711 -0.279,0.189 -0.47,-0.717 c -0.048,-0.074 -0.096,-0.122 -0.137,-0.14 -0.059,-0.049 -0.136,-0.031 -0.221,0.018 -0.093,0.061 -0.131,0.128 -0.114,0.207 0.003,0.036 0.03,0.097 0.079,0.175 l 0.472,0.711 -0.275,0.189 -0.015,-0.025 -0.458,-0.692 c -0.079,-0.122 -0.126,-0.231 -0.133,-0.328"
           inkscape:connector-curvature="0" />
      </g>
    </g>
  </g>
</svg>
