<?xml version="1.0" encoding="UTF-8" standalone="no"?>
<!-- Created with Inkscape (http://www.inkscape.org/) -->

<svg
   xmlns:dc="http://purl.org/dc/elements/1.1/"
   xmlns:cc="http://creativecommons.org/ns#"
   xmlns:rdf="http://www.w3.org/1999/02/22-rdf-syntax-ns#"
   xmlns:svg="http://www.w3.org/2000/svg"
   xmlns="http://www.w3.org/2000/svg"
   xmlns:sodipodi="http://sodipodi.sourceforge.net/DTD/sodipodi-0.dtd"
   xmlns:inkscape="http://www.inkscape.org/namespaces/inkscape"
   width="304.6384"
   height="52.067543"
   id="svg1982"
   sodipodi:version="0.32"
   inkscape:version="0.48.3.1 r9886"
   sodipodi:docname="fullAdd_schem.svg"
   version="1.1">
  <defs
     id="defs1984">
    <marker
       inkscape:stockid="Arrow1Send"
       orient="auto"
       refY="0"
       refX="0"
       id="Arrow1Send"
       style="overflow:visible">
      <path
         id="path4016"
         d="M 0,0 5,-5 -12.5,0 5,5 0,0 z"
         style="fill-rule:evenodd;stroke:#000000;stroke-width:1pt"
         transform="matrix(-0.2,0,0,-0.2,-1.2,0)"
         inkscape:connector-curvature="0" />
    </marker>
    <marker
       inkscape:stockid="Arrow1Mend"
       orient="auto"
       refY="0"
       refX="0"
       id="Arrow1Mend"
       style="overflow:visible">
      <path
         id="path4010"
         d="M 0,0 5,-5 -12.5,0 5,5 0,0 z"
         style="fill-rule:evenodd;stroke:#000000;stroke-width:1pt"
         transform="matrix(-0.4,0,0,-0.4,-4,0)"
         inkscape:connector-curvature="0" />
    </marker>
  </defs>
  <sodipodi:namedview
     id="base"
     pagecolor="#ffffff"
     bordercolor="#666666"
     borderopacity="1.0"
     inkscape:pageopacity="0.0"
     inkscape:pageshadow="2"
     inkscape:zoom="1"
     inkscape:cx="381.79914"
     inkscape:cy="-33.896074"
     inkscape:document-units="px"
     inkscape:current-layer="layer1"
     showgrid="true"
     inkscape:window-width="1366"
     inkscape:window-height="709"
     inkscape:window-x="0"
     inkscape:window-y="27"
     inkscape:window-maximized="1"
     fit-margin-top="0"
     fit-margin-left="0"
     fit-margin-right="0"
     fit-margin-bottom="0" />
  <metadata
     id="metadata1987">
    <rdf:RDF>
      <cc:Work
         rdf:about="">
        <dc:format>image/svg+xml</dc:format>
        <dc:type
           rdf:resource="http://purl.org/dc/dcmitype/StillImage" />
        <dc:title></dc:title>
      </cc:Work>
    </rdf:RDF>
  </metadata>
  <g
     inkscape:label="Capa 1"
     inkscape:groupmode="layer"
     id="layer1"
     transform="translate(-244.78711,-463.89838)">
    <path
       style="fill:none;stroke:#000000;stroke-width:1.36899996;stroke-linecap:butt;stroke-linejoin:miter;stroke-miterlimit:4;stroke-opacity:1;stroke-dasharray:none"
       d="m 379.2507,490.02577 -19.77871,0"
       id="path5760"
       inkscape:connector-curvature="0"
       sodipodi:nodetypes="cc" />
    <path
       sodipodi:nodetypes="cccc"
       id="path5762"
       d="m 378.86776,491.24108 0,-2.33767 5.56029,1.16883 -5.56029,1.16884 z"
       style="fill:#000000;fill-rule:evenodd;stroke:none"
       inkscape:connector-curvature="0" />
    <path
       id="path5766"
       d="m 436.50215,472.51274 -76.64306,0"
       style="fill:none;stroke:#000000;stroke-width:1.66900003;stroke-linecap:butt;stroke-linejoin:miter;stroke-miterlimit:4;stroke-opacity:1;stroke-dasharray:none"
       inkscape:connector-curvature="0" />
    <g
       id="g5186">
      <path
         id="path2053"
         d="m 321.39057,489.9258 -28.77755,0"
         style="fill:none;stroke:#000000;stroke-width:1.66900003;stroke-linecap:butt;stroke-linejoin:miter;stroke-miterlimit:4;stroke-opacity:1;stroke-dasharray:none"
         inkscape:connector-curvature="0"
         sodipodi:nodetypes="cc" />
      <path
         sodipodi:nodetypes="cccc"
         id="path2065"
         d="m 320.83204,491.06251 0,-2.33767 5.56029,1.16883 -5.56029,1.16884 z"
         style="fill:#000000;fill-rule:evenodd;stroke:none"
         inkscape:connector-curvature="0" />
    </g>
    <path
       id="path2080"
       d="m 436.7911,489.41777 -19.2834,0"
       style="fill:none;stroke:#000000;stroke-width:1.66900003;stroke-linecap:butt;stroke-linejoin:miter;stroke-miterlimit:4;stroke-opacity:1;stroke-dasharray:none"
       inkscape:connector-curvature="0" />
    <text
       xml:space="preserve"
       style="font-size:6.5999999px;font-style:normal;font-weight:normal;fill:#000000;fill-opacity:1;stroke:none;font-family:Bitstream Vera Sans"
       x="379.63583"
       y="468.84256"
       id="text2112"><tspan
         sodipodi:role="line"
         id="tspan2114"
         x="379.63583"
         y="468.84256">carry1</tspan></text>
    <text
       xml:space="preserve"
       style="font-size:6.5999999px;font-style:normal;font-weight:normal;fill:#000000;fill-opacity:1;stroke:none;font-family:Bitstream Vera Sans"
       x="419.2265"
       y="485.98932"
       id="text2116"><tspan
         sodipodi:role="line"
         id="tspan2118"
         x="419.2265"
         y="485.98932">carry2</tspan></text>
    <text
       xml:space="preserve"
       style="font-size:12px;font-style:normal;font-weight:normal;fill:#000000;fill-opacity:1;stroke:none;font-family:Bitstream Vera Sans"
       x="520.48792"
       y="484.26843"
       id="text2120"><tspan
         sodipodi:role="line"
         id="tspan2122"
         x="520.48792"
         y="484.26843">c<tspan
   style="font-size:65.00091553%;baseline-shift:sub"
   id="tspan5308">out</tspan></tspan></text>
    <text
       xml:space="preserve"
       style="font-size:12px;font-style:normal;font-weight:normal;fill:#000000;fill-opacity:1;stroke:none;font-family:Bitstream Vera Sans"
       x="270.125"
       y="510.18164"
       id="text2124"><tspan
         sodipodi:role="line"
         id="tspan2126"
         x="270.125"
         y="510.18164">c<tspan
   style="font-size:65.00091553%;baseline-shift:sub"
   id="tspan5310">in</tspan></tspan></text>
    <text
       xml:space="preserve"
       style="font-size:12px;font-style:normal;font-weight:normal;fill:#000000;fill-opacity:1;stroke:none;font-family:Bitstream Vera Sans"
       x="273.565"
       y="492.19226"
       id="text2128"><tspan
         sodipodi:role="line"
         id="tspan2130"
         x="273.565"
         y="492.19226">a</tspan></text>
    <text
       xml:space="preserve"
       style="font-size:12px;font-style:normal;font-weight:normal;fill:#000000;fill-opacity:1;stroke:none;font-family:Bitstream Vera Sans"
       x="273.19586"
       y="477.19226"
       id="text2132"><tspan
         sodipodi:role="line"
         id="tspan2134"
         x="273.19586"
         y="477.19226">b</tspan></text>
    <text
       xml:space="preserve"
       style="font-size:6.5999999px;font-style:normal;font-weight:normal;fill:#000000;fill-opacity:1;stroke:none;font-family:Bitstream Vera Sans"
       x="361.36411"
       y="486.72443"
       id="text2136"><tspan
         sodipodi:role="line"
         id="tspan2138"
         x="361.36411"
         y="486.72443">sum1</tspan></text>
    <text
       xml:space="preserve"
       style="font-size:12px;font-style:normal;font-weight:normal;fill:#000000;fill-opacity:1;stroke:none;font-family:Bitstream Vera Sans"
       x="520.45508"
       y="511.58289"
       id="text2140"><tspan
         sodipodi:role="line"
         id="tspan2142"
         x="520.45508"
         y="511.58289">s</tspan></text>
    <path
       inkscape:connector-curvature="0"
       id="path2173"
       d="m 510.22422,508.22083 -92.47345,0"
       style="fill:none;stroke:#000000;stroke-width:1.68284035;stroke-linecap:butt;stroke-linejoin:miter;stroke-miterlimit:4;stroke-opacity:1;stroke-dasharray:none" />
    <path
       inkscape:connector-curvature="0"
       style="fill:none;stroke:#000000;stroke-width:1.68284035;stroke-linecap:butt;stroke-linejoin:miter;stroke-miterlimit:4;stroke-opacity:1;stroke-dasharray:none;marker-end:none"
       d="m 418.19414,508.22083 94.45775,0"
       id="path2177"
       sodipodi:nodetypes="cc" />
    <text
       xml:space="preserve"
       style="font-size:40px;font-style:normal;font-weight:normal;line-height:125%;letter-spacing:0px;word-spacing:0px;fill:#000000;fill-opacity:1;stroke:none;font-family:Sans"
       x="349.28571"
       y="529.50507"
       id="text3799"
       sodipodi:linespacing="125%"><tspan
         sodipodi:role="line"
         id="tspan3801"
         x="349.28571"
         y="529.50507" /></text>
    <rect
       style="fill:none;stroke:#060000;stroke-width:1.28900003;stroke-linejoin:round;stroke-miterlimit:4;stroke-opacity:1;stroke-dasharray:none"
       id="rect2762"
       width="32.903542"
       height="32.903542"
       x="326.62317"
       y="464.54288" />
    <g
       id="g3809"
       transform="matrix(0.57975016,0,0,0.57975016,138.96482,174.22211)"
       style="stroke:none;stroke-width:0.31047857000000001;stroke-miterlimit:4;stroke-opacity:1;stroke-dasharray:none">
      <text
         id="text2146"
         y="528.62457"
         x="352.29092"
         style="font-size:11.53400135000000049px;font-style:normal;font-weight:normal;text-align:center;text-anchor:middle;fill:#110000;fill-opacity:1;stroke:none;stroke-width:0.31047857000000001;stroke-miterlimit:4;stroke-opacity:1;stroke-dasharray:none;font-family:Bitstream Vera Sans"
         xml:space="preserve"><tspan
           y="528.62457"
           x="352.29092"
           id="tspan2148"
           sodipodi:role="line">semi</tspan><tspan
           id="tspan3029"
           y="543.04205"
           x="352.29092"
           sodipodi:role="line" /></text>
      <text
         xml:space="preserve"
         style="font-size:11.53400135000000049px;font-style:normal;font-weight:normal;text-align:center;text-anchor:middle;fill:#110000;fill-opacity:1;stroke:none;stroke-width:0.31047857000000001;stroke-miterlimit:4;stroke-opacity:1;stroke-dasharray:none;font-family:Bitstream Vera Sans"
         x="351.75873"
         y="538.26746"
         id="text3803"><tspan
           sodipodi:role="line"
           id="tspan3805"
           x="351.75873"
           y="538.26746">sumador</tspan><tspan
           sodipodi:role="line"
           x="351.75873"
           y="552.68494"
           id="tspan3807" /></text>
    </g>
    <path
       inkscape:connector-curvature="0"
       style="fill:none;stroke:#000000;stroke-width:1.686957;stroke-linecap:butt;stroke-linejoin:miter;stroke-opacity:1;marker-start:none;marker-end:none"
       d="m 491.41304,480.99261 c 16.86957,0 21.08696,0 21.08696,0"
       id="path3059"
       sodipodi:nodetypes="cc" />
    <path
       inkscape:connector-curvature="0"
       style="fill:none;stroke:#000000;stroke-width:1.68695688;stroke-linecap:butt;stroke-linejoin:miter;stroke-opacity:1"
       d="m 457.99925,472.55782 -21.41231,0"
       id="path3061" />
    <path
       inkscape:connector-curvature="0"
       style="fill:none;stroke:#000000;stroke-width:1.68695676;stroke-linecap:butt;stroke-linejoin:miter;stroke-opacity:1"
       d="m 458.82279,489.42739 -22.23585,0"
       id="path3944" />
    <g
       id="g2560"
       inkscape:label="Layer 1"
       transform="matrix(0.84347851,0,0,0.84347851,454.72172,426.58825)">
      <path
         inkscape:connector-curvature="0"
         id="path3516"
         style="fill:#000000;fill-opacity:1;fill-rule:evenodd;stroke:none"
         d="m -2.25,81.500005 c -1.597374,2.6444 -2.25,3 -2.25,3 l -3.65625,0 2,-2.4375 c 0,0 5.65625,-7.000054 5.65625,-17.562505 0,-10.562451 -5.65625,-17.5625 -5.65625,-17.5625 l -2,-2.4375 3.65625,0 c 0.78125,0.9375 1.421875,1.65625 2.21875,3 1.872719,3.099815 4.78125,9.026646 4.78125,17 0,7.95065 -2.896697,13.879425 -4.75,17.000005 z"
         sodipodi:nodetypes="ccccsccccsc" />
      <path
         inkscape:connector-curvature="0"
         style="fill:#000000;fill-opacity:1;fill-rule:evenodd;stroke:none"
         d="m -2.40625,44.5 2,2.4375 c 0,0 5.65625,7.000049 5.65625,17.5625 0,10.562451 -5.65625,17.5625 -5.65625,17.5625 l -2,2.4375 3.15625,0 14,0 c 2.408076,10e-7 7.689699,0.02451 13.625,-2.40625 5.935301,-2.430764 12.536536,-7.343266 17.6875,-16.875 L 44.75,64.5 46.0625,63.78125 C 35.759387,44.71559 19.506574,44.5 14.75,44.5 l -14,0 -3.15625,0 z m 5.875,3 11.28125,0 c 4.684173,0 18.28685,-0.130207 27.96875,17 C 37.951964,72.929075 32.197469,77.18391 27,79.3125 21.639339,81.507924 17.158075,81.500001 14.75,81.5 l -11.25,0 c 1.8735884,-3.108434 4.75,-9.04935 4.75,-17 0,-7.973354 -2.9085314,-13.900185 -4.78125,-17 z"
         id="path4973"
         sodipodi:nodetypes="ccsccccscccccccccsccsc" />
    </g>
    <g
       id="g5207"
       transform="translate(0,-21.823223)">
      <path
         sodipodi:nodetypes="cc"
         style="fill:none;stroke:#000000;stroke-width:1.66700006;stroke-linecap:butt;stroke-linejoin:miter;stroke-miterlimit:4;stroke-opacity:1;stroke-dasharray:none"
         d="m 379.1789,530.07037 -86.35674,0"
         id="path2164"
         inkscape:connector-curvature="0" />
      <path
         inkscape:connector-curvature="0"
         sodipodi:nodetypes="cccc"
         id="path5182"
         d="m 378.86776,531.24108 0,-2.33767 5.56029,1.16883 -5.56029,1.16884 z"
         style="fill:#000000;fill-rule:evenodd;stroke:#000000;stroke-width:0.04526864px;stroke-linecap:butt;stroke-linejoin:miter;stroke-opacity:1" />
    </g>
    <path
       id="path5192"
       d="m 321.39057,472.45779 -28.77755,0"
       style="fill:none;stroke:#000000;stroke-width:1.66900003;stroke-linecap:butt;stroke-linejoin:miter;stroke-miterlimit:4;stroke-opacity:1;stroke-dasharray:none"
       inkscape:connector-curvature="0"
       sodipodi:nodetypes="cc" />
    <path
       sodipodi:nodetypes="cccc"
       id="path5194"
       d="m 320.83204,473.5945 0,-2.33767 5.56029,1.16883 -5.56029,1.16884 z"
       style="fill:#000000;fill-rule:evenodd;stroke:none"
       inkscape:connector-curvature="0" />
    <path
       sodipodi:type="arc"
       style="fill:none;stroke:#000000;stroke-width:2;stroke-linecap:butt;stroke-linejoin:miter;stroke-miterlimit:4;stroke-opacity:1;stroke-dasharray:none;stroke-dashoffset:0;marker:none;visibility:visible;display:inline;overflow:visible;enable-background:accumulate"
       id="path2607"
       sodipodi:cx="22.5"
       sodipodi:cy="17.5"
       sodipodi:rx="2.5"
       sodipodi:ry="2.5"
       d="M 25,17.5 C 25,18.880712 23.880712,20 22.5,20 21.119288,20 20,18.880712 20,17.5 20,16.119288 21.119288,15 22.5,15 c 1.380712,0 2.5,1.119288 2.5,2.5 z"
       transform="translate(493.40027,463.38195)" />
    <path
       transform="translate(493.40027,490.73818)"
       d="M 25,17.5 C 25,18.880712 23.880712,20 22.5,20 21.119288,20 20,18.880712 20,17.5 20,16.119288 21.119288,15 22.5,15 c 1.380712,0 2.5,1.119288 2.5,2.5 z"
       sodipodi:ry="2.5"
       sodipodi:rx="2.5"
       sodipodi:cy="17.5"
       sodipodi:cx="22.5"
       id="path5203"
       style="fill:none;stroke:#000000;stroke-width:2;stroke-linecap:butt;stroke-linejoin:miter;stroke-miterlimit:4;stroke-opacity:1;stroke-dasharray:none;stroke-dashoffset:0;marker:none;visibility:visible;display:inline;overflow:visible;enable-background:accumulate"
       sodipodi:type="arc" />
    <path
       sodipodi:type="arc"
       style="fill:none;stroke:#000000;stroke-width:2;stroke-linecap:butt;stroke-linejoin:miter;stroke-miterlimit:4;stroke-opacity:1;stroke-dasharray:none;stroke-dashoffset:0;marker:none;visibility:visible;display:inline;overflow:visible;enable-background:accumulate"
       id="path5205"
       sodipodi:cx="22.5"
       sodipodi:cy="17.5"
       sodipodi:rx="2.5"
       sodipodi:ry="2.5"
       d="M 25,17.5 C 25,18.880712 23.880712,20 22.5,20 21.119288,20 20,18.880712 20,17.5 20,16.119288 21.119288,15 22.5,15 c 1.380712,0 2.5,1.119288 2.5,2.5 z"
       transform="translate(267.40027,490.73818)" />
    <path
       transform="translate(267.40027,472.73818)"
       d="M 25,17.5 C 25,18.880712 23.880712,20 22.5,20 21.119288,20 20,18.880712 20,17.5 20,16.119288 21.119288,15 22.5,15 c 1.380712,0 2.5,1.119288 2.5,2.5 z"
       sodipodi:ry="2.5"
       sodipodi:rx="2.5"
       sodipodi:cy="17.5"
       sodipodi:cx="22.5"
       id="path5211"
       style="fill:none;stroke:#000000;stroke-width:2;stroke-linecap:butt;stroke-linejoin:miter;stroke-miterlimit:4;stroke-opacity:1;stroke-dasharray:none;stroke-dashoffset:0;marker:none;visibility:visible;display:inline;overflow:visible;enable-background:accumulate"
       sodipodi:type="arc" />
    <path
       sodipodi:type="arc"
       style="fill:none;stroke:#000000;stroke-width:2;stroke-linecap:butt;stroke-linejoin:miter;stroke-miterlimit:4;stroke-opacity:1;stroke-dasharray:none;stroke-dashoffset:0;marker:none;visibility:visible;display:inline;overflow:visible;enable-background:accumulate"
       id="path5215"
       sodipodi:cx="22.5"
       sodipodi:cy="17.5"
       sodipodi:rx="2.5"
       sodipodi:ry="2.5"
       d="M 25,17.5 C 25,18.880712 23.880712,20 22.5,20 21.119288,20 20,18.880712 20,17.5 20,16.119288 21.119288,15 22.5,15 c 1.380712,0 2.5,1.119288 2.5,2.5 z"
       transform="translate(267.40027,454.73818)" />
    <rect
       y="482.41788"
       x="384.62317"
       height="32.903542"
       width="32.903542"
       id="rect5235"
       style="fill:none;stroke:#060000;stroke-width:1.28900003;stroke-linejoin:round;stroke-miterlimit:4;stroke-opacity:1;stroke-dasharray:none" />
    <g
       transform="matrix(0.57975016,0,0,0.57975016,196.96482,192.09711)"
       id="g5237"
       style="stroke:none;stroke-width:0.31047857000000001;stroke-miterlimit:4;stroke-opacity:1;stroke-dasharray:none">
      <text
         xml:space="preserve"
         style="font-size:11.53400135000000049px;font-style:normal;font-weight:normal;text-align:center;text-anchor:middle;fill:#110000;fill-opacity:1;stroke:none;stroke-width:0.31047857000000001;stroke-miterlimit:4;stroke-opacity:1;stroke-dasharray:none;font-family:Bitstream Vera Sans"
         x="352.29092"
         y="528.62457"
         id="text5239"><tspan
           sodipodi:role="line"
           id="tspan5241"
           x="352.29092"
           y="528.62457">semi</tspan><tspan
           sodipodi:role="line"
           x="352.29092"
           y="543.04205"
           id="tspan5243" /></text>
      <text
         id="text5245"
         y="538.26746"
         x="351.75873"
         style="font-size:11.53400135000000049px;font-style:normal;font-weight:normal;text-align:center;text-anchor:middle;fill:#110000;fill-opacity:1;stroke:none;stroke-width:0.31047857000000001;stroke-miterlimit:4;stroke-opacity:1;stroke-dasharray:none;font-family:Bitstream Vera Sans"
         xml:space="preserve"><tspan
           y="538.26746"
           x="351.75873"
           id="tspan5247"
           sodipodi:role="line">sumador</tspan><tspan
           id="tspan5249"
           y="552.68494"
           x="351.75873"
           sodipodi:role="line" /></text>
    </g>
  </g>
</svg>
