<?xml version="1.0" encoding="UTF-8" standalone="no"?>
<!-- Created with Inkscape (http://www.inkscape.org/) -->

<svg
   xmlns:dc="http://purl.org/dc/elements/1.1/"
   xmlns:cc="http://creativecommons.org/ns#"
   xmlns:rdf="http://www.w3.org/1999/02/22-rdf-syntax-ns#"
   xmlns:svg="http://www.w3.org/2000/svg"
   xmlns="http://www.w3.org/2000/svg"
   xmlns:sodipodi="http://sodipodi.sourceforge.net/DTD/sodipodi-0.dtd"
   xmlns:inkscape="http://www.inkscape.org/namespaces/inkscape"
   width="270.28378"
   height="152.17686"
   id="svg5940"
   version="1.1"
   inkscape:version="0.48.3.1 r9886"
   sodipodi:docname="ppserie.svg">
  <defs
     id="defs5942" />
  <sodipodi:namedview
     id="base"
     pagecolor="#ffffff"
     bordercolor="#666666"
     borderopacity="1.0"
     inkscape:pageopacity="0.0"
     inkscape:pageshadow="2"
     inkscape:zoom="1.4910194"
     inkscape:cx="78.828407"
     inkscape:cy="6.6156409"
     inkscape:document-units="px"
     inkscape:current-layer="layer1"
     showgrid="false"
     inkscape:window-width="1366"
     inkscape:window-height="709"
     inkscape:window-x="0"
     inkscape:window-y="27"
     inkscape:window-maximized="1"
     fit-margin-top="0"
     fit-margin-left="0"
     fit-margin-right="0"
     fit-margin-bottom="0"
     showguides="true"
     inkscape:guide-bbox="true" />
  <metadata
     id="metadata5945">
    <rdf:RDF>
      <cc:Work
         rdf:about="">
        <dc:format>image/svg+xml</dc:format>
        <dc:type
           rdf:resource="http://purl.org/dc/dcmitype/StillImage" />
        <dc:title></dc:title>
      </cc:Work>
    </rdf:RDF>
  </metadata>
  <g
     inkscape:label="Capa 1"
     inkscape:groupmode="layer"
     id="layer1"
     transform="translate(-228.84392,-731.07446)">
    <path
       inkscape:connector-curvature="0"
       id="path5219-0"
       style="fill:none;stroke:#000000;stroke-width:0.40483913;stroke-linecap:butt;stroke-linejoin:miter;stroke-miterlimit:10;stroke-opacity:1;stroke-dasharray:none"
       d="m 241.56866,740.86626 29.99999,15.53965"
       sodipodi:nodetypes="cc" />
    <path
       inkscape:connector-curvature="0"
       id="path5379-4"
       style="fill:none;stroke:#000000;stroke-width:0.40483913;stroke-linecap:butt;stroke-linejoin:miter;stroke-miterlimit:10;stroke-opacity:1;stroke-dasharray:none"
       d="M 241.56866,740.86626 241.80578,872.572"
       sodipodi:nodetypes="cc" />
    <path
       sodipodi:nodetypes="csssc"
       d="m 303.81815,771.94556 c 0,0.6436 -1.00725,1.16548 -2.2495,1.16548 -1.24213,0 -2.2495,-0.52188 -2.2495,-1.16548 0,-0.6436 1.00737,-1.16547 2.2495,-1.16547 1.24225,0 2.2495,0.52187 2.2495,1.16547"
       style="fill:#000000;fill-opacity:1;fill-rule:evenodd;stroke:none"
       id="path3175"
       inkscape:connector-curvature="0" />
    <path
       sodipodi:nodetypes="sssss"
       d="m 303.81815,771.94556 c 0,0.6436 -1.00725,1.16548 -2.2495,1.16548 -1.24213,0 -2.2495,-0.52188 -2.2495,-1.16548 0,-0.6436 1.00737,-1.16547 2.2495,-1.16547 1.24225,0 2.2495,0.52187 2.2495,1.16547 z"
       style="fill:none;stroke:#000000;stroke-width:0.40483913;stroke-linecap:butt;stroke-linejoin:miter;stroke-miterlimit:10;stroke-opacity:1;stroke-dasharray:none"
       id="path3177"
       inkscape:connector-curvature="0" />
    <path
       sodipodi:nodetypes="cc"
       d="m 271.56866,756.40591 29.99999,15.53965"
       style="fill:none;stroke:#000000;stroke-width:0.40483913;stroke-linecap:butt;stroke-linejoin:miter;stroke-miterlimit:10;stroke-opacity:1;stroke-dasharray:none"
       id="path3179"
       inkscape:connector-curvature="0" />
    <path
       sodipodi:nodetypes="cc"
       d="M 271.56866,740.86626 271.80578,872.572"
       style="fill:none;stroke:#000000;stroke-width:0.40483913;stroke-linecap:butt;stroke-linejoin:miter;stroke-miterlimit:10;stroke-opacity:1;stroke-dasharray:none"
       id="path3181"
       inkscape:connector-curvature="0" />
    <path
       inkscape:connector-curvature="0"
       id="path3187"
       style="fill:#000000;fill-opacity:1;fill-rule:evenodd;stroke:none"
       d="m 333.81815,787.48521 c 0,0.6436 -1.00725,1.16547 -2.2495,1.16547 -1.24213,0 -2.2495,-0.52187 -2.2495,-1.16547 0,-0.6436 1.00737,-1.16547 2.2495,-1.16547 1.24225,0 2.2495,0.52187 2.2495,1.16547"
       sodipodi:nodetypes="csssc" />
    <path
       inkscape:connector-curvature="0"
       id="path3189"
       style="fill:none;stroke:#000000;stroke-width:0.40483913;stroke-linecap:butt;stroke-linejoin:miter;stroke-miterlimit:10;stroke-opacity:1;stroke-dasharray:none"
       d="m 333.81815,787.48521 c 0,0.6436 -1.00725,1.16547 -2.2495,1.16547 -1.24213,0 -2.2495,-0.52187 -2.2495,-1.16547 0,-0.6436 1.00737,-1.16547 2.2495,-1.16547 1.24225,0 2.2495,0.52187 2.2495,1.16547 z"
       sodipodi:nodetypes="sssss" />
    <path
       inkscape:connector-curvature="0"
       id="path3191"
       style="fill:none;stroke:#000000;stroke-width:0.40483913;stroke-linecap:butt;stroke-linejoin:miter;stroke-miterlimit:10;stroke-opacity:1;stroke-dasharray:none"
       d="m 301.56866,771.94556 29.99999,15.53965"
       sodipodi:nodetypes="cc" />
    <path
       inkscape:connector-curvature="0"
       id="path3193"
       style="fill:none;stroke:#000000;stroke-width:0.40483913;stroke-linecap:butt;stroke-linejoin:miter;stroke-miterlimit:10;stroke-opacity:1;stroke-dasharray:none"
       d="M 301.56866,740.86626 301.80578,872.572"
       sodipodi:nodetypes="cc" />
    <path
       sodipodi:nodetypes="csssc"
       d="m 363.81815,803.02486 c 0,0.6436 -1.00725,1.16547 -2.2495,1.16547 -1.24213,0 -2.2495,-0.52187 -2.2495,-1.16547 0,-0.6436 1.00737,-1.16548 2.2495,-1.16548 1.24225,0 2.2495,0.52188 2.2495,1.16548"
       style="fill:#000000;fill-opacity:1;fill-rule:evenodd;stroke:none"
       id="path3199"
       inkscape:connector-curvature="0" />
    <path
       sodipodi:nodetypes="sssss"
       d="m 363.81815,803.02486 c 0,0.6436 -1.00725,1.16547 -2.2495,1.16547 -1.24213,0 -2.2495,-0.52187 -2.2495,-1.16547 0,-0.6436 1.00737,-1.16548 2.2495,-1.16548 1.24225,0 2.2495,0.52188 2.2495,1.16548 z"
       style="fill:none;stroke:#000000;stroke-width:0.40483913;stroke-linecap:butt;stroke-linejoin:miter;stroke-miterlimit:10;stroke-opacity:1;stroke-dasharray:none"
       id="path3201"
       inkscape:connector-curvature="0" />
    <path
       sodipodi:nodetypes="cc"
       d="m 331.56866,787.48521 29.99999,15.53965"
       style="fill:none;stroke:#000000;stroke-width:0.40483913;stroke-linecap:butt;stroke-linejoin:miter;stroke-miterlimit:10;stroke-opacity:1;stroke-dasharray:none"
       id="path3203"
       inkscape:connector-curvature="0" />
    <path
       sodipodi:nodetypes="cc"
       d="M 331.56866,740.86626 331.80578,872.572"
       style="fill:none;stroke:#000000;stroke-width:0.40483913;stroke-linecap:butt;stroke-linejoin:miter;stroke-miterlimit:10;stroke-opacity:1;stroke-dasharray:none"
       id="path3205"
       inkscape:connector-curvature="0" />
    <path
       inkscape:connector-curvature="0"
       id="path3224"
       style="fill:none;stroke:#000000;stroke-width:0.40483913;stroke-linecap:butt;stroke-linejoin:miter;stroke-miterlimit:10;stroke-opacity:1;stroke-dasharray:none"
       d="m 361.56866,740.86626 0,131.08254"
       sodipodi:nodetypes="cc" />
    <path
       sodipodi:nodetypes="csssc"
       d="m 393.81815,818.56451 c 0,0.6436 -1.00725,1.16547 -2.2495,1.16547 -1.24213,0 -2.2495,-0.52187 -2.2495,-1.16547 0,-0.6436 1.00737,-1.16548 2.2495,-1.16548 1.24225,0 2.2495,0.52188 2.2495,1.16548"
       style="fill:#000000;fill-opacity:1;fill-rule:evenodd;stroke:none"
       id="path3262"
       inkscape:connector-curvature="0" />
    <path
       sodipodi:nodetypes="sssss"
       d="m 393.81815,818.56451 c 0,0.6436 -1.00725,1.16547 -2.2495,1.16547 -1.24213,0 -2.2495,-0.52187 -2.2495,-1.16547 0,-0.6436 1.00737,-1.16548 2.2495,-1.16548 1.24225,0 2.2495,0.52188 2.2495,1.16548 z"
       style="fill:none;stroke:#000000;stroke-width:0.40483913;stroke-linecap:butt;stroke-linejoin:miter;stroke-miterlimit:10;stroke-opacity:1;stroke-dasharray:none"
       id="path3264"
       inkscape:connector-curvature="0" />
    <path
       sodipodi:nodetypes="cc"
       d="m 361.56866,803.02486 29.99999,15.53965"
       style="fill:none;stroke:#000000;stroke-width:0.40483913;stroke-linecap:butt;stroke-linejoin:miter;stroke-miterlimit:10;stroke-opacity:1;stroke-dasharray:none"
       id="path3266"
       inkscape:connector-curvature="0" />
    <path
       inkscape:connector-curvature="0"
       id="path3272"
       style="fill:#000000;fill-opacity:1;fill-rule:evenodd;stroke:none"
       d="m 423.81815,834.10416 c 0,0.6436 -1.00725,1.16547 -2.2495,1.16547 -1.24213,0 -2.2495,-0.52187 -2.2495,-1.16547 0,-0.64361 1.00737,-1.16548 2.2495,-1.16548 1.24225,0 2.2495,0.52187 2.2495,1.16548"
       sodipodi:nodetypes="csssc" />
    <path
       inkscape:connector-curvature="0"
       id="path3274"
       style="fill:none;stroke:#000000;stroke-width:0.40483913;stroke-linecap:butt;stroke-linejoin:miter;stroke-miterlimit:10;stroke-opacity:1;stroke-dasharray:none"
       d="m 423.81815,834.10416 c 0,0.6436 -1.00725,1.16547 -2.2495,1.16547 -1.24213,0 -2.2495,-0.52187 -2.2495,-1.16547 0,-0.64361 1.00737,-1.16548 2.2495,-1.16548 1.24225,0 2.2495,0.52187 2.2495,1.16548 z"
       sodipodi:nodetypes="sssss" />
    <path
       inkscape:connector-curvature="0"
       id="path3276"
       style="fill:none;stroke:#000000;stroke-width:0.40483913;stroke-linecap:butt;stroke-linejoin:miter;stroke-miterlimit:10;stroke-opacity:1;stroke-dasharray:none"
       d="m 391.56866,818.56451 29.99999,15.53965"
       sodipodi:nodetypes="cc" />
    <path
       inkscape:connector-curvature="0"
       id="path3278"
       style="fill:none;stroke:#000000;stroke-width:0.40483913;stroke-linecap:butt;stroke-linejoin:miter;stroke-miterlimit:10;stroke-opacity:1;stroke-dasharray:none"
       d="m 391.56866,740.86626 0,131.75003"
       sodipodi:nodetypes="cc" />
    <path
       sodipodi:nodetypes="csssc"
       d="m 453.81815,849.6438 c 0,0.6436 -1.00725,1.16548 -2.2495,1.16548 -1.24213,0 -2.2495,-0.52188 -2.2495,-1.16548 0,-0.6436 1.00737,-1.16547 2.2495,-1.16547 1.24225,0 2.2495,0.52187 2.2495,1.16547"
       style="fill:#000000;fill-opacity:1;fill-rule:evenodd;stroke:none"
       id="path3282"
       inkscape:connector-curvature="0" />
    <path
       sodipodi:nodetypes="sssss"
       d="m 453.81815,849.6438 c 0,0.6436 -1.00725,1.16548 -2.2495,1.16548 -1.24213,0 -2.2495,-0.52188 -2.2495,-1.16548 0,-0.6436 1.00737,-1.16547 2.2495,-1.16547 1.24225,0 2.2495,0.52187 2.2495,1.16547 z"
       style="fill:none;stroke:#000000;stroke-width:0.40483913;stroke-linecap:butt;stroke-linejoin:miter;stroke-miterlimit:10;stroke-opacity:1;stroke-dasharray:none"
       id="path3284"
       inkscape:connector-curvature="0" />
    <path
       sodipodi:nodetypes="cc"
       d="m 421.56866,834.10416 29.99999,15.53964"
       style="fill:none;stroke:#000000;stroke-width:0.40483913;stroke-linecap:butt;stroke-linejoin:miter;stroke-miterlimit:10;stroke-opacity:1;stroke-dasharray:none"
       id="path3286"
       inkscape:connector-curvature="0" />
    <path
       sodipodi:nodetypes="cc"
       d="m 421.56866,740.86626 0,131.75003"
       style="fill:none;stroke:#000000;stroke-width:0.40483913;stroke-linecap:butt;stroke-linejoin:miter;stroke-miterlimit:10;stroke-opacity:1;stroke-dasharray:none"
       id="path3288"
       inkscape:connector-curvature="0" />
    <path
       inkscape:connector-curvature="0"
       id="path3292"
       style="fill:#000000;fill-opacity:1;fill-rule:evenodd;stroke:none"
       d="m 483.81815,865.18345 c 0,0.6436 -1.00725,1.16548 -2.2495,1.16548 -1.24213,0 -2.2495,-0.52188 -2.2495,-1.16548 0,-0.6436 1.00737,-1.16547 2.2495,-1.16547 1.24225,0 2.2495,0.52187 2.2495,1.16547"
       sodipodi:nodetypes="csssc" />
    <path
       inkscape:connector-curvature="0"
       id="path3294"
       style="fill:none;stroke:#000000;stroke-width:0.40483913;stroke-linecap:butt;stroke-linejoin:miter;stroke-miterlimit:10;stroke-opacity:1;stroke-dasharray:none"
       d="m 483.81815,865.18345 c 0,0.6436 -1.00725,1.16548 -2.2495,1.16548 -1.24213,0 -2.2495,-0.52188 -2.2495,-1.16548 0,-0.6436 1.00737,-1.16547 2.2495,-1.16547 1.24225,0 2.2495,0.52187 2.2495,1.16547 z"
       sodipodi:nodetypes="sssss" />
    <path
       inkscape:connector-curvature="0"
       id="path3296"
       style="fill:none;stroke:#000000;stroke-width:0.40483913;stroke-linecap:butt;stroke-linejoin:miter;stroke-miterlimit:10;stroke-opacity:1;stroke-dasharray:none"
       d="m 451.56866,849.6438 29.99999,15.53965"
       sodipodi:nodetypes="cc" />
    <path
       inkscape:connector-curvature="0"
       id="path3298"
       style="fill:none;stroke:#000000;stroke-width:0.40483913;stroke-linecap:butt;stroke-linejoin:miter;stroke-miterlimit:10;stroke-opacity:1;stroke-dasharray:none"
       d="m 451.56866,740.86626 0,131.75003"
       sodipodi:nodetypes="cc" />
    <path
       sodipodi:nodetypes="cc"
       d="m 481.56866,740.86626 0,131.75003"
       style="fill:none;stroke:#000000;stroke-width:0.40483913;stroke-linecap:butt;stroke-linejoin:miter;stroke-miterlimit:10;stroke-opacity:1;stroke-dasharray:none"
       id="path3300"
       inkscape:connector-curvature="0" />
    <text
       xml:space="preserve"
       style="font-size:7.88706732px;font-style:normal;font-variant:normal;font-weight:normal;font-stretch:normal;line-height:125%;letter-spacing:0px;word-spacing:0px;fill:#000000;fill-opacity:1;stroke:none;font-family:DejaVu Sans;-inkscape-font-specification:DejaVu Sans"
       x="228.61674"
       y="737.05908"
       id="text3311"
       sodipodi:linespacing="125%"><tspan
         sodipodi:role="line"
         id="tspan3313"
         x="228.61674"
         y="737.05908">(g<tspan
   style="font-size:5.12666607px;baseline-shift:sub"
   id="tspan3319">0</tspan>,p<tspan
   style="font-size:5.12666607px;baseline-shift:sub"
   id="tspan3317">0</tspan>) </tspan></text>
    <text
       sodipodi:linespacing="125%"
       id="text3321"
       y="881.60132"
       x="228.16612"
       style="font-size:7.88706732px;font-style:normal;font-variant:normal;font-weight:normal;font-stretch:normal;line-height:125%;letter-spacing:0px;word-spacing:0px;fill:#000000;fill-opacity:1;stroke:none;font-family:DejaVu Sans;-inkscape-font-specification:DejaVu Sans"
       xml:space="preserve"><tspan
         y="881.60132"
         x="228.16612"
         id="tspan3323"
         sodipodi:role="line">(G<tspan
   id="tspan3325"
   style="font-size:5.12666607px;baseline-shift:sub">0</tspan>,P<tspan
   id="tspan3327"
   style="font-size:5.12666607px;baseline-shift:sub">0</tspan>) </tspan></text>
    <text
       xml:space="preserve"
       style="font-size:7.88706732px;font-style:normal;font-variant:normal;font-weight:normal;font-stretch:normal;line-height:125%;letter-spacing:0px;word-spacing:0px;fill:#000000;fill-opacity:1;stroke:none;font-family:DejaVu Sans;-inkscape-font-specification:DejaVu Sans"
       x="258.16614"
       y="881.60132"
       id="text3337"
       sodipodi:linespacing="125%"><tspan
         sodipodi:role="line"
         id="tspan3339"
         x="258.16614"
         y="881.60132">(G<tspan
   style="font-size:5.12666607px;baseline-shift:sub"
   id="tspan3341">1</tspan>,P<tspan
   style="font-size:5.12666607px;baseline-shift:sub"
   id="tspan3343">1</tspan>) </tspan></text>
    <text
       sodipodi:linespacing="125%"
       id="text3345"
       y="881.60132"
       x="463.16016"
       style="font-size:7.88706732px;font-style:normal;font-variant:normal;font-weight:normal;font-stretch:normal;line-height:125%;letter-spacing:0px;word-spacing:0px;fill:#000000;fill-opacity:1;stroke:none;font-family:DejaVu Sans;-inkscape-font-specification:DejaVu Sans"
       xml:space="preserve"><tspan
         y="881.60132"
         x="463.16016"
         id="tspan3347"
         sodipodi:role="line">(G<tspan
   id="tspan3349"
   style="font-size:5.12666607px;baseline-shift:sub">k-1</tspan>,P<tspan
   id="tspan3351"
   style="font-size:5.12666607px;baseline-shift:sub">k-1</tspan>) </tspan></text>
    <text
       sodipodi:linespacing="125%"
       id="text3355"
       y="737.05908"
       x="258.61676"
       style="font-size:7.88706732px;font-style:normal;font-variant:normal;font-weight:normal;font-stretch:normal;line-height:125%;letter-spacing:0px;word-spacing:0px;fill:#000000;fill-opacity:1;stroke:none;font-family:DejaVu Sans;-inkscape-font-specification:DejaVu Sans"
       xml:space="preserve"><tspan
         y="737.05908"
         x="258.61676"
         id="tspan3357"
         sodipodi:role="line">(g<tspan
   id="tspan3359"
   style="font-size:5.12666607px;baseline-shift:sub">1</tspan>,p<tspan
   id="tspan3361"
   style="font-size:5.12666607px;baseline-shift:sub">1</tspan>) </tspan></text>
    <text
       xml:space="preserve"
       style="font-size:7.88706732px;font-style:normal;font-variant:normal;font-weight:normal;font-stretch:normal;line-height:125%;letter-spacing:0px;word-spacing:0px;fill:#000000;fill-opacity:1;stroke:none;font-family:DejaVu Sans;-inkscape-font-specification:DejaVu Sans"
       x="464.26108"
       y="737.05908"
       id="text3363"
       sodipodi:linespacing="125%"><tspan
         sodipodi:role="line"
         id="tspan3365"
         x="464.26108"
         y="737.05908">(g<tspan
   style="font-size:5.12666607px;baseline-shift:sub"
   id="tspan3367">k-1</tspan>,p<tspan
   style="font-size:5.12666607px;baseline-shift:sub"
   id="tspan3369">k-1</tspan>) </tspan></text>
    <path
       sodipodi:nodetypes="csssc"
       d="m 273.81815,756.8663 c 0,1.2425 -1.00725,2.25 -2.2495,2.25 -1.24213,0 -2.2495,-1.0075 -2.2495,-2.25 0,-1.2425 1.00737,-2.25 2.2495,-2.25 1.24225,0 2.2495,1.0075 2.2495,2.25"
       style="fill:#000000;fill-opacity:1;fill-rule:evenodd;stroke:none"
       id="path3419"
       inkscape:connector-curvature="0" />
    <path
       sodipodi:nodetypes="sssss"
       d="m 273.81815,756.8663 c 0,1.2425 -1.00725,2.25 -2.2495,2.25 -1.24213,0 -2.2495,-1.0075 -2.2495,-2.25 0,-1.2425 1.00737,-2.25 2.2495,-2.25 1.24225,0 2.2495,1.0075 2.2495,2.25 z"
       style="fill:none;stroke:#000000;stroke-width:0.5625;stroke-linecap:butt;stroke-linejoin:miter;stroke-miterlimit:10;stroke-opacity:1;stroke-dasharray:none"
       id="path3421"
       inkscape:connector-curvature="0" />
    <path
       inkscape:connector-curvature="0"
       id="path3423"
       style="fill:#000000;fill-opacity:1;fill-rule:evenodd;stroke:none"
       d="m 303.81815,772.15494 c 0,1.2425 -1.00725,2.25 -2.2495,2.25 -1.24213,0 -2.2495,-1.0075 -2.2495,-2.25 0,-1.2425 1.00737,-2.25 2.2495,-2.25 1.24225,0 2.2495,1.0075 2.2495,2.25"
       sodipodi:nodetypes="csssc" />
    <path
       inkscape:connector-curvature="0"
       id="path3425"
       style="fill:none;stroke:#000000;stroke-width:0.5625;stroke-linecap:butt;stroke-linejoin:miter;stroke-miterlimit:10;stroke-opacity:1;stroke-dasharray:none"
       d="m 303.81815,772.15494 c 0,1.2425 -1.00725,2.25 -2.2495,2.25 -1.24213,0 -2.2495,-1.0075 -2.2495,-2.25 0,-1.2425 1.00737,-2.25 2.2495,-2.25 1.24225,0 2.2495,1.0075 2.2495,2.25 z"
       sodipodi:nodetypes="sssss" />
    <path
       sodipodi:nodetypes="csssc"
       d="m 333.81815,787.8196 c 0,1.2425 -1.00725,2.25 -2.2495,2.25 -1.24213,0 -2.2495,-1.0075 -2.2495,-2.25 0,-1.2425 1.00737,-2.25 2.2495,-2.25 1.24225,0 2.2495,1.0075 2.2495,2.25"
       style="fill:#000000;fill-opacity:1;fill-rule:evenodd;stroke:none"
       id="path3429"
       inkscape:connector-curvature="0" />
    <path
       sodipodi:nodetypes="sssss"
       d="m 333.81815,787.8196 c 0,1.2425 -1.00725,2.25 -2.2495,2.25 -1.24213,0 -2.2495,-1.0075 -2.2495,-2.25 0,-1.2425 1.00737,-2.25 2.2495,-2.25 1.24225,0 2.2495,1.0075 2.2495,2.25 z"
       style="fill:none;stroke:#000000;stroke-width:0.5625;stroke-linecap:butt;stroke-linejoin:miter;stroke-miterlimit:10;stroke-opacity:1;stroke-dasharray:none"
       id="path3431"
       inkscape:connector-curvature="0" />
    <path
       inkscape:connector-curvature="0"
       id="path3435"
       style="fill:#000000;fill-opacity:1;fill-rule:evenodd;stroke:none"
       d="m 363.81815,803.31659 c 0,1.2425 -1.00725,2.25 -2.2495,2.25 -1.24213,0 -2.2495,-1.0075 -2.2495,-2.25 0,-1.2425 1.00737,-2.25 2.2495,-2.25 1.24225,0 2.2495,1.0075 2.2495,2.25"
       sodipodi:nodetypes="csssc" />
    <path
       inkscape:connector-curvature="0"
       id="path3437"
       style="fill:none;stroke:#000000;stroke-width:0.5625;stroke-linecap:butt;stroke-linejoin:miter;stroke-miterlimit:10;stroke-opacity:1;stroke-dasharray:none"
       d="m 363.81815,803.31659 c 0,1.2425 -1.00725,2.25 -2.2495,2.25 -1.24213,0 -2.2495,-1.0075 -2.2495,-2.25 0,-1.2425 1.00737,-2.25 2.2495,-2.25 1.24225,0 2.2495,1.0075 2.2495,2.25 z"
       sodipodi:nodetypes="sssss" />
    <path
       inkscape:connector-curvature="0"
       id="path3441"
       style="fill:#000000;fill-opacity:1;fill-rule:evenodd;stroke:none"
       d="m 393.81815,818.32261 c 0,1.2425 -1.00725,2.25 -2.2495,2.25 -1.24213,0 -2.2495,-1.0075 -2.2495,-2.25 0,-1.2425 1.00737,-2.25 2.2495,-2.25 1.24225,0 2.2495,1.0075 2.2495,2.25"
       sodipodi:nodetypes="csssc" />
    <path
       inkscape:connector-curvature="0"
       id="path3443"
       style="fill:none;stroke:#000000;stroke-width:0.5625;stroke-linecap:butt;stroke-linejoin:miter;stroke-miterlimit:10;stroke-opacity:1;stroke-dasharray:none"
       d="m 393.81815,818.32261 c 0,1.2425 -1.00725,2.25 -2.2495,2.25 -1.24213,0 -2.2495,-1.0075 -2.2495,-2.25 0,-1.2425 1.00737,-2.25 2.2495,-2.25 1.24225,0 2.2495,1.0075 2.2495,2.25 z"
       sodipodi:nodetypes="sssss" />
    <path
       sodipodi:nodetypes="csssc"
       d="m 423.81815,834.15494 c 0,1.2425 -1.00725,2.25 -2.2495,2.25 -1.24213,0 -2.2495,-1.0075 -2.2495,-2.25 0,-1.2425 1.00737,-2.25 2.2495,-2.25 1.24225,0 2.2495,1.0075 2.2495,2.25"
       style="fill:#000000;fill-opacity:1;fill-rule:evenodd;stroke:none"
       id="path3447"
       inkscape:connector-curvature="0" />
    <path
       sodipodi:nodetypes="sssss"
       d="m 423.81815,834.15494 c 0,1.2425 -1.00725,2.25 -2.2495,2.25 -1.24213,0 -2.2495,-1.0075 -2.2495,-2.25 0,-1.2425 1.00737,-2.25 2.2495,-2.25 1.24225,0 2.2495,1.0075 2.2495,2.25 z"
       style="fill:none;stroke:#000000;stroke-width:0.5625;stroke-linecap:butt;stroke-linejoin:miter;stroke-miterlimit:10;stroke-opacity:1;stroke-dasharray:none"
       id="path3449"
       inkscape:connector-curvature="0" />
    <path
       inkscape:connector-curvature="0"
       id="path3453"
       style="fill:#000000;fill-opacity:1;fill-rule:evenodd;stroke:none"
       d="m 453.81815,849.8196 c 0,1.2425 -1.00725,2.25 -2.2495,2.25 -1.24213,0 -2.2495,-1.0075 -2.2495,-2.25 0,-1.2425 1.00737,-2.25 2.2495,-2.25 1.24225,0 2.2495,1.0075 2.2495,2.25"
       sodipodi:nodetypes="csssc" />
    <path
       inkscape:connector-curvature="0"
       id="path3455"
       style="fill:none;stroke:#000000;stroke-width:0.5625;stroke-linecap:butt;stroke-linejoin:miter;stroke-miterlimit:10;stroke-opacity:1;stroke-dasharray:none"
       d="m 453.81815,849.8196 c 0,1.2425 -1.00725,2.25 -2.2495,2.25 -1.24213,0 -2.2495,-1.0075 -2.2495,-2.25 0,-1.2425 1.00737,-2.25 2.2495,-2.25 1.24225,0 2.2495,1.0075 2.2495,2.25 z"
       sodipodi:nodetypes="sssss" />
    <path
       sodipodi:nodetypes="csssc"
       d="m 483.81815,864.65795 c 0,1.2425 -1.00725,2.25 -2.2495,2.25 -1.24213,0 -2.2495,-1.0075 -2.2495,-2.25 0,-1.2425 1.00737,-2.25 2.2495,-2.25 1.24225,0 2.2495,1.0075 2.2495,2.25"
       style="fill:#000000;fill-opacity:1;fill-rule:evenodd;stroke:none"
       id="path3459"
       inkscape:connector-curvature="0" />
    <path
       sodipodi:nodetypes="sssss"
       d="m 483.81815,864.65795 c 0,1.2425 -1.00725,2.25 -2.2495,2.25 -1.24213,0 -2.2495,-1.0075 -2.2495,-2.25 0,-1.2425 1.00737,-2.25 2.2495,-2.25 1.24225,0 2.2495,1.0075 2.2495,2.25 z"
       style="fill:none;stroke:#000000;stroke-width:0.5625;stroke-linecap:butt;stroke-linejoin:miter;stroke-miterlimit:10;stroke-opacity:1;stroke-dasharray:none"
       id="path3461"
       inkscape:connector-curvature="0" />
  </g>
</svg>
