<?xml version="1.0" encoding="UTF-8" standalone="no"?>
<!-- Created with Inkscape (http://www.inkscape.org/) -->

<svg
   xmlns:dc="http://purl.org/dc/elements/1.1/"
   xmlns:cc="http://creativecommons.org/ns#"
   xmlns:rdf="http://www.w3.org/1999/02/22-rdf-syntax-ns#"
   xmlns:svg="http://www.w3.org/2000/svg"
   xmlns="http://www.w3.org/2000/svg"
   xmlns:sodipodi="http://sodipodi.sourceforge.net/DTD/sodipodi-0.dtd"
   xmlns:inkscape="http://www.inkscape.org/namespaces/inkscape"
   width="452.8125"
   height="134.53125"
   id="svg5940"
   version="1.1"
   inkscape:version="0.48.3.1 r9886"
   sodipodi:docname="sklansky16.svg">
  <defs
     id="defs5942" />
  <sodipodi:namedview
     id="base"
     pagecolor="#ffffff"
     bordercolor="#666666"
     borderopacity="1.0"
     inkscape:pageopacity="0.0"
     inkscape:pageshadow="2"
     inkscape:zoom="4.2172397"
     inkscape:cx="448.31055"
     inkscape:cy="-27.81192"
     inkscape:document-units="px"
     inkscape:current-layer="layer1"
     showgrid="false"
     inkscape:window-width="1366"
     inkscape:window-height="709"
     inkscape:window-x="0"
     inkscape:window-y="27"
     inkscape:window-maximized="1"
     fit-margin-top="0"
     fit-margin-left="0"
     fit-margin-right="0"
     fit-margin-bottom="0" />
  <metadata
     id="metadata5945">
    <rdf:RDF>
      <cc:Work
         rdf:about="">
        <dc:format>image/svg+xml</dc:format>
        <dc:type
           rdf:resource="http://purl.org/dc/dcmitype/StillImage" />
        <dc:title></dc:title>
      </cc:Work>
    </rdf:RDF>
  </metadata>
  <g
     inkscape:label="Capa 1"
     inkscape:groupmode="layer"
     id="layer1"
     transform="translate(-57.5625,-518.90625)">
    <path
       inkscape:connector-curvature="0"
       id="path4775"
       style="fill:#000000;fill-opacity:1;fill-rule:evenodd;stroke:none"
       d="m 90.106768,549.09458 c 0,1.2425 -1.00725,2.25 -2.2495,2.25 -1.242125,0 -2.2495,-1.0075 -2.2495,-2.25 0,-1.2425 1.007375,-2.25 2.2495,-2.25 1.24225,0 2.2495,1.0075 2.2495,2.25"
       sodipodi:nodetypes="csssc" />
    <path
       inkscape:connector-curvature="0"
       id="path4777"
       style="fill:none;stroke:#000000;stroke-width:0.5625;stroke-linecap:butt;stroke-linejoin:miter;stroke-miterlimit:10;stroke-opacity:1;stroke-dasharray:none"
       d="m 90.106768,549.09458 c 0,1.2425 -1.00725,2.25 -2.2495,2.25 -1.242125,0 -2.2495,-1.0075 -2.2495,-2.25 0,-1.2425 1.007375,-2.25 2.2495,-2.25 1.24225,0 2.2495,1.0075 2.2495,2.25 z"
       sodipodi:nodetypes="sssss" />
    <path
       inkscape:connector-curvature="0"
       id="path4779"
       style="fill:#000000;fill-opacity:1;fill-rule:evenodd;stroke:none"
       d="m 150.10677,549.09458 c 0,1.2425 -1.00725,2.25 -2.2495,2.25 -1.24213,0 -2.2495,-1.0075 -2.2495,-2.25 0,-1.2425 1.00737,-2.25 2.2495,-2.25 1.24225,0 2.2495,1.0075 2.2495,2.25"
       sodipodi:nodetypes="csssc" />
    <path
       inkscape:connector-curvature="0"
       id="path4781"
       style="fill:none;stroke:#000000;stroke-width:0.5625;stroke-linecap:butt;stroke-linejoin:miter;stroke-miterlimit:10;stroke-opacity:1;stroke-dasharray:none"
       d="m 150.10677,549.09458 c 0,1.2425 -1.00725,2.25 -2.2495,2.25 -1.24213,0 -2.2495,-1.0075 -2.2495,-2.25 0,-1.2425 1.00737,-2.25 2.2495,-2.25 1.24225,0 2.2495,1.0075 2.2495,2.25 z"
       sodipodi:nodetypes="sssss" />
    <path
       inkscape:connector-curvature="0"
       id="path4783"
       style="fill:#000000;fill-opacity:1;fill-rule:evenodd;stroke:none"
       d="m 210.10652,549.09458 c 0,1.2425 -1.0075,2.25 -2.24875,2.25 -1.2425,0 -2.25,-1.0075 -2.25,-2.25 0,-1.2425 1.0075,-2.25 2.25,-2.25 1.24125,0 2.24875,1.0075 2.24875,2.25"
       sodipodi:nodetypes="csssc" />
    <path
       inkscape:connector-curvature="0"
       id="path4785"
       style="fill:none;stroke:#000000;stroke-width:0.5625;stroke-linecap:butt;stroke-linejoin:miter;stroke-miterlimit:10;stroke-opacity:1;stroke-dasharray:none"
       d="m 210.10652,549.09458 c 0,1.2425 -1.0075,2.25 -2.24875,2.25 -1.2425,0 -2.25,-1.0075 -2.25,-2.25 0,-1.2425 1.0075,-2.25 2.25,-2.25 1.24125,0 2.24875,1.0075 2.24875,2.25 z"
       sodipodi:nodetypes="sssss" />
    <path
       inkscape:connector-curvature="0"
       id="path4787"
       style="fill:#000000;fill-opacity:1;fill-rule:evenodd;stroke:none"
       d="m 270.10652,549.09458 c 0,1.2425 -1.0075,2.25 -2.24875,2.25 -1.2425,0 -2.25,-1.0075 -2.25,-2.25 0,-1.2425 1.0075,-2.25 2.25,-2.25 1.24125,0 2.24875,1.0075 2.24875,2.25"
       sodipodi:nodetypes="csssc" />
    <path
       inkscape:connector-curvature="0"
       id="path4789"
       style="fill:none;stroke:#000000;stroke-width:0.5625;stroke-linecap:butt;stroke-linejoin:miter;stroke-miterlimit:10;stroke-opacity:1;stroke-dasharray:none"
       d="m 270.10652,549.09458 c 0,1.2425 -1.0075,2.25 -2.24875,2.25 -1.2425,0 -2.25,-1.0075 -2.25,-2.25 0,-1.2425 1.0075,-2.25 2.25,-2.25 1.24125,0 2.24875,1.0075 2.24875,2.25 z"
       sodipodi:nodetypes="sssss" />
    <path
       inkscape:connector-curvature="0"
       id="path4791"
       style="fill:#000000;fill-opacity:1;fill-rule:evenodd;stroke:none"
       d="m 330.10652,549.09458 c 0,1.2425 -1.0075,2.25 -2.24875,2.25 -1.2425,0 -2.25,-1.0075 -2.25,-2.25 0,-1.2425 1.0075,-2.25 2.25,-2.25 1.24125,0 2.24875,1.0075 2.24875,2.25"
       sodipodi:nodetypes="csssc" />
    <path
       inkscape:connector-curvature="0"
       id="path4793"
       style="fill:none;stroke:#000000;stroke-width:0.5625;stroke-linecap:butt;stroke-linejoin:miter;stroke-miterlimit:10;stroke-opacity:1;stroke-dasharray:none"
       d="m 330.10652,549.09458 c 0,1.2425 -1.0075,2.25 -2.24875,2.25 -1.2425,0 -2.25,-1.0075 -2.25,-2.25 0,-1.2425 1.0075,-2.25 2.25,-2.25 1.24125,0 2.24875,1.0075 2.24875,2.25 z"
       sodipodi:nodetypes="sssss" />
    <path
       inkscape:connector-curvature="0"
       id="path4795"
       style="fill:#000000;fill-opacity:1;fill-rule:evenodd;stroke:none"
       d="m 390.10652,549.09458 c 0,1.2425 -1.0075,2.25 -2.24875,2.25 -1.2425,0 -2.25,-1.0075 -2.25,-2.25 0,-1.2425 1.0075,-2.25 2.25,-2.25 1.24125,0 2.24875,1.0075 2.24875,2.25"
       sodipodi:nodetypes="csssc" />
    <path
       inkscape:connector-curvature="0"
       id="path4797"
       style="fill:none;stroke:#000000;stroke-width:0.5625;stroke-linecap:butt;stroke-linejoin:miter;stroke-miterlimit:10;stroke-opacity:1;stroke-dasharray:none"
       d="m 390.10652,549.09458 c 0,1.2425 -1.0075,2.25 -2.24875,2.25 -1.2425,0 -2.25,-1.0075 -2.25,-2.25 0,-1.2425 1.0075,-2.25 2.25,-2.25 1.24125,0 2.24875,1.0075 2.24875,2.25 z"
       sodipodi:nodetypes="sssss" />
    <path
       inkscape:connector-curvature="0"
       id="path4799"
       style="fill:#000000;fill-opacity:1;fill-rule:evenodd;stroke:none"
       d="m 450.10652,549.09458 c 0,1.2425 -1.0075,2.25 -2.24875,2.25 -1.2425,0 -2.25,-1.0075 -2.25,-2.25 0,-1.2425 1.0075,-2.25 2.25,-2.25 1.24125,0 2.24875,1.0075 2.24875,2.25"
       sodipodi:nodetypes="csssc" />
    <path
       inkscape:connector-curvature="0"
       id="path4801"
       style="fill:none;stroke:#000000;stroke-width:0.5625;stroke-linecap:butt;stroke-linejoin:miter;stroke-miterlimit:10;stroke-opacity:1;stroke-dasharray:none"
       d="m 450.10652,549.09458 c 0,1.2425 -1.0075,2.25 -2.24875,2.25 -1.2425,0 -2.25,-1.0075 -2.25,-2.25 0,-1.2425 1.0075,-2.25 2.25,-2.25 1.24125,0 2.24875,1.0075 2.24875,2.25 z"
       sodipodi:nodetypes="sssss" />
    <path
       inkscape:connector-curvature="0"
       id="path4803"
       style="fill:#000000;fill-opacity:1;fill-rule:evenodd;stroke:none"
       d="m 510.10652,549.09458 c 0,1.2425 -1.0075,2.25 -2.24875,2.25 -1.2425,0 -2.25,-1.0075 -2.25,-2.25 0,-1.2425 1.0075,-2.25 2.25,-2.25 1.24125,0 2.24875,1.0075 2.24875,2.25"
       sodipodi:nodetypes="csssc" />
    <path
       inkscape:connector-curvature="0"
       id="path4805"
       style="fill:none;stroke:#000000;stroke-width:0.5625;stroke-linecap:butt;stroke-linejoin:miter;stroke-miterlimit:10;stroke-opacity:1;stroke-dasharray:none"
       d="m 510.10652,549.09458 c 0,1.2425 -1.0075,2.25 -2.24875,2.25 -1.2425,0 -2.25,-1.0075 -2.25,-2.25 0,-1.2425 1.0075,-2.25 2.25,-2.25 1.24125,0 2.24875,1.0075 2.24875,2.25 z"
       sodipodi:nodetypes="sssss" />
    <path
       inkscape:connector-curvature="0"
       id="path4839"
       style="fill:#000000;fill-opacity:1;fill-rule:evenodd;stroke:none"
       d="m 150.10677,579.09458 c 0,1.2425 -1.00725,2.25 -2.2495,2.25 -1.24213,0 -2.2495,-1.0075 -2.2495,-2.25 0,-1.2425 1.00737,-2.25 2.2495,-2.25 1.24225,0 2.2495,1.0075 2.2495,2.25"
       sodipodi:nodetypes="csssc" />
    <path
       inkscape:connector-curvature="0"
       id="path4841"
       style="fill:none;stroke:#000000;stroke-width:0.5625;stroke-linecap:butt;stroke-linejoin:miter;stroke-miterlimit:10;stroke-opacity:1;stroke-dasharray:none"
       d="m 150.10677,579.09458 c 0,1.2425 -1.00725,2.25 -2.2495,2.25 -1.24213,0 -2.2495,-1.0075 -2.2495,-2.25 0,-1.2425 1.00737,-2.25 2.2495,-2.25 1.24225,0 2.2495,1.0075 2.2495,2.25 z"
       sodipodi:nodetypes="sssss" />
    <path
       inkscape:connector-curvature="0"
       id="path4843"
       style="fill:#000000;fill-opacity:1;fill-rule:evenodd;stroke:none"
       d="m 120.10677,579.09458 c 0,1.2425 -1.00725,2.25 -2.2495,2.25 -1.24213,0 -2.2495,-1.0075 -2.2495,-2.25 0,-1.2425 1.00737,-2.25 2.2495,-2.25 1.24225,0 2.2495,1.0075 2.2495,2.25"
       sodipodi:nodetypes="csssc" />
    <path
       inkscape:connector-curvature="0"
       id="path4845"
       style="fill:none;stroke:#000000;stroke-width:0.5625;stroke-linecap:butt;stroke-linejoin:miter;stroke-miterlimit:10;stroke-opacity:1;stroke-dasharray:none"
       d="m 120.10677,579.09458 c 0,1.2425 -1.00725,2.25 -2.2495,2.25 -1.24213,0 -2.2495,-1.0075 -2.2495,-2.25 0,-1.2425 1.00737,-2.25 2.2495,-2.25 1.24225,0 2.2495,1.0075 2.2495,2.25 z"
       sodipodi:nodetypes="sssss" />
    <path
       inkscape:connector-curvature="0"
       id="path4847"
       style="fill:#000000;fill-opacity:1;fill-rule:evenodd;stroke:none"
       d="m 270.10652,579.09458 c 0,1.2425 -1.0075,2.25 -2.24875,2.25 -1.2425,0 -2.25,-1.0075 -2.25,-2.25 0,-1.2425 1.0075,-2.25 2.25,-2.25 1.24125,0 2.24875,1.0075 2.24875,2.25"
       sodipodi:nodetypes="csssc" />
    <path
       inkscape:connector-curvature="0"
       id="path4849"
       style="fill:none;stroke:#000000;stroke-width:0.5625;stroke-linecap:butt;stroke-linejoin:miter;stroke-miterlimit:10;stroke-opacity:1;stroke-dasharray:none"
       d="m 270.10652,579.09458 c 0,1.2425 -1.0075,2.25 -2.24875,2.25 -1.2425,0 -2.25,-1.0075 -2.25,-2.25 0,-1.2425 1.0075,-2.25 2.25,-2.25 1.24125,0 2.24875,1.0075 2.24875,2.25 z"
       sodipodi:nodetypes="sssss" />
    <path
       inkscape:connector-curvature="0"
       id="path4851"
       style="fill:#000000;fill-opacity:1;fill-rule:evenodd;stroke:none"
       d="m 240.10652,579.09458 c 0,1.2425 -1.0075,2.25 -2.24875,2.25 -1.2425,0 -2.25,-1.0075 -2.25,-2.25 0,-1.2425 1.0075,-2.25 2.25,-2.25 1.24125,0 2.24875,1.0075 2.24875,2.25"
       sodipodi:nodetypes="csssc" />
    <path
       inkscape:connector-curvature="0"
       id="path4853"
       style="fill:none;stroke:#000000;stroke-width:0.5625;stroke-linecap:butt;stroke-linejoin:miter;stroke-miterlimit:10;stroke-opacity:1;stroke-dasharray:none"
       d="m 240.10652,579.09458 c 0,1.2425 -1.0075,2.25 -2.24875,2.25 -1.2425,0 -2.25,-1.0075 -2.25,-2.25 0,-1.2425 1.0075,-2.25 2.25,-2.25 1.24125,0 2.24875,1.0075 2.24875,2.25 z"
       sodipodi:nodetypes="sssss" />
    <path
       inkscape:connector-curvature="0"
       id="path4855"
       style="fill:#000000;fill-opacity:1;fill-rule:evenodd;stroke:none"
       d="m 390.10652,579.09458 c 0,1.2425 -1.0075,2.25 -2.24875,2.25 -1.2425,0 -2.25,-1.0075 -2.25,-2.25 0,-1.2425 1.0075,-2.25 2.25,-2.25 1.24125,0 2.24875,1.0075 2.24875,2.25"
       sodipodi:nodetypes="csssc" />
    <path
       inkscape:connector-curvature="0"
       id="path4857"
       style="fill:none;stroke:#000000;stroke-width:0.5625;stroke-linecap:butt;stroke-linejoin:miter;stroke-miterlimit:10;stroke-opacity:1;stroke-dasharray:none"
       d="m 390.10652,579.09458 c 0,1.2425 -1.0075,2.25 -2.24875,2.25 -1.2425,0 -2.25,-1.0075 -2.25,-2.25 0,-1.2425 1.0075,-2.25 2.25,-2.25 1.24125,0 2.24875,1.0075 2.24875,2.25 z"
       sodipodi:nodetypes="sssss" />
    <path
       inkscape:connector-curvature="0"
       id="path4859"
       style="fill:#000000;fill-opacity:1;fill-rule:evenodd;stroke:none"
       d="m 360.10652,579.09458 c 0,1.2425 -1.0075,2.25 -2.24875,2.25 -1.2425,0 -2.25,-1.0075 -2.25,-2.25 0,-1.2425 1.0075,-2.25 2.25,-2.25 1.24125,0 2.24875,1.0075 2.24875,2.25"
       sodipodi:nodetypes="csssc" />
    <path
       inkscape:connector-curvature="0"
       id="path4861"
       style="fill:none;stroke:#000000;stroke-width:0.5625;stroke-linecap:butt;stroke-linejoin:miter;stroke-miterlimit:10;stroke-opacity:1;stroke-dasharray:none"
       d="m 360.10652,579.09458 c 0,1.2425 -1.0075,2.25 -2.24875,2.25 -1.2425,0 -2.25,-1.0075 -2.25,-2.25 0,-1.2425 1.0075,-2.25 2.25,-2.25 1.24125,0 2.24875,1.0075 2.24875,2.25 z"
       sodipodi:nodetypes="sssss" />
    <path
       inkscape:connector-curvature="0"
       id="path4863"
       style="fill:#000000;fill-opacity:1;fill-rule:evenodd;stroke:none"
       d="m 510.10652,579.09458 c 0,1.2425 -1.0075,2.25 -2.24875,2.25 -1.2425,0 -2.25,-1.0075 -2.25,-2.25 0,-1.2425 1.0075,-2.25 2.25,-2.25 1.24125,0 2.24875,1.0075 2.24875,2.25"
       sodipodi:nodetypes="csssc" />
    <path
       inkscape:connector-curvature="0"
       id="path4865"
       style="fill:none;stroke:#000000;stroke-width:0.5625;stroke-linecap:butt;stroke-linejoin:miter;stroke-miterlimit:10;stroke-opacity:1;stroke-dasharray:none"
       d="m 510.10652,579.09458 c 0,1.2425 -1.0075,2.25 -2.24875,2.25 -1.2425,0 -2.25,-1.0075 -2.25,-2.25 0,-1.2425 1.0075,-2.25 2.25,-2.25 1.24125,0 2.24875,1.0075 2.24875,2.25 z"
       sodipodi:nodetypes="sssss" />
    <path
       inkscape:connector-curvature="0"
       id="path4867"
       style="fill:#000000;fill-opacity:1;fill-rule:evenodd;stroke:none"
       d="m 480.10652,579.09458 c 0,1.2425 -1.0075,2.25 -2.24875,2.25 -1.2425,0 -2.25,-1.0075 -2.25,-2.25 0,-1.2425 1.0075,-2.25 2.25,-2.25 1.24125,0 2.24875,1.0075 2.24875,2.25"
       sodipodi:nodetypes="csssc" />
    <path
       inkscape:connector-curvature="0"
       id="path4869"
       style="fill:none;stroke:#000000;stroke-width:0.5625;stroke-linecap:butt;stroke-linejoin:miter;stroke-miterlimit:10;stroke-opacity:1;stroke-dasharray:none"
       d="m 480.10652,579.09458 c 0,1.2425 -1.0075,2.25 -2.24875,2.25 -1.2425,0 -2.25,-1.0075 -2.25,-2.25 0,-1.2425 1.0075,-2.25 2.25,-2.25 1.24125,0 2.24875,1.0075 2.24875,2.25 z"
       sodipodi:nodetypes="sssss" />
    <path
       inkscape:connector-curvature="0"
       id="path4903"
       style="fill:#000000;fill-opacity:1;fill-rule:evenodd;stroke:none"
       d="m 270.10652,609.09458 c 0,1.2425 -1.0075,2.25 -2.24875,2.25 -1.2425,0 -2.25,-1.0075 -2.25,-2.25 0,-1.2425 1.0075,-2.25 2.25,-2.25 1.24125,0 2.24875,1.0075 2.24875,2.25"
       sodipodi:nodetypes="csssc" />
    <path
       inkscape:connector-curvature="0"
       id="path4905"
       style="fill:none;stroke:#000000;stroke-width:0.5625;stroke-linecap:butt;stroke-linejoin:miter;stroke-miterlimit:10;stroke-opacity:1;stroke-dasharray:none"
       d="m 270.10652,609.09458 c 0,1.2425 -1.0075,2.25 -2.24875,2.25 -1.2425,0 -2.25,-1.0075 -2.25,-2.25 0,-1.2425 1.0075,-2.25 2.25,-2.25 1.24125,0 2.24875,1.0075 2.24875,2.25 z"
       sodipodi:nodetypes="sssss" />
    <path
       inkscape:connector-curvature="0"
       id="path4907"
       style="fill:#000000;fill-opacity:1;fill-rule:evenodd;stroke:none"
       d="m 240.10652,609.09458 c 0,1.2425 -1.0075,2.25 -2.24875,2.25 -1.2425,0 -2.25,-1.0075 -2.25,-2.25 0,-1.2425 1.0075,-2.25 2.25,-2.25 1.24125,0 2.24875,1.0075 2.24875,2.25"
       sodipodi:nodetypes="csssc" />
    <path
       inkscape:connector-curvature="0"
       id="path4909"
       style="fill:none;stroke:#000000;stroke-width:0.5625;stroke-linecap:butt;stroke-linejoin:miter;stroke-miterlimit:10;stroke-opacity:1;stroke-dasharray:none"
       d="m 240.10652,609.09458 c 0,1.2425 -1.0075,2.25 -2.24875,2.25 -1.2425,0 -2.25,-1.0075 -2.25,-2.25 0,-1.2425 1.0075,-2.25 2.25,-2.25 1.24125,0 2.24875,1.0075 2.24875,2.25 z"
       sodipodi:nodetypes="sssss" />
    <path
       inkscape:connector-curvature="0"
       id="path4911"
       style="fill:#000000;fill-opacity:1;fill-rule:evenodd;stroke:none"
       d="m 210.10652,609.09458 c 0,1.2425 -1.0075,2.25 -2.24875,2.25 -1.2425,0 -2.25,-1.0075 -2.25,-2.25 0,-1.2425 1.0075,-2.25 2.25,-2.25 1.24125,0 2.24875,1.0075 2.24875,2.25"
       sodipodi:nodetypes="csssc" />
    <path
       inkscape:connector-curvature="0"
       id="path4913"
       style="fill:none;stroke:#000000;stroke-width:0.5625;stroke-linecap:butt;stroke-linejoin:miter;stroke-miterlimit:10;stroke-opacity:1;stroke-dasharray:none"
       d="m 210.10652,609.09458 c 0,1.2425 -1.0075,2.25 -2.24875,2.25 -1.2425,0 -2.25,-1.0075 -2.25,-2.25 0,-1.2425 1.0075,-2.25 2.25,-2.25 1.24125,0 2.24875,1.0075 2.24875,2.25 z"
       sodipodi:nodetypes="sssss" />
    <path
       inkscape:connector-curvature="0"
       id="path4915"
       style="fill:#000000;fill-opacity:1;fill-rule:evenodd;stroke:none"
       d="m 180.10652,609.09458 c 0,1.2425 -1.007,2.25 -2.24925,2.25 -1.24213,0 -2.2495,-1.0075 -2.2495,-2.25 0,-1.2425 1.00737,-2.25 2.2495,-2.25 1.24225,0 2.24925,1.0075 2.24925,2.25"
       sodipodi:nodetypes="csssc" />
    <path
       inkscape:connector-curvature="0"
       id="path4917"
       style="fill:none;stroke:#000000;stroke-width:0.5625;stroke-linecap:butt;stroke-linejoin:miter;stroke-miterlimit:10;stroke-opacity:1;stroke-dasharray:none"
       d="m 180.10652,609.09458 c 0,1.2425 -1.007,2.25 -2.24925,2.25 -1.24213,0 -2.2495,-1.0075 -2.2495,-2.25 0,-1.2425 1.00737,-2.25 2.2495,-2.25 1.24225,0 2.24925,1.0075 2.24925,2.25 z"
       sodipodi:nodetypes="sssss" />
    <path
       inkscape:connector-curvature="0"
       id="path4919"
       style="fill:#000000;fill-opacity:1;fill-rule:evenodd;stroke:none"
       d="m 510.10652,609.09458 c 0,1.2425 -1.0075,2.25 -2.24875,2.25 -1.2425,0 -2.25,-1.0075 -2.25,-2.25 0,-1.2425 1.0075,-2.25 2.25,-2.25 1.24125,0 2.24875,1.0075 2.24875,2.25"
       sodipodi:nodetypes="csssc" />
    <path
       inkscape:connector-curvature="0"
       id="path4921"
       style="fill:none;stroke:#000000;stroke-width:0.5625;stroke-linecap:butt;stroke-linejoin:miter;stroke-miterlimit:10;stroke-opacity:1;stroke-dasharray:none"
       d="m 510.10652,609.09458 c 0,1.2425 -1.0075,2.25 -2.24875,2.25 -1.2425,0 -2.25,-1.0075 -2.25,-2.25 0,-1.2425 1.0075,-2.25 2.25,-2.25 1.24125,0 2.24875,1.0075 2.24875,2.25 z"
       sodipodi:nodetypes="sssss" />
    <path
       inkscape:connector-curvature="0"
       id="path4923"
       style="fill:#000000;fill-opacity:1;fill-rule:evenodd;stroke:none"
       d="m 480.10652,609.09458 c 0,1.2425 -1.0075,2.25 -2.24875,2.25 -1.2425,0 -2.25,-1.0075 -2.25,-2.25 0,-1.2425 1.0075,-2.25 2.25,-2.25 1.24125,0 2.24875,1.0075 2.24875,2.25"
       sodipodi:nodetypes="csssc" />
    <path
       inkscape:connector-curvature="0"
       id="path4925"
       style="fill:none;stroke:#000000;stroke-width:0.5625;stroke-linecap:butt;stroke-linejoin:miter;stroke-miterlimit:10;stroke-opacity:1;stroke-dasharray:none"
       d="m 480.10652,609.09458 c 0,1.2425 -1.0075,2.25 -2.24875,2.25 -1.2425,0 -2.25,-1.0075 -2.25,-2.25 0,-1.2425 1.0075,-2.25 2.25,-2.25 1.24125,0 2.24875,1.0075 2.24875,2.25 z"
       sodipodi:nodetypes="sssss" />
    <path
       inkscape:connector-curvature="0"
       id="path4927"
       style="fill:#000000;fill-opacity:1;fill-rule:evenodd;stroke:none"
       d="m 450.10652,609.09458 c 0,1.2425 -1.0075,2.25 -2.24875,2.25 -1.2425,0 -2.25,-1.0075 -2.25,-2.25 0,-1.2425 1.0075,-2.25 2.25,-2.25 1.24125,0 2.24875,1.0075 2.24875,2.25"
       sodipodi:nodetypes="csssc" />
    <path
       inkscape:connector-curvature="0"
       id="path4929"
       style="fill:none;stroke:#000000;stroke-width:0.5625;stroke-linecap:butt;stroke-linejoin:miter;stroke-miterlimit:10;stroke-opacity:1;stroke-dasharray:none"
       d="m 450.10652,609.09458 c 0,1.2425 -1.0075,2.25 -2.24875,2.25 -1.2425,0 -2.25,-1.0075 -2.25,-2.25 0,-1.2425 1.0075,-2.25 2.25,-2.25 1.24125,0 2.24875,1.0075 2.24875,2.25 z"
       sodipodi:nodetypes="sssss" />
    <path
       inkscape:connector-curvature="0"
       id="path4931"
       style="fill:#000000;fill-opacity:1;fill-rule:evenodd;stroke:none"
       d="m 420.10652,609.09458 c 0,1.2425 -1.0075,2.25 -2.24875,2.25 -1.2425,0 -2.25,-1.0075 -2.25,-2.25 0,-1.2425 1.0075,-2.25 2.25,-2.25 1.24125,0 2.24875,1.0075 2.24875,2.25"
       sodipodi:nodetypes="csssc" />
    <path
       inkscape:connector-curvature="0"
       id="path4933"
       style="fill:none;stroke:#000000;stroke-width:0.5625;stroke-linecap:butt;stroke-linejoin:miter;stroke-miterlimit:10;stroke-opacity:1;stroke-dasharray:none"
       d="m 420.10652,609.09458 c 0,1.2425 -1.0075,2.25 -2.24875,2.25 -1.2425,0 -2.25,-1.0075 -2.25,-2.25 0,-1.2425 1.0075,-2.25 2.25,-2.25 1.24125,0 2.24875,1.0075 2.24875,2.25 z"
       sodipodi:nodetypes="sssss" />
    <path
       inkscape:connector-curvature="0"
       id="path4967"
       style="fill:#000000;fill-opacity:1;fill-rule:evenodd;stroke:none"
       d="m 510.10652,639.09458 c 0,1.24225 -1.0075,2.2495 -2.24875,2.2495 -1.2425,0 -2.25,-1.00725 -2.25,-2.2495 0,-1.24225 1.0075,-2.2495 2.25,-2.2495 1.24125,0 2.24875,1.00725 2.24875,2.2495"
       sodipodi:nodetypes="csssc" />
    <path
       inkscape:connector-curvature="0"
       id="path4969"
       style="fill:none;stroke:#000000;stroke-width:0.5625;stroke-linecap:butt;stroke-linejoin:miter;stroke-miterlimit:10;stroke-opacity:1;stroke-dasharray:none"
       d="m 510.10652,639.09458 c 0,1.24225 -1.0075,2.2495 -2.24875,2.2495 -1.2425,0 -2.25,-1.00725 -2.25,-2.2495 0,-1.24225 1.0075,-2.2495 2.25,-2.2495 1.24125,0 2.24875,1.00725 2.24875,2.2495 z"
       sodipodi:nodetypes="sssss" />
    <path
       inkscape:connector-curvature="0"
       id="path4971"
       style="fill:#000000;fill-opacity:1;fill-rule:evenodd;stroke:none"
       d="m 480.10652,639.09458 c 0,1.24225 -1.0075,2.2495 -2.24875,2.2495 -1.2425,0 -2.25,-1.00725 -2.25,-2.2495 0,-1.24225 1.0075,-2.2495 2.25,-2.2495 1.24125,0 2.24875,1.00725 2.24875,2.2495"
       sodipodi:nodetypes="csssc" />
    <path
       inkscape:connector-curvature="0"
       id="path4973"
       style="fill:none;stroke:#000000;stroke-width:0.5625;stroke-linecap:butt;stroke-linejoin:miter;stroke-miterlimit:10;stroke-opacity:1;stroke-dasharray:none"
       d="m 480.10652,639.09458 c 0,1.24225 -1.0075,2.2495 -2.24875,2.2495 -1.2425,0 -2.25,-1.00725 -2.25,-2.2495 0,-1.24225 1.0075,-2.2495 2.25,-2.2495 1.24125,0 2.24875,1.00725 2.24875,2.2495 z"
       sodipodi:nodetypes="sssss" />
    <path
       inkscape:connector-curvature="0"
       id="path4975"
       style="fill:#000000;fill-opacity:1;fill-rule:evenodd;stroke:none"
       d="m 450.10652,639.09458 c 0,1.24225 -1.0075,2.2495 -2.24875,2.2495 -1.2425,0 -2.25,-1.00725 -2.25,-2.2495 0,-1.24225 1.0075,-2.2495 2.25,-2.2495 1.24125,0 2.24875,1.00725 2.24875,2.2495"
       sodipodi:nodetypes="csssc" />
    <path
       inkscape:connector-curvature="0"
       id="path4977"
       style="fill:none;stroke:#000000;stroke-width:0.5625;stroke-linecap:butt;stroke-linejoin:miter;stroke-miterlimit:10;stroke-opacity:1;stroke-dasharray:none"
       d="m 450.10652,639.09458 c 0,1.24225 -1.0075,2.2495 -2.24875,2.2495 -1.2425,0 -2.25,-1.00725 -2.25,-2.2495 0,-1.24225 1.0075,-2.2495 2.25,-2.2495 1.24125,0 2.24875,1.00725 2.24875,2.2495 z"
       sodipodi:nodetypes="sssss" />
    <path
       inkscape:connector-curvature="0"
       id="path4979"
       style="fill:#000000;fill-opacity:1;fill-rule:evenodd;stroke:none"
       d="m 420.10652,639.09458 c 0,1.24225 -1.0075,2.2495 -2.24875,2.2495 -1.2425,0 -2.25,-1.00725 -2.25,-2.2495 0,-1.24225 1.0075,-2.2495 2.25,-2.2495 1.24125,0 2.24875,1.00725 2.24875,2.2495"
       sodipodi:nodetypes="csssc" />
    <path
       inkscape:connector-curvature="0"
       id="path4981"
       style="fill:none;stroke:#000000;stroke-width:0.5625;stroke-linecap:butt;stroke-linejoin:miter;stroke-miterlimit:10;stroke-opacity:1;stroke-dasharray:none"
       d="m 420.10652,639.09458 c 0,1.24225 -1.0075,2.2495 -2.24875,2.2495 -1.2425,0 -2.25,-1.00725 -2.25,-2.2495 0,-1.24225 1.0075,-2.2495 2.25,-2.2495 1.24125,0 2.24875,1.00725 2.24875,2.2495 z"
       sodipodi:nodetypes="sssss" />
    <path
       inkscape:connector-curvature="0"
       id="path4983"
       style="fill:#000000;fill-opacity:1;fill-rule:evenodd;stroke:none"
       d="m 390.10652,639.09458 c 0,1.24225 -1.0075,2.2495 -2.24875,2.2495 -1.2425,0 -2.25,-1.00725 -2.25,-2.2495 0,-1.24225 1.0075,-2.2495 2.25,-2.2495 1.24125,0 2.24875,1.00725 2.24875,2.2495"
       sodipodi:nodetypes="csssc" />
    <path
       inkscape:connector-curvature="0"
       id="path4985"
       style="fill:none;stroke:#000000;stroke-width:0.5625;stroke-linecap:butt;stroke-linejoin:miter;stroke-miterlimit:10;stroke-opacity:1;stroke-dasharray:none"
       d="m 390.10652,639.09458 c 0,1.24225 -1.0075,2.2495 -2.24875,2.2495 -1.2425,0 -2.25,-1.00725 -2.25,-2.2495 0,-1.24225 1.0075,-2.2495 2.25,-2.2495 1.24125,0 2.24875,1.00725 2.24875,2.2495 z"
       sodipodi:nodetypes="sssss" />
    <path
       inkscape:connector-curvature="0"
       id="path4987"
       style="fill:#000000;fill-opacity:1;fill-rule:evenodd;stroke:none"
       d="m 360.10652,639.09458 c 0,1.24225 -1.0075,2.2495 -2.24875,2.2495 -1.2425,0 -2.25,-1.00725 -2.25,-2.2495 0,-1.24225 1.0075,-2.2495 2.25,-2.2495 1.24125,0 2.24875,1.00725 2.24875,2.2495"
       sodipodi:nodetypes="csssc" />
    <path
       inkscape:connector-curvature="0"
       id="path4989"
       style="fill:none;stroke:#000000;stroke-width:0.5625;stroke-linecap:butt;stroke-linejoin:miter;stroke-miterlimit:10;stroke-opacity:1;stroke-dasharray:none"
       d="m 360.10652,639.09458 c 0,1.24225 -1.0075,2.2495 -2.24875,2.2495 -1.2425,0 -2.25,-1.00725 -2.25,-2.2495 0,-1.24225 1.0075,-2.2495 2.25,-2.2495 1.24125,0 2.24875,1.00725 2.24875,2.2495 z"
       sodipodi:nodetypes="sssss" />
    <path
       inkscape:connector-curvature="0"
       id="path4991"
       style="fill:#000000;fill-opacity:1;fill-rule:evenodd;stroke:none"
       d="m 330.10652,639.09458 c 0,1.24225 -1.0075,2.2495 -2.24875,2.2495 -1.2425,0 -2.25,-1.00725 -2.25,-2.2495 0,-1.24225 1.0075,-2.2495 2.25,-2.2495 1.24125,0 2.24875,1.00725 2.24875,2.2495"
       sodipodi:nodetypes="csssc" />
    <path
       inkscape:connector-curvature="0"
       id="path4993"
       style="fill:none;stroke:#000000;stroke-width:0.5625;stroke-linecap:butt;stroke-linejoin:miter;stroke-miterlimit:10;stroke-opacity:1;stroke-dasharray:none"
       d="m 330.10652,639.09458 c 0,1.24225 -1.0075,2.2495 -2.24875,2.2495 -1.2425,0 -2.25,-1.00725 -2.25,-2.2495 0,-1.24225 1.0075,-2.2495 2.25,-2.2495 1.24125,0 2.24875,1.00725 2.24875,2.2495 z"
       sodipodi:nodetypes="sssss" />
    <path
       inkscape:connector-curvature="0"
       id="path4995"
       style="fill:#000000;fill-opacity:1;fill-rule:evenodd;stroke:none"
       d="m 300.10652,639.09458 c 0,1.24225 -1.0075,2.2495 -2.24875,2.2495 -1.2425,0 -2.25,-1.00725 -2.25,-2.2495 0,-1.24225 1.0075,-2.2495 2.25,-2.2495 1.24125,0 2.24875,1.00725 2.24875,2.2495"
       sodipodi:nodetypes="csssc" />
    <path
       inkscape:connector-curvature="0"
       id="path4997"
       style="fill:none;stroke:#000000;stroke-width:0.5625;stroke-linecap:butt;stroke-linejoin:miter;stroke-miterlimit:10;stroke-opacity:1;stroke-dasharray:none"
       d="m 300.10652,639.09458 c 0,1.24225 -1.0075,2.2495 -2.24875,2.2495 -1.2425,0 -2.25,-1.00725 -2.25,-2.2495 0,-1.24225 1.0075,-2.2495 2.25,-2.2495 1.24125,0 2.24875,1.00725 2.24875,2.2495 z"
       sodipodi:nodetypes="sssss" />
    <path
       inkscape:connector-curvature="0"
       id="path5219"
       style="fill:none;stroke:#000000;stroke-width:0.5625;stroke-linecap:butt;stroke-linejoin:miter;stroke-miterlimit:10;stroke-opacity:1;stroke-dasharray:none"
       d="m 57.85728,519.09458 29.999988,30"
       sodipodi:nodetypes="cc" />
    <path
       inkscape:connector-curvature="0"
       id="path5221"
       style="fill:none;stroke:#000000;stroke-width:0.5625;stroke-linecap:butt;stroke-linejoin:miter;stroke-miterlimit:10;stroke-opacity:1;stroke-dasharray:none"
       d="m 117.85727,519.09458 30,30"
       sodipodi:nodetypes="cc" />
    <path
       inkscape:connector-curvature="0"
       id="path5223"
       style="fill:none;stroke:#000000;stroke-width:0.5625;stroke-linecap:butt;stroke-linejoin:miter;stroke-miterlimit:10;stroke-opacity:1;stroke-dasharray:none"
       d="m 177.85727,519.09458 30.0005,30"
       sodipodi:nodetypes="cc" />
    <path
       inkscape:connector-curvature="0"
       id="path5225"
       style="fill:none;stroke:#000000;stroke-width:0.5625;stroke-linecap:butt;stroke-linejoin:miter;stroke-miterlimit:10;stroke-opacity:1;stroke-dasharray:none"
       d="m 237.85777,519.09458 30,30"
       sodipodi:nodetypes="cc" />
    <path
       inkscape:connector-curvature="0"
       id="path5227"
       style="fill:none;stroke:#000000;stroke-width:0.5625;stroke-linecap:butt;stroke-linejoin:miter;stroke-miterlimit:10;stroke-opacity:1;stroke-dasharray:none"
       d="m 297.85777,519.09458 30,30"
       sodipodi:nodetypes="cc" />
    <path
       inkscape:connector-curvature="0"
       id="path5229"
       style="fill:none;stroke:#000000;stroke-width:0.5625;stroke-linecap:butt;stroke-linejoin:miter;stroke-miterlimit:10;stroke-opacity:1;stroke-dasharray:none"
       d="m 357.85777,519.09458 30,30"
       sodipodi:nodetypes="cc" />
    <path
       inkscape:connector-curvature="0"
       id="path5231"
       style="fill:none;stroke:#000000;stroke-width:0.5625;stroke-linecap:butt;stroke-linejoin:miter;stroke-miterlimit:10;stroke-opacity:1;stroke-dasharray:none"
       d="m 417.85777,519.09458 30,30"
       sodipodi:nodetypes="cc" />
    <path
       inkscape:connector-curvature="0"
       id="path5233"
       style="fill:none;stroke:#000000;stroke-width:0.5625;stroke-linecap:butt;stroke-linejoin:miter;stroke-miterlimit:10;stroke-opacity:1;stroke-dasharray:none"
       d="m 477.85777,519.09458 30,30"
       sodipodi:nodetypes="cc" />
    <path
       inkscape:connector-curvature="0"
       id="path5251"
       style="fill:none;stroke:#000000;stroke-width:0.5625;stroke-linecap:butt;stroke-linejoin:miter;stroke-miterlimit:10;stroke-opacity:1;stroke-dasharray:none"
       d="m 87.857268,549.09458 60.000002,30"
       sodipodi:nodetypes="cc" />
    <path
       inkscape:connector-curvature="0"
       id="path5253"
       style="fill:none;stroke:#000000;stroke-width:0.5625;stroke-linecap:butt;stroke-linejoin:miter;stroke-miterlimit:10;stroke-opacity:1;stroke-dasharray:none"
       d="m 87.857268,549.09458 30.000002,30"
       sodipodi:nodetypes="cc" />
    <path
       inkscape:connector-curvature="0"
       id="path5255"
       style="fill:none;stroke:#000000;stroke-width:0.5625;stroke-linecap:butt;stroke-linejoin:miter;stroke-miterlimit:10;stroke-opacity:1;stroke-dasharray:none"
       d="m 207.85777,549.09458 60,30"
       sodipodi:nodetypes="cc" />
    <path
       inkscape:connector-curvature="0"
       id="path5257"
       style="fill:none;stroke:#000000;stroke-width:0.5625;stroke-linecap:butt;stroke-linejoin:miter;stroke-miterlimit:10;stroke-opacity:1;stroke-dasharray:none"
       d="m 207.85777,549.09458 30,30"
       sodipodi:nodetypes="cc" />
    <path
       inkscape:connector-curvature="0"
       id="path5259"
       style="fill:none;stroke:#000000;stroke-width:0.5625;stroke-linecap:butt;stroke-linejoin:miter;stroke-miterlimit:10;stroke-opacity:1;stroke-dasharray:none"
       d="m 327.85777,549.09458 60,30"
       sodipodi:nodetypes="cc" />
    <path
       inkscape:connector-curvature="0"
       id="path5261"
       style="fill:none;stroke:#000000;stroke-width:0.5625;stroke-linecap:butt;stroke-linejoin:miter;stroke-miterlimit:10;stroke-opacity:1;stroke-dasharray:none"
       d="m 327.85777,549.09458 30,30"
       sodipodi:nodetypes="cc" />
    <path
       inkscape:connector-curvature="0"
       id="path5263"
       style="fill:none;stroke:#000000;stroke-width:0.5625;stroke-linecap:butt;stroke-linejoin:miter;stroke-miterlimit:10;stroke-opacity:1;stroke-dasharray:none"
       d="m 447.85777,549.09458 60,30"
       sodipodi:nodetypes="cc" />
    <path
       inkscape:connector-curvature="0"
       id="path5265"
       style="fill:none;stroke:#000000;stroke-width:0.5625;stroke-linecap:butt;stroke-linejoin:miter;stroke-miterlimit:10;stroke-opacity:1;stroke-dasharray:none"
       d="m 447.85777,549.09458 30,30"
       sodipodi:nodetypes="cc" />
    <path
       inkscape:connector-curvature="0"
       id="path5283"
       style="fill:none;stroke:#000000;stroke-width:0.5625;stroke-linecap:butt;stroke-linejoin:miter;stroke-miterlimit:10;stroke-opacity:1;stroke-dasharray:none"
       d="m 147.85727,579.09458 120.0005,30"
       sodipodi:nodetypes="cc" />
    <path
       inkscape:connector-curvature="0"
       id="path5285"
       style="fill:none;stroke:#000000;stroke-width:0.5625;stroke-linecap:butt;stroke-linejoin:miter;stroke-miterlimit:10;stroke-opacity:1;stroke-dasharray:none"
       d="m 147.85727,579.09458 90.0005,30"
       sodipodi:nodetypes="cc" />
    <path
       inkscape:connector-curvature="0"
       id="path5287"
       style="fill:none;stroke:#000000;stroke-width:0.5625;stroke-linecap:butt;stroke-linejoin:miter;stroke-miterlimit:10;stroke-opacity:1;stroke-dasharray:none"
       d="m 147.85727,579.09458 60.0005,30"
       sodipodi:nodetypes="cc" />
    <path
       inkscape:connector-curvature="0"
       id="path5289"
       style="fill:none;stroke:#000000;stroke-width:0.5625;stroke-linecap:butt;stroke-linejoin:miter;stroke-miterlimit:10;stroke-opacity:1;stroke-dasharray:none"
       d="m 147.85727,579.09458 30,30"
       sodipodi:nodetypes="cc" />
    <path
       inkscape:connector-curvature="0"
       id="path5291"
       style="fill:none;stroke:#000000;stroke-width:0.5625;stroke-linecap:butt;stroke-linejoin:miter;stroke-miterlimit:10;stroke-opacity:1;stroke-dasharray:none"
       d="m 387.85777,579.09458 120,30"
       sodipodi:nodetypes="cc" />
    <path
       inkscape:connector-curvature="0"
       id="path5293"
       style="fill:none;stroke:#000000;stroke-width:0.5625;stroke-linecap:butt;stroke-linejoin:miter;stroke-miterlimit:10;stroke-opacity:1;stroke-dasharray:none"
       d="m 387.85777,579.09458 90,30"
       sodipodi:nodetypes="cc" />
    <path
       inkscape:connector-curvature="0"
       id="path5295"
       style="fill:none;stroke:#000000;stroke-width:0.5625;stroke-linecap:butt;stroke-linejoin:miter;stroke-miterlimit:10;stroke-opacity:1;stroke-dasharray:none"
       d="m 387.85777,579.09458 60,30"
       sodipodi:nodetypes="cc" />
    <path
       inkscape:connector-curvature="0"
       id="path5297"
       style="fill:none;stroke:#000000;stroke-width:0.5625;stroke-linecap:butt;stroke-linejoin:miter;stroke-miterlimit:10;stroke-opacity:1;stroke-dasharray:none"
       d="m 387.85777,579.09458 30,30"
       sodipodi:nodetypes="cc" />
    <path
       inkscape:connector-curvature="0"
       id="path5315"
       style="fill:none;stroke:#000000;stroke-width:0.5625;stroke-linecap:butt;stroke-linejoin:miter;stroke-miterlimit:10;stroke-opacity:1;stroke-dasharray:none"
       d="m 267.85777,609.09458 240,29.9995"
       sodipodi:nodetypes="cc" />
    <path
       inkscape:connector-curvature="0"
       id="path5317"
       style="fill:none;stroke:#000000;stroke-width:0.5625;stroke-linecap:butt;stroke-linejoin:miter;stroke-miterlimit:10;stroke-opacity:1;stroke-dasharray:none"
       d="m 267.85777,609.09458 210,29.9995"
       sodipodi:nodetypes="cc" />
    <path
       inkscape:connector-curvature="0"
       id="path5319"
       style="fill:none;stroke:#000000;stroke-width:0.5625;stroke-linecap:butt;stroke-linejoin:miter;stroke-miterlimit:10;stroke-opacity:1;stroke-dasharray:none"
       d="m 267.85777,609.09458 180,29.9995"
       sodipodi:nodetypes="cc" />
    <path
       inkscape:connector-curvature="0"
       id="path5321"
       style="fill:none;stroke:#000000;stroke-width:0.5625;stroke-linecap:butt;stroke-linejoin:miter;stroke-miterlimit:10;stroke-opacity:1;stroke-dasharray:none"
       d="m 267.85777,609.09458 150,29.9995"
       sodipodi:nodetypes="cc" />
    <path
       inkscape:connector-curvature="0"
       id="path5323"
       style="fill:none;stroke:#000000;stroke-width:0.5625;stroke-linecap:butt;stroke-linejoin:miter;stroke-miterlimit:10;stroke-opacity:1;stroke-dasharray:none"
       d="m 267.85777,609.09458 120,29.9995"
       sodipodi:nodetypes="cc" />
    <path
       inkscape:connector-curvature="0"
       id="path5325"
       style="fill:none;stroke:#000000;stroke-width:0.5625;stroke-linecap:butt;stroke-linejoin:miter;stroke-miterlimit:10;stroke-opacity:1;stroke-dasharray:none"
       d="m 267.85777,609.09458 90,29.9995"
       sodipodi:nodetypes="cc" />
    <path
       inkscape:connector-curvature="0"
       id="path5327"
       style="fill:none;stroke:#000000;stroke-width:0.5625;stroke-linecap:butt;stroke-linejoin:miter;stroke-miterlimit:10;stroke-opacity:1;stroke-dasharray:none"
       d="m 267.85777,609.09458 60,29.9995"
       sodipodi:nodetypes="cc" />
    <path
       inkscape:connector-curvature="0"
       id="path5329"
       style="fill:none;stroke:#000000;stroke-width:0.5625;stroke-linecap:butt;stroke-linejoin:miter;stroke-miterlimit:10;stroke-opacity:1;stroke-dasharray:none"
       d="m 267.85777,609.09458 30,29.9995"
       sodipodi:nodetypes="cc" />
    <path
       inkscape:connector-curvature="0"
       id="path5379"
       style="fill:none;stroke:#000000;stroke-width:0.5625;stroke-linecap:butt;stroke-linejoin:miter;stroke-miterlimit:10;stroke-opacity:1;stroke-dasharray:none"
       d="m 57.85728,519.09458 0,134.34945"
       sodipodi:nodetypes="cc" />
    <path
       inkscape:connector-curvature="0"
       id="path5381"
       style="fill:none;stroke:#000000;stroke-width:0.5625;stroke-linecap:butt;stroke-linejoin:miter;stroke-miterlimit:10;stroke-opacity:1;stroke-dasharray:none"
       d="m 87.857268,519.09458 0,134.34945"
       sodipodi:nodetypes="cc" />
    <path
       inkscape:connector-curvature="0"
       id="path5383"
       style="fill:none;stroke:#000000;stroke-width:0.5625;stroke-linecap:butt;stroke-linejoin:miter;stroke-miterlimit:10;stroke-opacity:1;stroke-dasharray:none"
       d="m 117.85727,519.09458 0,134.34945"
       sodipodi:nodetypes="cc" />
    <path
       inkscape:connector-curvature="0"
       id="path5385"
       style="fill:none;stroke:#000000;stroke-width:0.5625;stroke-linecap:butt;stroke-linejoin:miter;stroke-miterlimit:10;stroke-opacity:1;stroke-dasharray:none"
       d="m 147.85727,519.09458 0,134.34945"
       sodipodi:nodetypes="cc" />
    <path
       inkscape:connector-curvature="0"
       id="path5387"
       style="fill:none;stroke:#000000;stroke-width:0.5625;stroke-linecap:butt;stroke-linejoin:miter;stroke-miterlimit:10;stroke-opacity:1;stroke-dasharray:none"
       d="m 177.85727,519.09458 0,134.34945"
       sodipodi:nodetypes="cc" />
    <path
       inkscape:connector-curvature="0"
       id="path5389"
       style="fill:none;stroke:#000000;stroke-width:0.5625;stroke-linecap:butt;stroke-linejoin:miter;stroke-miterlimit:10;stroke-opacity:1;stroke-dasharray:none"
       d="m 207.85777,519.09458 0,134.34945"
       sodipodi:nodetypes="cc" />
    <path
       inkscape:connector-curvature="0"
       id="path5391"
       style="fill:none;stroke:#000000;stroke-width:0.5625;stroke-linecap:butt;stroke-linejoin:miter;stroke-miterlimit:10;stroke-opacity:1;stroke-dasharray:none"
       d="m 237.85777,519.09458 0,134.34945"
       sodipodi:nodetypes="cc" />
    <path
       inkscape:connector-curvature="0"
       id="path5393"
       style="fill:none;stroke:#000000;stroke-width:0.5625;stroke-linecap:butt;stroke-linejoin:miter;stroke-miterlimit:10;stroke-opacity:1;stroke-dasharray:none"
       d="m 267.85777,519.09458 0,134.34945"
       sodipodi:nodetypes="cc" />
    <path
       inkscape:connector-curvature="0"
       id="path5395"
       style="fill:none;stroke:#000000;stroke-width:0.5625;stroke-linecap:butt;stroke-linejoin:miter;stroke-miterlimit:10;stroke-opacity:1;stroke-dasharray:none"
       d="m 297.85777,519.09458 0,134.34945"
       sodipodi:nodetypes="cc" />
    <path
       inkscape:connector-curvature="0"
       id="path5397"
       style="fill:none;stroke:#000000;stroke-width:0.5625;stroke-linecap:butt;stroke-linejoin:miter;stroke-miterlimit:10;stroke-opacity:1;stroke-dasharray:none"
       d="m 327.85777,519.09458 0,134.34945"
       sodipodi:nodetypes="cc" />
    <path
       inkscape:connector-curvature="0"
       id="path5399"
       style="fill:none;stroke:#000000;stroke-width:0.5625;stroke-linecap:butt;stroke-linejoin:miter;stroke-miterlimit:10;stroke-opacity:1;stroke-dasharray:none"
       d="m 357.85777,519.09458 0,134.34945"
       sodipodi:nodetypes="cc" />
    <path
       inkscape:connector-curvature="0"
       id="path5401"
       style="fill:none;stroke:#000000;stroke-width:0.5625;stroke-linecap:butt;stroke-linejoin:miter;stroke-miterlimit:10;stroke-opacity:1;stroke-dasharray:none"
       d="m 387.85777,519.09458 0,134.34945"
       sodipodi:nodetypes="cc" />
    <path
       inkscape:connector-curvature="0"
       id="path5403"
       style="fill:none;stroke:#000000;stroke-width:0.5625;stroke-linecap:butt;stroke-linejoin:miter;stroke-miterlimit:10;stroke-opacity:1;stroke-dasharray:none"
       d="m 417.85777,519.09458 0,134.34945"
       sodipodi:nodetypes="cc" />
    <path
       inkscape:connector-curvature="0"
       id="path5405"
       style="fill:none;stroke:#000000;stroke-width:0.5625;stroke-linecap:butt;stroke-linejoin:miter;stroke-miterlimit:10;stroke-opacity:1;stroke-dasharray:none"
       d="m 447.85777,519.09458 0,134.34945"
       sodipodi:nodetypes="cc" />
    <path
       inkscape:connector-curvature="0"
       id="path5407"
       style="fill:none;stroke:#000000;stroke-width:0.5625;stroke-linecap:butt;stroke-linejoin:miter;stroke-miterlimit:10;stroke-opacity:1;stroke-dasharray:none"
       d="m 477.85777,519.09458 0,134.34945"
       sodipodi:nodetypes="cc" />
    <path
       inkscape:connector-curvature="0"
       id="path5409"
       style="fill:none;stroke:#000000;stroke-width:0.5625;stroke-linecap:butt;stroke-linejoin:miter;stroke-miterlimit:10;stroke-opacity:1;stroke-dasharray:none"
       d="m 507.85777,519.09458 0,134.34945"
       sodipodi:nodetypes="cc" />
  </g>
</svg>
