<?xml version="1.0" encoding="UTF-8" standalone="no"?>
<!-- Created with Inkscape (http://www.inkscape.org/) -->

<svg
   xmlns:dc="http://purl.org/dc/elements/1.1/"
   xmlns:cc="http://creativecommons.org/ns#"
   xmlns:rdf="http://www.w3.org/1999/02/22-rdf-syntax-ns#"
   xmlns:svg="http://www.w3.org/2000/svg"
   xmlns="http://www.w3.org/2000/svg"
   xmlns:sodipodi="http://sodipodi.sourceforge.net/DTD/sodipodi-0.dtd"
   xmlns:inkscape="http://www.inkscape.org/namespaces/inkscape"
   width="292.3833"
   height="481.64191"
   id="svg2"
   version="1.1"
   inkscape:version="0.47 r22583"
   sodipodi:docname="dibujo.svg">
  <defs
     id="defs4">
    <inkscape:perspective
       sodipodi:type="inkscape:persp3d"
       inkscape:vp_x="0 : 526.18109 : 1"
       inkscape:vp_y="0 : 1000 : 0"
       inkscape:vp_z="744.09448 : 526.18109 : 1"
       inkscape:persp3d-origin="372.04724 : 350.78739 : 1"
       id="perspective2876" />
  </defs>
  <sodipodi:namedview
     id="base"
     pagecolor="#ffffff"
     bordercolor="#666666"
     borderopacity="1.0"
     inkscape:pageopacity="0.0"
     inkscape:pageshadow="2"
     inkscape:zoom="0.04375"
     inkscape:cx="-673.93529"
     inkscape:cy="1584.0212"
     inkscape:document-units="px"
     inkscape:current-layer="layer1"
     showgrid="false"
     inkscape:window-width="613"
     inkscape:window-height="504"
     inkscape:window-x="53"
     inkscape:window-y="24"
     inkscape:window-maximized="0" />
  <metadata
     id="metadata7">
    <rdf:RDF>
      <cc:Work
         rdf:about="">
        <dc:format>image/svg+xml</dc:format>
        <dc:type
           rdf:resource="http://purl.org/dc/dcmitype/StillImage" />
        <dc:title />
      </cc:Work>
    </rdf:RDF>
  </metadata>
  <g
     inkscape:label="Capa 1"
     inkscape:groupmode="layer"
     id="layer1"
     transform="translate(-267.47388,-319.72032)">
    <path
       inkscape:connector-curvature="0"
       id="path3056"
       d="m 268.47527,800.44329 c -1.13038,-1.17986 -1.12756,-1.62544 0.0773,-12.18701 0.60956,-5.34366 1.30794,-9.77213 1.93764,-12.28678 1.1645,-4.65043 2.65641,-12.11585 3.83048,-19.16743 0.46503,-2.79321 1.20616,-6.89665 1.64695,-9.1187 0.44076,-2.22212 0.80139,-4.81948 0.80139,-5.77204 0,-2.69465 1.9064,-15.32491 2.94517,-19.51236 1.11338,-4.48815 2.62417,-12.06495 3.75658,-18.83978 0.45183,-2.70305 1.26666,-7.16425 1.81079,-9.91377 0.54409,-2.74944 0.99362,-5.91947 0.99893,-7.04445 0.005,-1.12491 0.43646,-6.24743 0.95801,-11.38331 0.74809,-7.36617 1.33838,-11.2752 2.7954,-18.51212 1.99616,-9.91453 3.76163,-21.41936 3.771,-24.57362 0.0111,-3.73158 1.92546,-17.07916 3.73693,-26.05501 1.6579,-8.21485 1.90229,-10.00775 2.79061,-20.47107 1.05273,-12.39996 1.39054,-14.06053 3.86589,-19.00364 0.54144,-1.08122 1.31914,-2.99798 1.72824,-4.25936 0.40911,-1.26145 1.22967,-3.32563 1.82346,-4.58708 1.57091,-3.33712 2.50141,-6.31258 4.55955,-14.58035 1.00936,-4.05466 3.10453,-11.20563 4.65595,-15.89097 2.60739,-7.87444 3.18534,-9.24998 7.64034,-18.18447 2.65077,-5.31611 5.23022,-10.91888 5.73211,-12.45064 1.15784,-3.53364 2.49224,-6.20824 3.69991,-7.41594 0.71746,-0.71747 1.40485,-2.32871 2.84817,-6.67627 1.04637,-3.15179 2.74484,-7.42608 3.77438,-9.49844 1.02955,-2.07245 2.65111,-6.12703 3.60348,-9.01038 1.91794,-5.80658 3.42434,-9.09002 4.72787,-10.30501 1.7142,-1.59774 4.74571,-8.67064 8.43286,-19.67479 3.76867,-11.24744 4.83201,-15.04237 6.51833,-23.263 0.57298,-2.79321 1.84836,-7.5025 2.83417,-10.46512 2.84371,-8.54604 3.53786,-12.59349 4.69543,-27.37831 0.55027,-7.02801 1.43589,-16.6603 1.96805,-21.40502 0.53217,-4.74472 0.96758,-10.06187 0.96758,-11.81597 0,-3.06644 0.0353,-3.22302 0.91896,-4.06959 0.77744,-0.74486 1.20634,-0.88043 2.78501,-0.88043 l 1.86605,0 0,-1.04534 c 0,-0.57491 0.40415,-2.2863 0.89811,-3.80311 l 0.8981,-2.75778 1.92006,-0.96922 c 1.05603,-0.53311 1.94825,-0.92277 1.98269,-0.86587 0.0344,0.0571 0.24492,0.82158 0.4677,1.69945 1.95275,7.69451 11.53382,16.09364 19.17195,16.8069 3.51914,0.32855 5.46033,-0.75042 5.46033,-3.03521 0,-1.44206 -0.67503,-3.2517 -3.01132,-8.07291 -1.11216,-2.295 -1.93188,-4.26296 -1.82163,-4.37322 0.11026,-0.11027 5.38179,2.91015 11.71452,6.71207 6.33273,3.80191 11.59035,6.91249 11.68361,6.91249 0.37132,0 1.40022,-1.51067 1.41046,-2.07087 0.006,-0.3281 -0.87824,-4.88531 -1.96498,-10.12718 -1.08673,-5.24179 -1.92959,-9.66944 -1.87303,-9.83916 0.124,-0.37202 2.6744,1.59346 6.52238,5.02643 1.56051,1.39222 3.10865,2.60908 3.44031,2.70411 0.33165,0.095 3.40441,0.77879 6.82833,1.51952 3.42392,0.74066 6.47286,1.42089 6.77542,1.51164 0.49545,0.14847 0.56056,-0.34012 0.6553,-4.91759 0.14541,-7.02569 -0.23695,-6.81889 6.5321,-3.53372 19.07965,9.25982 17.39144,8.18363 16.53942,10.54319 -0.38185,1.0575 -0.5565,1.16679 -2.48855,1.5578 -1.14282,0.23135 -2.14896,0.49167 -2.23585,0.5786 -0.0869,0.0868 0.02,1.42989 0.23743,2.98439 0.21748,1.55457 0.32582,2.89604 0.24079,2.98109 -0.085,0.0851 -7.62516,-0.0909 -16.75582,-0.39108 -9.13066,-0.30018 -16.66851,-0.47839 -16.75078,-0.39619 -0.0823,0.0823 -0.2318,0.65636 -0.3323,1.27564 -0.14813,0.91285 0.20206,1.9672 1.84956,5.56877 l 2.03229,4.44281 2.01432,0.19059 c 1.10787,0.10486 7.72878,0.52109 14.71311,0.92501 6.98434,0.40392 12.84248,0.82323 13.0181,0.93177 0.17563,0.10854 0.48141,1.36984 0.67952,2.80281 0.19811,1.43305 0.7845,4.44852 1.3031,6.70111 1.3384,5.81356 1.94982,9.90102 1.95134,13.04515 l 0.001,2.72422 -2.39029,2.3543 c -1.31466,1.29493 -3.85803,3.46008 -5.65194,4.81153 -3.11748,2.34853 -11.63619,8.16065 -14.40167,9.82587 -0.72083,0.4341 -2.26897,1.36504 -3.44031,2.06892 -7.41617,4.45624 -14.8202,8.00129 -19.62653,9.39703 l -3.08029,0.89461 -1.60374,6.02651 c -2.07983,7.81551 -6.83214,21.97979 -9.60721,28.63421 -4.46848,10.71523 -5.11339,12.40867 -6.39625,16.79579 -1.51267,5.17295 -6.86732,31.04218 -6.86732,33.17715 0,1.10456 -0.1996,1.64037 -0.87293,2.34312 -1.22203,1.27556 -2.73121,5.79561 -2.73121,8.18017 0,1.40865 -0.23164,2.37863 -0.88737,3.71559 -0.48805,0.99512 -0.97184,1.80934 -1.07508,1.80934 -0.10323,0 -0.62151,-1.98116 -1.15173,-4.40257 -0.7141,-3.26123 -1.06383,-4.31986 -1.3489,-4.08326 -0.21167,0.17573 -1.43528,2.73436 -2.71914,5.68602 -5.43342,12.49147 -12.19999,32.00533 -13.12762,37.85822 -0.3411,2.15208 -0.24987,4.20651 0.73437,16.53869 l 1.12385,14.08133 -1.15464,1.80498 c -1.55369,2.42885 -4.49881,8.67477 -5.6307,11.94148 -2.87884,8.30853 -4.55972,17.11121 -5.91807,30.99257 -0.23074,2.35805 -0.46164,18.0513 -0.61706,41.93899 -0.1805,27.74101 -0.39982,41.37 -0.80266,49.87836 l -0.5543,11.70727 2.39374,4.63168 2.39374,4.63159 0.0971,8.42841 c 0.0744,6.45205 -0.0156,8.96917 -0.38376,10.73475 -1.14422,5.4877 -3.93386,10.1789 -12.01033,20.19724 -5.61465,6.96458 -8.06002,10.46422 -9.64651,13.80554 -1.14391,2.40925 -2.13868,5.92652 -2.13868,7.56202 0,0.79838 -0.67248,1.63782 -3.85479,4.81182 l -3.85479,3.84478 -33.76345,0 -33.76346,0 -0.88043,-0.91893 z m 113.43248,0.6743 c -0.02,-0.13579 -0.0113,-1.27894 0.0194,-2.54039 0.0871,-3.59016 0.84202,-8.06548 2.32115,-13.76118 1.31639,-5.06907 1.3544,-5.35897 1.14912,-8.76725 -0.86176,-14.30764 -7.98283,-35.57844 -16.93416,-50.58261 -1.32457,-2.22024 -1.58994,-2.93335 -1.5851,-4.25943 0.008,-1.96787 1.88355,-28.34145 2.02303,-28.43528 0.0555,-0.0375 1.24354,-0.5572 2.64014,-1.15531 2.03366,-0.87097 2.53761,-1.22549 2.53094,-1.78044 -0.005,-0.38118 0.45613,-11.75112 1.02382,-25.26661 l 1.03217,-24.57362 0.94206,-0.99857 c 0.81078,-0.85941 0.94206,-1.2589 0.94206,-2.86692 0,-1.85754 0.006,-1.86835 0.98294,-1.86835 0.96913,0 0.98295,-0.0248 0.98295,-1.74501 0,-1.45736 0.14046,-1.87585 0.85228,-2.53926 0.46876,-0.43687 1.33849,-1.75267 1.93273,-2.92404 0.59425,-1.1713 1.47925,-2.49828 1.96666,-2.94882 0.48741,-0.45053 1.70013,-2.441 2.69493,-4.42322 0.99479,-1.98229 2.29785,-4.14796 2.89569,-4.8125 0.59784,-0.66461 1.46161,-2.0003 1.91951,-2.96818 0.45788,-0.96795 1.21866,-2.11973 1.69061,-2.5596 0.47195,-0.43988 1.34429,-1.75815 1.93854,-2.92953 0.59424,-1.17129 1.47889,-2.49827 1.96589,-2.94881 0.48698,-0.45053 1.37003,-1.77751 1.96233,-2.94881 0.68256,-1.34988 1.74893,-2.74502 2.91217,-3.81002 1.74193,-1.59489 1.90881,-1.67198 3.28082,-1.51735 1.59167,0.17941 2.16559,-0.31909 2.16559,-1.88087 0,-0.18023 0.81093,-0.32766 1.80207,-0.32766 1.66285,0 1.80207,-0.0585 1.80207,-0.75492 0,-0.42366 0.47396,-1.21423 1.08045,-1.80206 1.03682,-1.00488 1.18898,-1.04722 3.76795,-1.04722 l 2.6875,0 0,-0.98288 0,-0.98297 1.97678,0 c 1.45909,0 2.40012,-0.21453 3.59324,-0.81909 l 1.61646,-0.81918 20.18043,0 20.18042,0 3.8307,0.95669 c 2.10689,0.52628 5.82117,1.34883 8.25395,1.82796 2.4328,0.47913 5.86724,1.23233 7.63211,1.67378 1.76487,0.44145 5.52463,1.29192 8.35503,1.89003 5.48135,1.15824 8.36365,2.32421 9.9457,4.02343 0.47726,0.51261 1.69765,2.59624 2.71201,4.6304 1.01434,2.03401 2.2982,4.17198 2.85303,4.75087 0.55485,0.5789 1.42436,1.86347 1.93228,2.85461 0.61591,1.20177 2.14426,3.00256 4.58845,5.40618 2.6396,2.59586 3.88148,4.08236 4.43904,5.31348 0.42575,0.94018 1.27531,2.26716 1.88788,2.94881 0.61257,0.68174 1.56019,2.12416 2.10579,3.20539 0.54561,1.08122 1.39015,2.33449 1.87681,2.78502 1.91959,1.77706 4.14311,7.68775 5.56209,14.78535 0.71306,3.56666 0.82721,5.01157 0.82829,10.48471 0,4.39432 0.30147,9.67567 0.97679,17.16038 1.32478,14.68281 1.16767,13.91858 3.26704,15.89096 l 1.22066,1.14676 0.22601,4.53971 c 0.25271,5.07576 0.53836,6.03898 2.47018,8.32993 l 1.30928,1.55277 0.99824,8.00618 c 0.54904,4.40347 0.99825,8.7234 0.99825,9.6 0,3.44822 3.05031,13.56143 4.56709,15.14198 1.01931,1.06223 2.44409,4.95205 3.65648,9.98276 0.98112,4.07102 2.85395,9.73144 3.92314,11.85703 1.54486,3.07132 2.59746,7.89575 2.59746,11.90492 0,3.73789 -0.46523,6.06487 -2.45919,12.30066 -0.60507,1.89214 -1.55254,5.23789 -2.10547,7.43486 -0.88495,3.51607 -1.00536,4.54617 -1.00536,8.60075 l 0,4.60623 -33.74778,0 c -20.45822,0 -33.74777,-0.11935 -33.74777,-0.30311 0,-0.16672 1.17927,-3.81588 2.6206,-8.10931 1.44132,-4.29336 2.62086,-7.99048 2.62118,-8.21575 3.3e-4,-0.27804 -0.57793,-0.40955 -1.80147,-0.40955 l -1.80207,0 0,-1.89522 c 0,-1.78877 0.0595,-1.93042 1.05929,-2.52102 1.63482,-0.9657 3.7155,-3.00804 4.82334,-4.73443 1.49131,-2.32398 2.50248,-5.65285 3.98475,-13.11803 0.73228,-3.68805 1.6851,-7.64512 2.11737,-8.79352 1.97281,-5.24127 4.91287,-9.01639 9.22842,-11.84953 l 2.47804,-1.62678 2.28341,2.03701 c 1.25591,1.12033 2.80657,2.47388 3.44594,3.00789 l 1.1625,0.97095 -2.05596,-3.97764 c -1.13078,-2.18774 -1.95816,-4.13588 -1.8386,-4.32939 0.11952,-0.19337 0.61411,-0.35175 1.09903,-0.3519 2.88367,0 7.58503,-3.90821 8.88595,-7.38524 0.94652,-2.52974 0.92177,-5.76116 -0.0588,-7.67807 -1.28697,-2.51592 -1.52026,-2.4853 -4.62839,0.60666 l -2.75123,2.73691 -1.2069,-0.39829 c -0.66378,-0.21903 -1.27743,-0.58219 -1.36367,-0.80686 -0.0862,-0.22474 0.21923,-8.65097 0.67883,-18.72493 0.97593,-21.39249 1.00165,-23.57354 0.32378,-27.44902 -0.94183,-5.38419 -2.37152,-9.28707 -7.49633,-20.46364 -1.87327,-4.08536 -3.84345,-8.53365 -4.37821,-9.88525 -2.45311,-6.20021 -3.89948,-12.12261 -4.21583,-17.26246 l -0.20542,-3.3375 -1.40525,-1.00916 c -0.77289,-0.55502 -3.7788,-3.28555 -6.6798,-6.06772 -9.20123,-8.82452 -13.09744,-10.99492 -23.54677,-13.11683 -7.27887,-1.47808 -11.61202,-1.91563 -19.22112,-1.9407 -5.73188,-0.0188 -7.75799,0.095 -9.89225,0.55577 -5.55986,1.20043 -10.92394,3.36542 -14.82811,5.98485 -2.26854,1.522 -6.24241,5.184 -6.24241,5.75253 0,0.16822 2.78679,0.29763 6.41122,0.29763 l 6.41123,0 -0.22095,0.7372 c -0.51476,1.71747 -1.43411,3.46826 -2.3971,4.56502 -0.87816,1.00023 -1.03024,1.42989 -1.03024,2.91068 0,2.17528 0.98962,4.31385 2.3987,5.18362 1.24497,0.76843 3.23623,1.29372 6.09498,1.60787 l 2.10454,0.23119 2.02721,4.4233 2.02721,4.42322 1.84783,0.0983 1.84783,0.0983 0,-3.78428 0,-3.78428 1.92742,0 1.92742,0 0.16067,5.32429 c 0.1401,4.64271 0.28507,5.75155 1.13242,8.66231 l 0.97174,3.33802 -3.30557,4.05023 c -1.81806,2.22759 -4.61322,5.63497 -6.21146,7.57185 -1.59825,1.93695 -2.83509,3.59256 -2.74854,3.67911 0.0865,0.0865 0.57183,-2.3e-4 1.07842,-0.19284 1.30863,-0.4976 1.64775,-0.25574 2.08683,1.48799 0.98083,3.89522 4.08407,8.08755 7.376,9.96475 0.91638,0.52252 4.17265,1.93349 7.23616,3.13557 3.06351,1.202 6.78642,2.83637 8.27313,3.63182 1.94694,1.04174 2.70309,1.31114 2.70309,0.96307 0,-0.2658 -0.23107,-2.03851 -0.51347,-3.93951 -0.28241,-1.90092 -0.46671,-3.75215 -0.40956,-4.11388 0.0915,-0.57942 2.47742,3.45925 7.88623,13.3496 l 0.93169,1.70358 -0.92904,0.48048 c -0.90376,0.46735 -1.02893,0.41871 -4.60095,-1.78554 -2.01956,-1.24636 -3.73836,-2.26603 -3.81958,-2.26603 -0.0812,0 -0.19259,0.70034 -0.24752,1.55637 l -0.0999,1.5563 -9.01033,0 c -7.54202,3e-4 -9.37803,0.0947 -11.26675,0.57912 -3.00805,0.77144 -6.31172,2.54933 -8.0741,4.34508 l -1.43743,1.46465 1.62455,0.009 c 0.8935,0.007 5.53175,0.22204 10.30722,0.48258 4.77548,0.26055 9.45973,0.47779 10.40945,0.48266 l 1.72676,0.009 1.47915,2.28653 c 1.79401,2.77331 4.45673,8.08198 5.19082,10.34899 0.29551,0.91263 0.89217,3.78773 1.32591,6.38915 0.43374,2.60141 1.17855,5.76198 1.65513,7.02343 1.80329,4.77302 2.1051,3.29966 -2.76637,13.50461 -2.39,5.00669 -4.53643,9.40717 -4.76982,9.77881 -0.39095,0.62258 -0.96202,0.70973 -7.25578,1.10697 -6.89083,0.43492 -15.93119,0.50518 -18.95441,0.14735 l -1.63824,-0.19397 -3.76679,-5.8682 c -2.07172,-3.22745 -3.82079,-5.70614 -3.8868,-5.50812 -0.23352,0.70057 0.68368,4.43628 1.80379,7.34674 2.13251,5.541 5.76915,10.88458 8.49478,12.48186 l 1.47238,0.86294 9.08136,0.0443 c 6.58107,0.0323 9.46455,-0.0721 10.47315,-0.37757 1.44816,-0.43912 2.72707,-1.56178 5.45863,-4.79178 1.51012,-1.7857 4.07817,-3.9534 4.35525,-3.67633 0.0687,0.0683 -0.24977,2.33816 -0.70761,5.04347 -0.45784,2.7053 -0.83243,5.06749 -0.83243,5.24945 0,0.18188 1.76388,1.63624 3.91974,3.23188 2.15586,1.59571 3.92517,2.9943 3.93179,3.1081 0.007,0.11372 -4.56651,2.60975 -10.16249,5.54662 -5.59599,2.93688 -10.41545,5.51593 -10.70991,5.73121 -0.49107,0.35911 -0.47652,0.54534 0.17584,2.25005 1.94914,5.09339 5.2639,7.29689 9.60493,6.38486 5.73059,-1.20395 12.99392,-6.8101 23.71557,-18.30457 2.86421,-3.07065 5.30873,-5.58304 5.43227,-5.58304 0.12354,0 0.40791,0.44251 0.63194,0.98334 0.38381,0.92659 0.15854,1.55908 -3.90445,10.96152 -3.73913,8.65307 -4.93668,11.03538 -9.0174,17.93834 l -4.70565,7.96016 -46.88654,0.083 c -25.7876,0.0458 -46.9029,-0.0278 -46.92289,-0.16379 z m 130.6377,-52.09095 c -0.0919,-0.0919 -0.8569,-0.0638 -1.70003,0.0631 l -1.53297,0.22984 1.59974,1.62709 1.59975,1.62709 0.10029,-1.68992 c 0.0552,-0.92944 0.0252,-1.76505 -0.0668,-1.85693 z m -65.0717,-34.32397 c 0,-0.30942 -1.7384,-4.59339 -1.97163,-4.85867 -0.12967,-0.1475 -1.76642,0.81084 -3.63723,2.12971 l -3.40146,2.39792 3.76795,0.18038 c 2.07238,0.0992 4.0997,0.20973 4.50516,0.24569 0.40547,0.036 0.73721,-0.008 0.73721,-0.095 z m 12.11626,-0.37472 c 0.46596,-0.15118 -6.96206,-4.35004 -7.73102,-4.37008 -0.20111,-0.007 -0.70037,0.91203 -1.10946,2.03829 -0.4091,1.12626 -0.8176,2.24351 -0.90779,2.48266 -0.13383,0.35491 0.70272,0.39552 4.54978,0.22069 2.59256,-0.11785 4.93188,-0.28502 5.19849,-0.37156 z m -32.26431,-25.5129 c 4.63161,-10.99259 8.55046,-20.22981 8.70856,-20.52714 0.20646,-0.38838 0.12759,-0.60457 -0.27993,-0.76746 -0.48434,-0.19359 -4.52917,-1.67415 -9.01842,-3.30101 -1.18326,-0.42876 -1.25582,-0.41555 -1.51495,0.27729 -0.32895,0.87945 -0.11779,0.98176 3.16728,1.53416 l 2.37545,0.39949 0,1.92741 0,1.9275 -11.23679,3.6707 -11.23679,3.67078 -0.89718,2.80912 c -1.49249,4.6731 -1.0808,7.99664 1.19739,9.66643 1.33915,0.98154 4.77233,0.86144 8.3609,-0.29237 1.50357,-0.48341 2.77903,-0.83133 2.83435,-0.77316 0.0553,0.0585 -0.7749,1.70613 -1.84494,3.66185 l -1.94553,3.556 1.17585,5.94582 c 1.2261,6.19998 1.40381,6.94312 1.60941,6.72994 0.0683,-0.0706 3.91373,-9.12275 8.54534,-20.11535 z m -17.71092,-44.02029 c 1.2541,-1.17362 2.88537,-1.80521 7.6815,-2.97381 5.77169,-1.40625 6.54216,-1.45249 11.66678,-0.70019 2.52211,0.37029 5.14848,0.67399 5.83641,0.67497 1.14456,0 1.23195,-0.0608 1.02933,-0.7354 -0.48485,-1.61425 -1.68652,-3.37998 -2.61312,-3.83975 -1.30768,-0.64878 -8.3579,-0.85971 -11.54597,-0.34544 -2.55455,0.4121 -6.07487,1.50323 -7.9629,2.46803 -0.62018,0.31699 -2.49949,1.46157 -4.17625,2.54354 l -3.04866,1.96727 0.89833,0.93763 c 0.49408,0.51576 0.97431,0.9377 1.06716,0.9377 0.0929,0 0.61819,-0.42059 1.16739,-0.93455 z m 105.18073,85.22208 0.01,-1.88403 3.76796,0 3.76795,0 0.0983,1.88403 0.0983,1.88396 -3.87617,0 -3.87618,0 0.01,-1.88396 z m -28.13953,-55.45756 c -8.57174,-1.7601 -11.96263,-3.21837 -14.02905,-6.03327 -1.32172,-1.80048 -2.22784,-3.95925 -2.45163,-5.84095 -0.19579,-1.64623 -0.41463,-1.86264 -1.07676,-1.06486 -0.22434,0.27031 -0.51542,0.49152 -0.64684,0.49152 -0.13143,0 -2.1321,-2.45542 -4.44594,-5.45655 l -4.20698,-5.45655 -0.5384,-7.23985 c -0.29612,-3.98184 -0.48905,-7.30124 -0.42873,-7.37631 0.0603,-0.0751 0.87478,1.50999 1.80995,3.52223 l 1.70028,3.65869 1.90391,0 1.90391,0 0,-1.8504 0,-1.85033 6.14341,0.1987 c 11.55182,0.37367 19.79887,2.36909 25.47121,6.16298 3.03467,2.02973 5.0622,4.27106 6.54527,7.23556 2.06628,4.13025 1.62835,4.08251 -3.24494,-0.3537 -3.54328,-3.2255 -5.94432,-4.68429 -8.6373,-5.24772 -4.05115,-0.84762 -5.71849,-0.24554 -9.17883,3.31452 l -1.74096,1.7911 2.98676,0.21206 c 8.55145,0.60697 14.58712,5.06682 18.29449,13.51805 1.14444,2.60892 2.84733,8.26401 2.57148,8.53987 -0.0988,0.0988 -3.32193,-1.51779 -7.16255,-3.59241 -3.84062,-2.07462 -7.03443,-3.72182 -7.09734,-3.66042 -0.10061,0.0981 1.01211,5.26019 1.46377,6.79066 0.22738,0.77054 -0.33869,0.73098 -5.90819,-0.41262 z M 491.188,659.6193 c 0.28505,-0.10937 0.51827,-0.31272 0.51827,-0.45174 0,-0.13909 -1.11463,-1.09188 -2.47695,-2.11725 l -2.47695,-1.86429 -2.67486,0.4374 -2.67486,0.43732 4.4146,1.84837 c 4.94084,2.06877 4.66513,1.98094 5.37075,1.71019 z"
       style="fill:#e6e6e6;fill-opacity:1" />
    <path
       inkscape:connector-curvature="0"
       id="path3054"
       d="m 268.58157,800.21937 -1.10769,-1.14292 1.04937,-9.42376 c 0.57718,-5.18309 1.34174,-10.5296 1.69905,-11.88112 1.0434,-3.94694 2.84038,-12.88001 4.10209,-20.39233 0.6435,-3.83149 1.52976,-8.66194 1.96946,-10.7343 0.43967,-2.07237 0.80018,-4.68099 0.80113,-5.79697 0.003,-2.96525 1.54581,-13.43465 2.62309,-17.79369 1.1196,-4.53026 2.95424,-13.74083 4.07896,-20.47805 0.45126,-2.70305 1.19248,-6.74112 1.64712,-8.97345 0.45467,-2.23232 0.82665,-4.87548 0.82665,-5.87368 0,-0.99827 0.448,-6.249 0.99556,-11.66839 0.79094,-7.82842 1.36177,-11.67808 2.77758,-18.73237 2.01107,-10.02014 3.75812,-21.27087 3.76091,-24.21969 0.004,-3.78675 1.95363,-17.51865 3.77424,-26.57737 1.67612,-8.33984 1.91901,-10.12268 2.80618,-20.59778 1.05129,-12.41303 1.38016,-14.06864 3.74237,-18.83978 0.57993,-1.17138 1.46458,-3.38299 1.96588,-4.91474 0.5013,-1.53176 1.38596,-3.74337 1.96589,-4.91474 1.46056,-2.95001 2.46618,-6.18249 4.58692,-14.74414 1.00434,-4.05466 3.02169,-10.98441 4.483,-15.39953 2.41961,-7.31025 3.08746,-8.89072 7.47652,-17.69295 2.65077,-5.3161 5.23033,-10.91888 5.73235,-12.45063 1.14277,-3.4868 2.79115,-6.80545 3.88802,-7.8276 0.60764,-0.56628 1.35574,-2.33562 2.70134,-6.38915 1.02353,-3.08332 2.70332,-7.30154 3.73286,-9.37398 1.02955,-2.07237 2.6512,-6.12703 3.60366,-9.01031 1.85387,-5.61201 3.73585,-9.75141 4.91594,-10.81236 1.7186,-1.5452 4.7704,-8.69759 8.45795,-19.82275 3.71987,-11.22259 4.94353,-15.60377 6.45158,-23.09921 0.47133,-2.34267 1.72573,-6.91339 2.78755,-10.15705 2.86959,-8.76628 3.73277,-13.76696 4.75067,-27.52251 0.46672,-6.30718 1.28652,-15.3749 1.82176,-20.15032 l 0.97317,-8.68273 2.77775,-2.79148 2.77776,-2.79148 0,-2.79335 c 0,-2.1927 0.19897,-3.38899 0.92532,-5.56352 0.88974,-2.66364 0.98739,-2.80454 2.53927,-3.66357 0.88768,-0.49137 1.77942,-0.89686 1.98164,-0.90107 0.20223,-0.007 0.46608,0.60772 0.58634,1.35971 0.12025,0.75207 0.83589,2.55826 1.59029,4.01375 1.06354,2.05187 2.07505,3.34545 4.50313,5.75898 4.67319,4.64503 8.86284,6.85942 13.50751,7.13918 3.09384,0.18639 4.41105,-0.2691 5.0245,-1.73728 0.64197,-1.53641 0.007,-3.75019 -2.61636,-9.11351 -1.21859,-2.49183 -2.15905,-4.58724 -2.08992,-4.65637 0.0691,-0.0691 5.35328,3.02725 11.74253,6.88081 10.99738,6.63295 11.649,6.9775 12.22055,6.46211 0.33205,-0.29943 0.73011,-0.78052 0.88457,-1.06914 0.18061,-0.33748 -0.46001,-4.08032 -1.7952,-10.48839 -1.14181,-5.48004 -2.02296,-10.02119 -1.95811,-10.09152 0.20237,-0.21934 3.5972,2.47809 6.30085,5.00647 1.42296,1.33073 2.86632,2.50698 3.20745,2.61395 0.79248,0.24831 13.96358,3.15599 14.29597,3.15599 0.13714,0 0.24934,-1.9952 0.24934,-4.43381 0,-3.12949 0.13959,-4.76783 0.47453,-5.56944 l 0.47452,-1.13572 2.3924,1.11027 c 2.55572,1.18609 20.0146,9.72574 20.19003,9.87557 0.26835,0.22917 -0.7707,2.8447 -1.22713,3.08895 -0.28365,0.15178 -1.19169,0.37735 -2.01786,0.50121 -0.82617,0.12393 -1.65556,0.32277 -1.84311,0.4419 -0.23498,0.1493 -0.21985,1.11365 0.0486,3.10194 0.21432,1.58685 0.30652,2.93305 0.20487,2.99145 -0.10163,0.0585 -6.00874,-0.0899 -13.1269,-0.3296 -7.11816,-0.23976 -14.5939,-0.44326 -16.61275,-0.45226 l -3.67065,-0.0165 -0.32261,1.16845 c -0.29451,1.06658 -0.14611,1.55555 1.70384,5.61388 1.34036,2.94048 2.24864,4.53191 2.68267,4.70066 0.36091,0.14029 6.25899,0.57056 13.10684,0.95609 6.84784,0.38553 13.35307,0.78539 14.45604,0.8886 l 2.0054,0.18774 0.19768,1.89131 c 0.10872,1.04016 0.78295,4.59722 1.4983,7.90454 1.39045,6.42863 1.99295,10.46955 1.99295,13.36671 l 0,1.80064 -2.53928,2.4922 c -9.39442,9.22026 -35.09742,24.50839 -44.64817,26.55666 l -1.5133,0.3245 -0.59473,2.36106 c -3.06446,12.16584 -7.60557,25.58893 -12.55074,37.09887 -2.54122,5.91466 -3.7873,9.46609 -5.17082,14.73708 -1.58347,6.03274 -6.04852,28.28456 -6.04852,30.14307 0,1.24396 -0.18784,1.76618 -0.94572,2.62941 -1.24921,1.42276 -2.65842,5.69698 -2.65842,8.06315 0,1.92254 -1.45672,5.864 -1.9623,5.30935 -0.13748,-0.15088 -0.65683,-2.11726 -1.15412,-4.36985 -0.49729,-2.2526 -0.94858,-4.14774 -1.00288,-4.21139 -0.38602,-0.45286 -5.12723,10.46925 -8.62895,19.87822 -4.91226,13.19887 -7.88772,23.19379 -7.90095,26.54006 -0.004,1.02395 0.4527,7.83323 1.01498,15.13155 l 1.02233,13.26981 -1.62524,2.68046 c -5.22286,8.61389 -8.68995,20.62645 -10.38523,35.98199 -1.08164,9.79735 -1.23506,15.23266 -1.4797,52.4237 -0.14447,21.96229 -0.43191,42.07216 -0.68091,47.63627 l -0.43089,9.62899 2.43614,4.72422 2.43615,4.7243 -0.004,8.90972 c -0.005,9.7692 -0.15714,10.84614 -2.16607,15.27672 -1.63671,3.60968 -3.76631,6.7129 -9.84191,14.34127 -3.20695,4.02666 -6.41541,8.18198 -7.12991,9.23407 -2.85108,4.19841 -4.40886,8.11644 -5.10202,12.83234 -0.1405,0.95579 -0.84018,1.81745 -3.9245,4.83277 l -3.75349,3.66957 -33.53155,0 -33.53155,0 -1.10771,-1.14284 z m 113.36345,-0.74111 c 0.002,-3.44055 0.6943,-7.71815 2.1884,-13.51549 1.47174,-5.71057 1.47701,-5.7511 1.3003,-9.99327 -0.36872,-8.85139 -3.45767,-20.99982 -8.5605,-33.66731 -1.97101,-4.8929 -6.28673,-13.69955 -8.41491,-17.17141 l -1.63935,-2.67438 1.03777,-14.691 c 0.57078,-8.08003 1.13568,-14.77852 1.25535,-14.88556 0.11966,-0.10696 1.21953,-0.61117 2.44416,-1.12033 1.22463,-0.50916 2.30107,-1.04624 2.39208,-1.19352 0.091,-0.14735 0.65192,-11.55474 1.24645,-25.34992 l 1.08095,-25.08211 0.8683,-0.90632 c 0.72923,-0.76115 0.8683,-1.20185 0.8683,-2.75162 0,-1.83801 0.004,-1.84567 1.05347,-1.94791 0.83758,-0.0817 1.37726,-0.50533 2.63341,-2.06748 2.68727,-3.34193 18.88162,-26.20814 24.76129,-34.9627 0.93684,-1.39499 1.69547,-2.8977 1.69547,-3.35844 0,-0.78907 0.0926,-0.83328 1.72016,-0.82225 1.44581,0.01 2.33413,-0.29042 5.57001,-1.88253 3.52451,-1.73413 3.84987,-1.97043 3.84987,-2.79666 0,-0.87607 0.0531,-0.90249 1.81141,-0.90249 1.36154,0 2.29501,-0.24411 3.75861,-0.98296 l 1.94721,-0.98297 19.6874,0 19.68741,0 3.8307,0.95669 c 2.10688,0.52628 5.82116,1.34898 8.25395,1.82834 2.43279,0.47936 6.11883,1.29493 8.19121,1.81234 2.07237,0.51742 5.91649,1.37487 8.54246,1.9055 5.23948,1.0587 7.94876,2.18646 9.69136,4.03416 0.56778,0.60202 1.84263,2.71634 2.83301,4.69863 0.99038,1.98229 2.19951,3.97276 2.68691,4.4233 0.48742,0.45046 1.37606,1.77744 1.97481,2.94881 0.80578,1.57642 2.03783,3.06599 4.74241,5.73384 2.4278,2.39476 3.96337,4.20883 4.57626,5.40618 0.50733,0.99114 1.24972,2.09699 1.64971,2.45737 0.4,0.36038 1.21211,1.61365 1.80472,2.78502 0.59262,1.1713 1.4758,2.49828 1.96258,2.94882 2.02539,1.87434 4.23334,7.6879 5.74256,15.12013 0.89379,4.40145 0.97456,5.35762 0.97456,11.53666 0,6.86753 1.55587,26.63149 2.31982,29.46861 0.21523,0.79936 0.85467,1.75027 1.70481,2.53521 l 1.36036,1.2562 0.21311,4.70493 c 0.23424,5.17139 0.41733,5.76604 2.52489,8.20119 l 1.25178,1.44626 0.88753,7.17987 c 0.48813,3.94889 0.88531,8.10991 0.88262,9.24675 -0.009,3.81994 3.12904,14.57608 4.79599,16.43879 1.04542,1.16822 2.28616,4.55818 3.71985,10.16351 1.34041,5.24067 2.39996,8.4411 3.58575,10.83106 1.53287,3.08956 2.96535,9.17417 2.96535,12.59573 0,2.97088 -1.07029,7.94537 -2.78462,12.94216 -2.06484,6.01848 -2.58855,8.74097 -2.77327,14.41648 l -0.17595,5.40626 -33.66587,0.0834 c -18.51622,0.0458 -33.66586,0.0428 -33.66586,-0.008 0,-0.0495 1.25326,-3.84395 2.78502,-8.43119 1.53175,-4.5873 2.78501,-8.38074 2.78501,-8.42975 0,-0.0488 -0.81093,-0.0891 -1.80207,-0.0891 l -1.80206,0 0.0229,-1.88403 0.0229,-1.88395 2.0024,-1.47441 c 3.94611,-2.90565 5.48722,-6.20036 7.31431,-15.63748 2.5902,-13.37857 4.94503,-17.62164 12.50574,-22.53352 1.60603,-1.04339 1.09504,-1.28345 5.40571,2.53888 1.57526,1.3968 2.95178,2.53964 3.05892,2.53964 0.10718,0 -0.78737,-1.85648 -1.98781,-4.12551 -1.20047,-2.26896 -2.13466,-4.16395 -2.07601,-4.21102 0.0586,-0.0473 0.82682,-0.26197 1.70701,-0.47748 4.38171,-1.07266 7.57428,-4.14751 8.85546,-8.52892 0.92737,-3.17137 0.42614,-6.10345 -1.36259,-7.97044 l -0.8746,-0.91285 -2.82492,2.81182 -2.82495,2.81182 -1.37084,-0.54849 -1.37085,-0.54849 0.17932,-2.50189 c 0.41614,-5.80604 1.46806,-32.23104 1.46806,-36.8778 0,-9.15488 -0.74684,-11.59596 -9.43991,-30.85324 -4.62242,-10.23986 -6.66551,-17.10326 -7.15841,-24.04727 l -0.21157,-2.98064 -1.34259,-1.05135 c -0.73843,-0.57822 -3.4805,-3.10232 -6.09349,-5.60908 -8.19151,-7.85837 -12.85494,-10.80651 -19.98655,-12.63514 -9.437,-2.41969 -22.22582,-3.72543 -29.01999,-2.96293 -9.49599,1.06583 -17.89574,4.68009 -23.23049,9.99575 l -2.6306,2.62115 6.47105,0.0888 c 5.88333,0.0809 6.4704,0.14037 6.46386,0.65531 -0.0116,0.90978 -1.17247,3.21995 -2.46471,4.90461 -1.12785,1.47043 -1.18469,1.65951 -0.99423,3.30792 0.45247,3.91608 2.60834,5.67761 7.55859,6.17619 1.08297,0.10906 2.26507,0.30708 2.6269,0.43995 0.43974,0.16146 1.30884,1.66604 2.62118,4.53769 l 1.96333,4.29613 1.88398,0 1.88398,0 0,-3.60412 0,-3.60412 1.93769,0 1.9377,0 0.11866,5.32429 c 0.10423,4.67746 0.23195,5.71042 1.05129,8.50272 l 0.93264,3.17851 -6.40281,7.79689 c -3.52155,4.28833 -6.36402,7.83571 -6.31659,7.88322 0.0474,0.0473 0.71754,-0.13654 1.48913,-0.4088 0.77159,-0.27225 1.44761,-0.49497 1.50227,-0.49497 0.0546,0 0.34401,0.84154 0.64301,1.87 0.67628,2.3263 1.9004,4.78187 3.21714,6.4534 1.8948,2.40535 4.44386,3.92374 10.77201,6.41661 3.29546,1.29824 7.36409,3.09324 9.0414,3.9889 l 3.04965,1.62859 -0.18686,-1.08647 c -0.49707,-2.89019 -1.16385,-7.91025 -1.06394,-8.01016 0.0619,-0.0616 1.99609,3.2815 4.29835,7.42969 3.43243,6.18444 4.11404,7.62867 3.78664,8.02321 -0.2196,0.26452 -0.61229,0.48108 -0.87264,0.48108 -0.26036,0 -2.15936,-1.03213 -4.22,-2.29358 -2.06065,-1.26145 -3.82005,-2.2935 -3.90977,-2.2935 -0.0897,0 -0.16314,0.79876 -0.16314,1.77511 l 0,1.77511 -8.10928,-0.18428 c -6.79647,-0.15448 -8.56017,-0.0954 -10.89431,0.36474 -3.48313,0.68676 -7.00531,2.37637 -9.24301,4.43395 l -1.72174,1.58318 2.9431,0.2038 c 1.6187,0.11214 6.40798,0.35542 10.64283,0.54068 4.23486,0.18533 8.43694,0.41293 9.33798,0.50578 l 1.63824,0.1689 2.20498,3.6987 c 3.61965,6.07162 4.42327,8.25186 5.49735,14.91393 0.69461,4.3083 1.17954,6.10481 2.5212,9.33999 l 0.80101,1.93147 -4.65091,9.74413 -4.65092,9.74405 -1.84429,0.19329 c -5.9482,0.62348 -14.53147,0.93252 -19.77595,0.71206 l -5.80866,-0.24426 -3.99391,-6.18992 c -2.19665,-3.40453 -4.05213,-6.13175 -4.12329,-6.06059 -0.0712,0.0713 0.0384,1.06621 0.24337,2.21116 1.47149,8.2183 7.48301,18.13222 11.67083,19.247 0.69704,0.18556 4.87967,0.36526 9.29473,0.39934 10.94287,0.0845 11.80406,-0.15726 14.91631,-4.18759 1.47422,-1.90903 4.47679,-4.69421 5.06066,-4.69421 0.12786,0 -0.16051,2.3459 -0.64083,5.21312 l -0.87329,5.21312 4.0542,3.02283 4.0542,3.02282 -7.46987,3.91992 c -4.10842,2.15599 -8.97692,4.72182 -10.81887,5.70193 l -3.34901,1.78195 0.69714,1.87119 c 1.86586,5.00812 4.70731,7.23234 8.76897,6.864 2.45628,-0.22271 4.76542,-1.22279 8.53716,-3.6972 4.27289,-2.80326 7.59811,-5.78871 15.06262,-13.52322 3.50973,-3.6367 6.47176,-6.61217 6.58228,-6.61217 0.11053,0 0.36354,0.35678 0.56224,0.79291 0.31615,0.69389 -0.1654,2.01396 -3.85452,10.5666 -3.63948,8.43764 -4.87985,10.90462 -9.07328,18.04576 l -4.85748,8.27205 -46.77179,0 -46.77179,0 7.5e-4,-1.88404 z m 130.73435,-47.50903 c 0.003,-0.31535 0.095,-1.12626 0.20671,-1.80207 l 0.20307,-1.22864 -1.79033,0 c -0.98468,0 -1.89221,0.10186 -2.01671,0.22639 -0.23538,0.2354 2.6817,3.37773 3.13559,3.37773 0.14194,0 0.2597,-0.25807 0.26167,-0.57341 z m -65.96834,-39.6825 c -0.57163,-1.41706 -1.18678,-2.59774 -1.36699,-2.62386 -0.18021,-0.0263 -1.86553,1.02275 -3.74517,2.33066 l -3.41752,2.3781 1.45163,0.19652 c 0.7984,0.10809 2.95143,0.21866 4.78451,0.24568 l 3.33288,0.0495 -1.03934,-2.57635 z m 11.08365,2.29591 2.94883,-0.21101 -4.55561,-2.3796 c -2.50558,-1.30882 -4.59125,-2.34095 -4.63482,-2.29358 -0.0435,0.0473 -0.52115,1.22872 -1.06128,2.62536 l -0.98206,2.53927 2.66805,-0.0345 c 1.46743,-0.0188 3.99502,-0.12964 5.61689,-0.24576 z m -30.30109,-25.84948 c 4.77196,-11.30801 8.6763,-20.70737 8.6763,-20.8876 0,-0.35461 -10.54779,-4.3056 -10.80576,-4.04768 -0.086,0.086 -0.19637,0.50766 -0.2453,0.9371 -0.0836,0.7339 0.0718,0.80904 2.58936,1.25199 l 2.67835,0.47125 0.22352,1.62529 c 0.12295,0.89394 0.0972,1.75019 -0.0571,1.90287 -0.15438,0.15276 -5.24739,1.91128 -11.31779,3.90783 l -11.03709,3.63017 -1.04786,3.28472 c -0.83154,2.60668 -1.00817,3.61981 -0.85561,4.90799 0.45804,3.86737 2.31795,5.43373 6.10315,5.1397 1.18107,-0.0917 3.29006,-0.5361 4.68667,-0.98754 1.3966,-0.45143 2.53927,-0.75845 2.53927,-0.68233 0,0.0761 -0.81093,1.63054 -1.80206,3.45422 -0.99114,1.82368 -1.80778,3.47816 -1.81477,3.67663 -0.0258,0.73353 2.45514,12.97526 2.6296,12.97526 0.0995,0 4.08521,-9.25194 8.85717,-20.55987 z m -18.05999,-43.7879 c 1.44437,-1.53746 10.71622,-4.13542 14.72144,-4.12499 1.20197,0 3.51237,0.22377 5.13423,0.49025 3.76255,0.61815 6.7168,0.6445 6.7168,0.0601 0,-0.23488 -0.37512,-1.17986 -0.83359,-2.09992 -1.21358,-2.4353 -2.31142,-2.81144 -8.17674,-2.80123 -5.94912,0.0105 -10.26175,0.99647 -14.2527,3.25905 -2.42438,1.37442 -6.21655,3.85679 -6.22109,4.07237 -0.006,0.27353 1.66709,1.92869 1.94923,1.92869 0.12422,0 0.55731,-0.3528 0.96242,-0.78404 z m 105.5357,85.15348 0,-1.80206 3.60413,0 3.60413,0 0,1.80206 0,1.80206 -3.60413,0 -3.60413,0 0,-1.80206 z m -28.41443,-55.70047 c -6.01679,-1.23143 -8.08645,-1.84222 -10.3622,-3.05819 -3.11149,-1.66244 -5.47589,-5.2541 -6.00631,-9.12395 l -0.19765,-1.44205 -0.77144,0.72467 c -0.4243,0.39866 -0.81982,0.66274 -0.87893,0.58692 -2.99734,-3.84305 -8.02198,-10.38607 -8.17039,-10.63941 -0.24827,-0.42374 -1.34121,-13.90268 -1.14335,-14.10055 0.0782,-0.0781 0.82224,1.33382 1.65352,3.13783 l 1.5114,3.27984 1.98009,0 1.98009,0 0,-1.80206 0,-1.80206 2.76717,0 c 3.86325,0 10.48564,0.59203 14.80259,1.32323 10.1465,1.71874 17.35053,5.96751 20.32584,11.98757 0.642,1.29905 1.10877,2.53753 1.03721,2.75214 -0.0718,0.21551 -1.44585,-0.80228 -3.06712,-2.27181 -5.40866,-4.90235 -8.06931,-6.25523 -12.30201,-6.25523 -2.09601,0 -2.29353,0.0698 -4.11805,1.44843 -1.05404,0.79666 -2.47788,2.02801 -3.16407,2.73631 l -1.24764,1.28795 2.55823,0.21776 c 10.24843,0.87254 16.45583,5.91301 19.96306,16.21021 0.59278,1.74044 1.21492,3.78548 1.38255,4.54438 l 0.30474,1.37997 -1.19103,-0.60914 c -0.65507,-0.33501 -3.83082,-2.02966 -7.05721,-3.76589 -3.2264,-1.73623 -5.97283,-3.11523 -6.10319,-3.06433 -0.13035,0.051 0.10747,1.49309 0.5285,3.20508 0.81627,3.31895 0.94008,4.27722 0.54656,4.22978 -0.13515,-0.0165 -2.63759,-0.51907 -5.56096,-1.1174 z m 5.10119,-15.01107 c 0.27816,-0.33516 -0.20452,-0.85003 -2.17151,-2.31625 l -2.52918,-1.88531 -2.03372,0.21108 c -4.25653,0.4419 -4.2435,0.49745 0.59154,2.52208 4.63943,1.94273 5.56548,2.16409 6.14287,1.4684 z"
       style="fill:#8c8c8c;fill-opacity:1" />
    <path
       inkscape:connector-curvature="0"
       id="path3052"
       d="m 268.63491,800.27619 c -0.55707,-0.59293 -0.71241,-1.16003 -0.71241,-2.60044 0,-3.59729 1.67248,-16.77604 2.60913,-20.55949 1.18609,-4.79089 2.67194,-12.29 3.92765,-19.82275 0.54072,-3.24374 1.35535,-7.72408 1.81025,-9.95641 0.45492,-2.23232 0.82712,-4.90565 0.82712,-5.94071 0,-2.83554 1.82294,-14.86004 2.91621,-19.23589 1.16996,-4.68279 2.57072,-11.75727 4.1048,-20.73102 0.63154,-3.6942 1.44807,-8.17057 1.81452,-9.9474 0.36644,-1.77684 0.66677,-4.20967 0.66735,-5.40619 0,-1.19659 0.43404,-6.37766 0.96319,-11.51353 0.74835,-7.26364 1.36105,-11.30727 2.75811,-18.20294 1.97356,-9.74113 3.81238,-21.71466 3.81553,-24.84468 0.004,-3.66192 1.91144,-16.95672 3.71976,-25.92236 1.63631,-8.11277 1.85727,-9.75689 2.66434,-19.82275 0.79435,-9.90754 0.97311,-11.25659 1.836,-13.85636 0.52582,-1.58415 1.37678,-3.72204 1.89103,-4.75094 0.51427,-1.02891 1.3451,-3.12394 1.84627,-4.6557 0.50116,-1.53175 1.38572,-3.74336 1.96565,-4.91474 1.46056,-2.95001 2.46621,-6.18249 4.58692,-14.74414 1.00434,-4.05465 3.09541,-11.20562 4.64683,-15.89096 2.60747,-7.87467 3.18522,-9.24976 7.64045,-18.18448 2.65084,-5.3161 5.15662,-10.69774 5.56841,-11.95919 0.99005,-3.03273 2.68123,-6.36415 3.7242,-7.33608 0.60763,-0.56628 1.35579,-2.33576 2.70142,-6.38914 1.03013,-3.10307 2.77152,-7.43456 3.9003,-9.70164 1.19986,-2.40971 2.79431,-6.41745 3.87356,-9.7364 2.02439,-6.22543 2.98737,-8.36641 4.31567,-9.59483 1.92576,-1.78097 4.83218,-8.55654 8.78413,-20.47798 3.96888,-11.97248 4.84715,-15.11188 6.27896,-22.4439 0.47507,-2.43282 1.73848,-7.07726 2.80758,-10.32092 2.9146,-8.84314 3.73536,-13.46693 4.72374,-26.61153 0.45773,-6.08746 1.29129,-15.34383 1.85235,-20.56986 l 1.0201,-9.50182 2.72923,-2.78495 2.72923,-2.78502 0.0808,-2.78502 c 0.0584,-2.01337 0.33865,-3.56397 1.01143,-5.59632 0.84289,-2.54632 1.04542,-2.86955 2.14867,-3.42915 2.40341,-1.21904 2.31689,-1.2279 2.6822,0.27473 1.15557,4.75328 5.74045,10.47083 11.25418,14.03456 5.04062,3.25793 10.88671,4.09017 13.11041,1.86647 0.88243,-0.88238 0.94546,-1.09736 0.766,-2.61268 -0.12777,-1.07882 -1.00953,-3.34792 -2.54387,-6.54625 -1.29157,-2.69232 -2.28484,-4.95858 -2.20728,-5.03619 0.0776,-0.0775 5.27088,2.95024 11.5407,6.72836 6.2698,3.77819 11.49675,6.86129 11.61542,6.85131 0.11867,-0.01 0.57198,-0.46832 1.00736,-1.01854 l 0.79158,-1.00038 -2.03141,-9.83736 c -1.11727,-5.41053 -1.96169,-9.90702 -1.87648,-9.99229 0.21589,-0.21588 3.48185,2.3507 6.46301,5.07898 2.32662,2.12919 2.66756,2.32481 4.91472,2.8197 10.31524,2.27166 12.42588,2.7008 12.57074,2.55593 0.0907,-0.0907 0.16485,-2.28787 0.16485,-4.88269 0,-4.35716 0.25678,-5.9853 0.94395,-5.9853 0.14608,0 5.21317,2.42217 11.26021,5.38262 l 10.9946,5.38268 -0.53268,1.48132 -0.53268,1.48131 -2.25665,0.40324 -2.25665,0.40332 0.18046,1.33351 c 0.0992,0.73345 0.28209,2.10757 0.4063,3.05368 l 0.22586,1.72016 -2.58148,-0.007 c -1.41982,0 -8.90998,-0.21776 -16.64483,-0.47598 -7.73483,-0.2583 -14.17258,-0.40212 -14.3061,-0.31955 -0.13351,0.0825 -0.33674,0.70628 -0.4516,1.38613 -0.17882,1.05848 0.081,1.8706 1.80791,5.65022 1.10921,2.42779 2.11187,4.51119 2.22813,4.62979 0.11626,0.11868 6.84626,0.6171 14.95556,1.10772 8.1093,0.49055 14.83521,1.03408 14.94647,1.20771 0.11126,0.17369 0.29093,1.14968 0.39926,2.16882 0.10833,1.01914 0.79207,4.60713 1.51942,7.97322 0.72735,3.36609 1.4645,7.86295 1.6381,9.99297 0.30841,3.78375 0.29784,3.89957 -0.46036,5.04535 -3.01132,4.55037 -23.63386,18.48412 -36.38473,24.5836 -4.06869,1.94626 -9.3885,3.89657 -10.62847,3.89657 -0.86821,0 -0.97653,0.26663 -2.64514,6.51037 -2.97842,11.1449 -6.59836,21.65213 -11.28651,32.76017 -2.76075,6.54123 -4.49945,11.49267 -5.71179,16.26584 -1.49803,5.898 -5.61204,27.09066 -5.61204,28.90946 0,1.71326 -0.10961,2.03574 -0.97325,2.86317 -1.30658,1.25176 -2.95298,6.15592 -2.97333,8.85657 -0.0106,1.40482 -0.23438,2.38508 -0.78486,3.43793 l -0.77005,1.4729 -0.33425,-1.30904 c -0.18383,-0.71993 -0.65393,-2.74764 -1.04464,-4.50601 -0.39073,-1.7583 -0.84831,-3.1117 -1.01685,-3.00751 -1.67344,1.03423 -12.30759,28.83665 -15.37492,40.1969 -1.29358,4.79096 -1.29561,5.15059 -0.11384,20.18178 l 1.11651,14.20113 -1.12392,1.85363 c -5.1313,8.46293 -8.45817,18.82424 -10.32653,32.16115 -1.65996,11.84923 -1.97699,20.85105 -2.00781,57.01079 -0.0197,23.15123 -0.15657,32.66912 -0.62409,43.4134 l -0.5988,13.76125 2.42055,4.85431 2.42055,4.85432 0,8.91347 c 0,10.15488 -0.21823,11.49207 -2.67242,16.37565 -1.90167,3.78405 -3.2214,5.65277 -9.76115,13.82183 -8.18001,10.21786 -10.31092,13.85486 -11.35644,19.3828 l -0.54796,2.89724 -3.63471,3.68609 -3.63469,3.68602 -33.77793,0 -33.7779,0 -0.71241,-0.75837 z m 113.45195,-2.10854 c 0.31534,-4.1042 1.09603,-8.55902 2.17055,-12.38578 1.39697,-4.97509 1.60116,-6.74615 1.26292,-10.95401 -0.39948,-4.96946 -1.05685,-8.68183 -2.58358,-14.58996 -3.08353,-11.9327 -8.82609,-25.97964 -14.35924,-35.12439 l -1.62863,-2.69164 1.02688,-14.50987 c 0.56479,-7.98042 1.12962,-14.66765 1.25518,-14.86049 0.12556,-0.19284 1.2715,-0.77053 2.54655,-1.28382 1.67944,-0.6761 2.35452,-1.12123 2.44988,-1.6153 0.0724,-0.37509 0.59129,-11.81342 1.15312,-25.41831 l 1.0215,-24.73621 0.96899,-0.99977 c 0.82127,-0.84733 0.96899,-1.25958 0.96899,-2.70426 0,-1.66154 0.024,-1.70463 0.94784,-1.70463 1.10049,0 2.49627,-1.72669 10.72655,-13.26973 11.91774,-16.71479 18.1416,-25.98054 18.1416,-27.00839 l 0,-1.00548 2.0478,-0.0128 c 1.83973,-0.012 2.41402,-0.20312 5.65194,-1.88395 3.13484,-1.62746 3.61762,-1.98837 3.7078,-2.77204 0.099,-0.86031 0.18455,-0.90107 1.89332,-0.90107 1.33736,0 2.28176,-0.24838 3.73685,-0.98296 l 1.94721,-0.98289 19.35725,0 19.35726,0 4.4885,1.12026 c 2.46867,0.61612 6.47895,1.51254 8.91175,1.99205 2.43278,0.4795 6.11883,1.29057 8.1912,1.80236 2.07238,0.51171 5.75842,1.33028 8.19121,1.8191 4.72465,0.94933 7.41697,2.05052 8.89513,3.63812 0.47724,0.51254 1.68408,2.55383 2.68183,4.53604 0.99779,1.98229 2.25262,4.06104 2.78855,4.61944 0.53593,0.55833 1.41904,1.88531 1.96245,2.94881 0.69039,1.35115 2.08863,3.01923 4.64186,5.5377 2.70457,2.66785 3.93662,4.15742 4.74241,5.73383 0.59874,1.17138 1.48707,2.49836 1.97405,2.94889 0.48698,0.45046 1.37029,1.77744 1.96291,2.94882 0.59258,1.17137 1.40485,2.42456 1.80505,2.78502 1.86782,1.68226 4.07093,7.63498 5.56661,15.04102 0.91882,4.54963 0.98651,5.37946 0.98881,12.12298 0.003,5.44912 0.2418,9.79787 0.97042,17.58764 0.5324,5.69172 1.12463,10.77851 1.31607,11.30388 0.19148,0.52537 0.876,1.41053 1.52121,1.96698 1.40023,1.20748 1.71818,2.47486 1.75996,7.0157 0.0342,3.71559 0.44058,4.99521 2.28646,7.19991 l 1.39214,1.66275 0.94337,7.44589 c 0.51886,4.09527 0.94441,8.30388 0.94566,9.35245 0.005,3.68128 3.06905,14.14956 4.62472,15.79729 1.07265,1.13601 2.17463,4.14645 3.59417,9.81866 1.32691,5.30192 2.47067,8.73873 3.78218,11.36454 1.43739,2.87788 3.07304,9.507 3.07304,12.45461 0,2.2893 -1.51557,9.07614 -2.94884,13.20511 -0.37532,1.08122 -1.19234,3.98567 -1.81563,6.45437 -1.00531,3.982 -1.1332,4.97096 -1.1332,8.76455 l 0,4.27609 -33.42013,0 c -18.38106,0 -33.42011,-0.11402 -33.42011,-0.25334 0,-0.13939 1.17953,-3.78518 2.62118,-8.10165 1.44165,-4.31648 2.62119,-7.96227 2.62119,-8.10166 0,-0.13939 -0.81093,-0.25342 -1.80207,-0.25342 l -1.80206,0 0,-1.78629 c 0,-1.73436 0.0408,-1.81437 1.4,-2.74952 3.05005,-2.09856 5.43188,-5.55316 6.59818,-9.57013 0.28502,-0.98176 1.04139,-4.43673 1.68081,-7.67785 0.6394,-3.24103 1.60705,-7.22197 2.15032,-8.84651 1.77595,-5.31055 4.83238,-9.26987 9.46975,-12.26718 l 2.04397,-1.32105 3.56413,3.13392 c 1.96029,1.72362 3.56413,3.02838 3.56413,2.89942 0,-0.12896 -0.95336,-2.1141 -2.11855,-4.41136 l -2.11857,-4.17693 1.36744,-0.21866 c 4.95823,-0.7929 9.30632,-5.60578 9.67519,-10.70946 0.0923,-1.27728 -0.0112,-2.68819 -0.25238,-3.44033 -0.47402,-1.47793 -1.82396,-3.40475 -2.38545,-3.40475 -0.21231,0 -1.59135,1.19907 -3.06456,2.66462 -2.23967,2.22805 -2.80444,2.63107 -3.44715,2.46022 -1.82461,-0.48506 -1.77464,0.90062 -0.77243,-21.42288 1.28189,-28.55178 1.77021,-25.86599 -9.10063,-50.0507 -4.39511,-9.77791 -6.40035,-16.71848 -6.97045,-24.12602 l -0.19249,-2.50128 -1.53159,-1.09991 c -0.84236,-0.60494 -3.68064,-3.18211 -6.30726,-5.72701 -9.21901,-8.93223 -13.39346,-11.25058 -24.07317,-13.36964 -9.82141,-1.94874 -20.55139,-2.6439 -26.52442,-1.71844 -6.40156,0.99175 -13.07941,3.52283 -17.86029,6.76949 -2.36605,1.60675 -5.97796,5.15195 -5.79873,5.69166 0.0819,0.24666 2.18174,0.42133 6.38607,0.5313 l 6.26401,0.16379 -0.76391,1.8784 c -0.42016,1.0331 -1.22372,2.40205 -1.7857,3.04212 -0.79944,0.91052 -1.0214,1.46434 -1.01997,2.54489 0.006,4.55999 2.46812,6.62237 8.7143,7.29952 l 1.99934,0.21679 2.16012,4.56711 2.16013,4.56712 1.90203,-0.0989 1.90203,-0.0988 0.0926,-3.68602 0.0926,-3.68602 1.62751,0 1.62752,0 0,3.20313 c 0,4.23924 0.47734,7.85155 1.45714,11.0269 0.441,1.42922 0.73056,2.71379 0.64347,2.85476 -0.0871,0.14089 -2.95662,3.67521 -6.37675,7.85402 -3.42011,4.17881 -6.15046,7.66568 -6.06744,7.74878 0.083,0.083 0.80686,-0.0728 1.60852,-0.34567 l 1.45755,-0.4967 0.19145,0.95721 c 0.50902,2.54512 2.31054,5.98486 4.18254,7.98606 2.27047,2.42712 4.43839,3.64316 11.11736,6.23587 2.60054,1.00946 6.11551,2.56478 7.81103,3.45617 1.69552,0.89138 3.14453,1.55892 3.22,1.48349 0.0755,-0.0755 -0.0954,-1.70298 -0.37966,-3.61666 -0.2843,-1.91368 -0.51691,-3.80469 -0.51691,-4.20231 0,-0.39754 1.84302,2.57882 4.0956,6.61426 2.25259,4.03544 4.0956,7.38255 4.0956,7.43809 0,0.0555 -0.30605,0.26468 -0.68012,0.46487 -0.58478,0.31302 -1.25071,0.0165 -4.75089,-2.11305 l -4.07079,-2.47711 0,1.98289 c 0,1.73773 -0.0709,1.9609 -0.57338,1.80522 -1.28234,-0.39732 -16.31983,-0.31865 -18.43021,0.0965 -3.58492,0.70508 -6.60503,2.15839 -8.90742,4.28623 -1.97581,1.82601 -2.03198,1.91976 -1.24968,2.08595 0.45052,0.0957 4.50516,0.33449 9.01032,0.53071 4.50517,0.19621 9.63306,0.44865 11.39532,0.56087 l 3.20411,0.20418 1.75219,2.83261 c 3.74747,6.05826 4.86006,8.94252 5.93223,15.37881 0.76993,4.62191 1.79045,8.29389 2.90293,10.44515 l 0.53104,1.02695 -4.60308,9.60248 c -2.53169,5.28135 -4.70588,9.69714 -4.83152,9.81297 -0.51866,0.47793 -15.48354,1.20515 -21.2171,1.031 l -5.91682,-0.1797 -3.87902,-6.02959 c -2.13345,-3.31618 -4.02771,-6.12139 -4.20945,-6.23369 -0.57985,-0.35843 0.0609,3.45384 1.10354,6.56607 1.93866,5.78646 5.8466,12.08027 8.77137,14.12644 l 1.42049,0.9937 7.58984,0.2956 c 11.76669,0.45827 13.88141,-0.0398 17.05699,-4.02013 1.66195,-2.08295 4.78315,-5.06982 5.03485,-4.81805 0.0598,0.06 -0.26106,2.36661 -0.71295,5.12642 -0.49442,3.01952 -0.70456,5.15554 -0.52769,5.36369 0.16165,0.19029 1.91925,1.52553 3.90575,2.96721 1.9865,1.4416 3.61749,2.69487 3.62442,2.78502 0.007,0.0901 -4.78281,2.67033 -10.64387,5.73384 -12.08421,6.31625 -11.12604,5.37743 -9.36306,9.17409 1.19645,2.57665 2.3374,3.88306 4.16305,4.76686 1.25533,0.60772 1.87952,0.69742 3.93423,0.56561 2.01306,-0.12919 2.91538,-0.39183 5.13518,-1.49445 5.35336,-2.65914 11.53235,-7.91557 19.88723,-16.91792 4.53677,-4.88839 5.11515,-5.40415 5.4881,-4.89417 0.22929,0.31362 0.41688,0.75507 0.41688,0.98094 0,0.22594 -1.85693,4.73158 -4.12652,10.01256 -3.56127,8.28653 -4.78023,10.7126 -8.89876,17.71111 l -4.77223,8.10924 -46.8402,0 -46.8402,0 0.22026,-2.86692 z m 130.88388,-48.16713 0.0328,-1.39544 -1.88397,0.21228 c -1.03619,0.11665 -1.94905,0.26903 -2.02861,0.33854 -0.0795,0.0698 0.65766,0.9392 1.63824,1.93252 1.68628,1.70824 1.79444,1.76551 1.99594,1.05676 0.1172,-0.41211 0.22778,-1.3772 0.24574,-2.14466 z m -53.86691,-35.42494 1.96445,-0.20395 -4.6917,-2.40595 c -2.58043,-1.32323 -4.78025,-2.31737 -4.88848,-2.20913 -0.23196,0.23195 -2.0455,4.82939 -2.04726,5.18985 -10e-4,0.24576 5.90904,0.0188 9.66299,-0.37082 z m -11.30243,0.16875 c 0,-0.29493 -2.02171,-4.9829 -2.24531,-5.20644 -0.25921,-0.2592 -7.57523,4.64271 -7.58093,5.07943 -0.002,0.13519 2.20842,0.24576 4.91152,0.24576 2.7031,0 4.91472,-0.0533 4.91472,-0.11875 z m -20.36817,-25.56672 c 4.73874,-11.24361 8.69075,-20.72929 8.78225,-21.07916 0.14621,-0.55908 -0.50015,-0.87893 -5.33622,-2.64038 -5.69965,-2.07604 -5.99689,-2.10141 -6.00822,-0.51306 -0.005,0.61395 0.27662,0.75139 2.20661,1.07904 3.54507,0.60194 3.40418,0.49865 3.29266,2.41324 l -0.0981,1.68406 -11.14004,3.69412 -11.14004,3.69412 -0.93775,2.97239 c -1.48531,4.70808 -0.99759,8.10225 1.39576,9.71335 1.55779,1.04864 4.70523,1.02672 8.11622,-0.0563 1.39574,-0.44325 2.59124,-0.75229 2.65667,-0.68691 0.0654,0.0653 -0.69133,1.6445 -1.68167,3.50894 l -1.80064,3.39004 1.33383,6.6349 c 0.7336,3.64916 1.42584,6.63483 1.5383,6.63483 0.11245,0 4.08162,-9.19939 8.82037,-20.44307 z m -17.67201,-44.23235 c 0.93935,-0.99985 3.38467,-1.88635 8.72452,-3.16282 4.73723,-1.13241 5.31635,-1.13932 12.84827,-0.15298 2.56626,0.33614 4.75075,0.5262 4.85443,0.42254 0.10368,-0.10366 -0.15296,-1.04587 -0.57032,-2.09384 -0.9752,-2.44858 -2.14501,-3.27121 -5.10222,-3.5879 -3.06355,-0.32811 -8.64291,0.0661 -11.48266,0.81114 -3.02406,0.7935 -6.54041,2.45894 -10.12564,4.79591 l -2.80167,1.82623 0.92249,0.96292 c 1.11893,1.16785 1.76398,1.21011 2.7328,0.1788 z m 105.20808,85.15348 0,-1.80206 3.60413,0 3.60413,0 0,1.80206 0,1.80206 -3.60413,0 -3.60413,0 0,-1.80206 z m -28.66922,-55.88003 c -3.24373,-0.66994 -6.7158,-1.52973 -7.71574,-1.91053 -4.87208,-1.85558 -7.22873,-4.59744 -8.20156,-9.5422 -0.2126,-1.0807 -0.46634,-1.96488 -0.56386,-1.96488 -0.0975,0 -0.45042,0.24719 -0.78423,0.54925 -0.73207,0.66251 -0.29389,1.10021 -5.10584,-5.09993 l -3.91324,-5.04219 -0.38151,-5.44252 c -0.20982,-2.99347 -0.45895,-6.17979 -0.55362,-7.08086 -0.17069,-1.6246 -0.1579,-1.60892 1.54205,1.89807 l 1.71417,3.53634 1.98841,-0.096 1.98842,-0.096 0.0991,-1.91361 0.0992,-1.9136 4.65176,0.21678 c 15.31074,0.71363 24.0602,3.33126 29.557,8.84269 2.19166,2.19749 4.6497,6.19945 4.35351,7.08799 -0.0632,0.18961 -1.4927,-0.92494 -3.17661,-2.47689 -4.9687,-4.57913 -7.1122,-5.75313 -11.37915,-6.23249 -2.5738,-0.28914 -3.86794,0.33336 -7.09952,3.41497 l -2.35091,2.24178 2.61609,0.23945 c 6.28036,0.57469 10.20584,2.26754 13.95743,6.01886 2.08434,2.08423 2.76881,3.06073 4.15997,5.93501 1.60363,3.31325 3.63822,9.31131 3.27997,9.66951 -0.0954,0.0954 -3.32818,-1.52297 -7.18386,-3.59639 -3.85569,-2.07349 -7.05398,-3.64128 -7.1073,-3.48394 -0.0533,0.15733 0.28518,1.79358 0.75225,3.6361 0.46705,1.84259 0.80557,3.45662 0.75224,3.58678 -0.0533,0.13016 -2.7509,-0.31152 -5.99461,-0.98154 z m 5.16046,-14.529 c 0.31536,-0.23938 0.57338,-0.51172 0.57338,-0.60517 0,-0.1505 -4.23861,-3.42472 -5.07855,-3.92299 -0.32114,-0.19052 -5.66706,0.54879 -5.93971,0.8215 -0.11818,0.11815 9.24397,4.10284 9.70767,4.13174 0.0901,0.008 0.42184,-0.18571 0.73721,-0.42508 z"
       style="fill:#333333;fill-opacity:1" />
  </g>
</svg>
